<svg width="45" height="57" viewBox="0 0 45 57" fill="none" xmlns="http://www.w3.org/2000/svg">
<path d="M22.4205 0.5C19.4419 0.360296 16.4668 0.84407 13.6859 1.92035C10.9049 2.99662 8.37933 4.6417 6.27078 6.75025C4.16223 8.85881 2.51715 11.3844 1.44087 14.1653C0.364598 16.9463 -0.119176 19.9213 0.0205274 22.9C0.0205274 29.956 5.62053 36.9 8.42053 39.7C11.2205 42.5 22.4205 56.5 22.4205 56.5C22.4205 56.5 33.6205 42.5 36.4205 39.7C39.2205 36.9 44.8205 29.956 44.8205 22.9C44.9602 19.9213 44.4765 16.9463 43.4002 14.1653C42.3239 11.3844 40.6788 8.85881 38.5703 6.75025C36.4617 4.6417 33.9361 2.99662 31.1552 1.92035C28.3742 0.84407 25.3992 0.360296 22.4205 0.5Z" fill="#DB1D31"/>
<path d="M22.7933 19.621H36V22.2365C36 26.0368 34.7933 29.1261 32.3799 31.496C29.9581 33.8321 26.8492 35 23.0196 35C18.9721 35 15.6033 33.7052 12.9218 31.1236C10.3073 28.5337 9 25.3512 9 21.5508C9 17.7505 10.3073 14.568 12.9218 11.9272C15.5363 9.31183 18.7877 8 22.6509 8C25.0726 8 27.3101 8.55011 29.3464 9.64196C31.3575 10.7 32.9665 12.1305 34.1313 13.9671L28.4581 17.1835C27.9302 16.3625 27.1508 15.7192 26.1285 15.2283C25.1061 14.7204 23.9749 14.4833 22.7346 14.4833C20.6648 14.4833 18.9721 15.1436 17.648 16.4724C16.324 17.8267 15.6536 19.5364 15.6536 21.5847C15.6536 23.633 16.3073 25.2919 17.5978 26.6462C18.9218 28.0343 20.7738 28.7283 23.1285 28.7283C26.1788 28.7283 28.1816 27.5941 29.1537 25.3257H22.7933V19.6295V19.621Z" fill="white"/>
</svg>
