<svg width="28" height="28" viewBox="0 0 28 28" fill="none" xmlns="http://www.w3.org/2000/svg">
<path d="M14 0C21.7322 0 28 6.2678 28 14C28 21.7322 21.7322 28 14 28C6.2678 28 0 21.7322 0 14C0 6.2678 6.2678 0 14 0ZM14 5.6C13.6287 5.6 13.2726 5.7475 13.0101 6.01005C12.7475 6.2726 12.6 6.6287 12.6 7V14C12.6001 14.3713 12.7476 14.7273 13.0102 14.9898L17.2102 19.1898C17.4742 19.4448 17.8279 19.5859 18.195 19.5827C18.562 19.5796 18.9132 19.4323 19.1727 19.1727C19.4323 18.9132 19.5796 18.562 19.5827 18.195C19.5859 17.8279 19.4448 17.4742 19.1898 17.2102L15.4 13.4204V7C15.4 6.6287 15.2525 6.2726 14.9899 6.01005C14.7274 5.7475 14.3713 5.6 14 5.6Z" fill="white"/>
</svg>
