<svg width="16" height="16" viewBox="0 0 16 16" fill="none" xmlns="http://www.w3.org/2000/svg">
<path d="M15.2727 7.63636V13.5758C15.2727 14.0258 15.0939 14.4575 14.7757 14.7757C14.4575 15.0939 14.0258 15.2727 13.5758 15.2727H1.69697C1.24691 15.2727 0.815274 15.0939 0.497031 14.7757C0.178787 14.4575 0 14.0258 0 13.5758V7.63636H15.2727ZM11.0303 0C11.2553 0 11.4712 0.0893936 11.6303 0.248515C11.7894 0.407637 11.8788 0.623453 11.8788 0.848485V1.69697H13.5758C14.0258 1.69697 14.4575 1.87576 14.7757 2.194C15.0939 2.51224 15.2727 2.94387 15.2727 3.39394V5.93939H0V3.39394C0 2.94387 0.178787 2.51224 0.497031 2.194C0.815274 1.87576 1.24691 1.69697 1.69697 1.69697H3.39394V0.848485C3.39394 0.623453 3.48333 0.407637 3.64245 0.248515C3.80158 0.0893936 4.01739 0 4.24242 0C4.46746 0 4.68327 0.0893936 4.84239 0.248515C5.00151 0.407637 5.09091 0.623453 5.09091 0.848485V1.69697H10.1818V0.848485C10.1818 0.623453 10.2712 0.407637 10.4303 0.248515C10.5895 0.0893936 10.8053 0 11.0303 0Z" fill="white"/>
</svg>
