<svg width="13" height="17" viewBox="0 0 13 17" fill="none" xmlns="http://www.w3.org/2000/svg">
<path fill-rule="evenodd" clip-rule="evenodd" d="M6.76743 16.9139L6.76929 16.913L6.77393 16.9097L6.78786 16.8988L6.84264 16.8587C6.88969 16.8237 6.95624 16.7727 7.04228 16.7057C7.21314 16.5725 7.4555 16.3765 7.74475 16.1248C8.50405 15.4647 9.21405 14.7481 9.86886 13.9809C11.4047 12.1741 13 9.59576 13 6.64714C13 4.88571 12.3156 3.19512 11.0974 1.94843C10.4952 1.33136 9.77904 0.841535 8.99003 0.50714C8.20102 0.172746 7.35477 0.00039129 6.5 0C5.64527 0.000329435 4.79904 0.172609 4.01003 0.506922C3.22102 0.841235 2.50481 1.33098 1.90264 1.94796C0.68329 3.19759 -0.000667136 4.88701 4.88302e-07 6.64761C4.88302e-07 9.59575 1.59529 12.1741 3.13114 13.9809C3.78595 14.7481 4.49595 15.4647 5.25525 16.1248C5.54496 16.3765 5.78686 16.5725 5.95771 16.7057C6.04153 16.7713 6.12619 16.8359 6.21168 16.8993L6.22654 16.9097L6.23071 16.913L6.23257 16.9139C6.39275 17.0287 6.60725 17.0287 6.76743 16.9139ZM8.82143 6.61125C8.82143 7.23747 8.57685 7.83804 8.1415 8.28084C7.70615 8.72364 7.11568 8.97241 6.5 8.97241C5.88432 8.97241 5.29385 8.72364 4.8585 8.28084C4.42315 7.83804 4.17857 7.23747 4.17857 6.61125C4.17857 5.98503 4.42315 5.38446 4.8585 4.94166C5.29385 4.49885 5.88432 4.25009 6.5 4.25009C7.11568 4.25009 7.70615 4.49885 8.1415 4.94166C8.57685 5.38446 8.82143 5.98503 8.82143 6.61125Z" fill="white"/>
</svg>
