<svg width="54" height="54" viewBox="0 0 54 54" fill="none" xmlns="http://www.w3.org/2000/svg">
<path d="M0 5.4C0 3.96783 0.568927 2.59432 1.58162 1.58162C2.59432 0.568927 3.96783 0 5.4 0L41.4 0C42.8322 0 44.2057 0.568927 45.2184 1.58162C46.2311 2.59432 46.8 3.96783 46.8 5.4V7.38C48.8329 7.79495 50.6599 8.89953 51.972 10.5068C53.284 12.114 54.0004 14.1252 54 16.2V21.5676C54.0002 23.5234 53.3633 25.4261 52.1856 26.9876C51.008 28.5491 49.3537 29.6845 47.4732 30.222L30.1068 35.1864C29.7309 35.2935 29.4001 35.52 29.1643 35.8318C28.9286 36.1435 28.8007 36.5235 28.8 36.9144V39.6H34.2C34.6774 39.6 35.1352 39.7896 35.4728 40.1272C35.8104 40.4648 36 40.9226 36 41.4V52.2C36 52.6774 35.8104 53.1352 35.4728 53.4728C35.1352 53.8104 34.6774 54 34.2 54H19.8C19.3226 54 18.8648 53.8104 18.5272 53.4728C18.1896 53.1352 18 52.6774 18 52.2V41.4C18 40.9226 18.1896 40.4648 18.5272 40.1272C18.8648 39.7896 19.3226 39.6 19.8 39.6H25.2V36.9144C25.2002 35.7411 25.5826 34.5997 26.2893 33.6631C26.996 32.7265 27.9886 32.0455 29.1168 31.7232L46.4832 26.7624C47.6126 26.4398 48.606 25.7577 49.3128 24.8196C50.0196 23.8815 50.4013 22.7386 50.4 21.564V16.2C50.4006 15.0828 50.0547 13.993 49.4099 13.0806C48.7651 12.1683 47.8533 11.4784 46.8 11.106V12.6C46.8 14.0322 46.2311 15.4057 45.2184 16.4184C44.2057 17.4311 42.8322 18 41.4 18H5.4C3.96783 18 2.59432 17.4311 1.58162 16.4184C0.568927 15.4057 0 14.0322 0 12.6L0 5.4Z" fill="#132C5E"/>
</svg>
