<svg width="80" height="58" viewBox="0 0 80 58" fill="none" xmlns="http://www.w3.org/2000/svg">
<path d="M41.8182 7.25C41.8182 3.22625 45.0545 0 49.0909 0H61.8182C65.8182 0 69.0909 3.2625 69.0909 7.25V15.08C64.8727 16.5662 61.8182 20.5538 61.8182 25.2663V32.625H41.8182V7.25ZM18.1818 25.23V32.625H38.1818V7.25C38.1818 3.22625 34.9455 0 30.9091 0H18.1818C14.1818 0 10.9091 3.2625 10.9091 7.25V15.0437C15.1273 16.53 18.1818 20.5538 18.1818 25.23ZM71.4909 18.2337C67.9273 18.8137 65.4545 22.185 65.4545 25.81V36.25H14.5455V25.375C14.5455 23.4522 13.7792 21.6081 12.4153 20.2485C11.0514 18.8888 9.20158 18.125 7.27273 18.125C5.34388 18.125 3.49403 18.8888 2.13013 20.2485C0.766232 21.6081 0 23.4522 0 25.375V43.5C0 47.4875 3.27273 50.75 7.27273 50.75V58H14.5455V50.75H65.4545V58H72.7273V50.75C76.7273 50.75 80 47.4875 80 43.5V25.375C80 20.9888 76.0364 17.4725 71.4909 18.2337Z" fill="#132C5E"/>
</svg>
