<svg width="59" height="59" viewBox="0 0 59 59" fill="none" xmlns="http://www.w3.org/2000/svg">
<path d="M45.9651 29.5C45.9651 33.8668 44.2304 38.0548 41.1426 41.1426C38.0548 44.2304 33.8668 45.9651 29.5 45.9651C25.1332 45.9651 20.9452 44.2304 17.8574 41.1426C14.7696 38.0548 13.0349 33.8668 13.0349 29.5C13.0349 25.1332 14.7696 20.9452 17.8574 17.8574C20.9452 14.7696 25.1332 13.0349 29.5 13.0349C33.8668 13.0349 38.0548 14.7696 41.1426 17.8574C44.2304 20.9452 45.9651 25.1332 45.9651 29.5Z" fill="#132C5E"/>
<path fill-rule="evenodd" clip-rule="evenodd" d="M29.5 0C30.0459 0 30.5693 0.216839 30.9553 0.602815C31.3413 0.988791 31.5581 1.51229 31.5581 2.05814V4.80233C31.5581 5.34818 31.3413 5.87167 30.9553 6.25765C30.5693 6.64363 30.0459 6.86047 29.5 6.86047C28.9541 6.86047 28.4307 6.64363 28.0447 6.25765C27.6587 5.87167 27.4419 5.34818 27.4419 4.80233V2.05814C27.4419 1.51229 27.6587 0.988791 28.0447 0.602815C28.4307 0.216839 28.9541 0 29.5 0ZM8.64144 8.64144C9.02734 8.25602 9.55045 8.03953 10.0959 8.03953C10.6413 8.03953 11.1644 8.25602 11.5503 8.64144L12.6287 9.71716C13.0038 10.1052 13.2115 10.625 13.2071 11.1646C13.2027 11.7042 12.9865 12.2205 12.605 12.6023C12.2236 12.9841 11.7075 13.2008 11.1679 13.2057C10.6282 13.2107 10.1083 13.0035 9.71991 12.6287L8.64144 11.5503C8.25602 11.1644 8.03953 10.6413 8.03953 10.0959C8.03953 9.55045 8.25602 9.02734 8.64144 8.64144ZM50.3586 8.64144C50.744 9.02734 50.9605 9.55045 50.9605 10.0959C50.9605 10.6413 50.744 11.1644 50.3586 11.5503L49.2801 12.6287C48.8899 12.9923 48.3739 13.1902 47.8407 13.1808C47.3075 13.1714 46.7988 12.9554 46.4217 12.5783C46.0446 12.2012 45.8286 11.6925 45.8192 11.1593C45.8098 10.6261 46.0077 10.1101 46.3713 9.71991L47.4497 8.64144C47.8356 8.25602 48.3587 8.03953 48.9041 8.03953C49.4495 8.03953 49.9727 8.25602 50.3586 8.64144ZM0 29.5C0 28.9541 0.216839 28.4307 0.602815 28.0447C0.988791 27.6587 1.51229 27.4419 2.05814 27.4419H4.80233C5.34818 27.4419 5.87167 27.6587 6.25765 28.0447C6.64363 28.4307 6.86047 28.9541 6.86047 29.5C6.86047 30.0459 6.64363 30.5693 6.25765 30.9553C5.87167 31.3413 5.34818 31.5581 4.80233 31.5581H2.05814C1.51229 31.5581 0.988791 31.3413 0.602815 30.9553C0.216839 30.5693 0 30.0459 0 29.5ZM52.1395 29.5C52.1395 28.9541 52.3564 28.4307 52.7424 28.0447C53.1283 27.6587 53.6518 27.4419 54.1977 27.4419H56.9419C57.4877 27.4419 58.0112 27.6587 58.3972 28.0447C58.7832 28.4307 59 28.9541 59 29.5C59 30.0459 58.7832 30.5693 58.3972 30.9553C58.0112 31.3413 57.4877 31.5581 56.9419 31.5581H54.1977C53.6518 31.5581 53.1283 31.3413 52.7424 30.9553C52.3564 30.5693 52.1395 30.0459 52.1395 29.5ZM46.3713 46.3713C46.7572 45.9858 47.2803 45.7693 47.8257 45.7693C48.3711 45.7693 48.8942 45.9858 49.2801 46.3713L50.3586 47.4497C50.5608 47.6381 50.723 47.8654 50.8354 48.1178C50.9479 48.3703 51.0084 48.6428 51.0133 48.9192C51.0182 49.1955 50.9673 49.47 50.8638 49.7263C50.7603 49.9826 50.6062 50.2154 50.4108 50.4108C50.2154 50.6062 49.9826 50.7603 49.7263 50.8638C49.47 50.9673 49.1955 51.0182 48.9192 51.0133C48.6428 51.0084 48.3703 50.9479 48.1178 50.8354C47.8654 50.723 47.6381 50.5608 47.4497 50.3586L46.3713 49.2801C45.9858 48.8942 45.7693 48.3711 45.7693 47.8257C45.7693 47.2803 45.9858 46.7572 46.3713 46.3713ZM12.6287 46.3713C13.0142 46.7572 13.2307 47.2803 13.2307 47.8257C13.2307 48.3711 13.0142 48.8942 12.6287 49.2801L11.5503 50.3586C11.3619 50.5608 11.1346 50.723 10.8822 50.8354C10.6297 50.9479 10.3572 51.0084 10.0808 51.0133C9.80448 51.0182 9.52998 50.9673 9.27371 50.8638C9.01743 50.7603 8.78463 50.6062 8.5892 50.4108C8.39376 50.2154 8.23969 49.9826 8.13618 49.7263C8.03266 49.47 7.98183 49.1955 7.9867 48.9192C7.99158 48.6428 8.05206 48.3703 8.16455 48.1178C8.27704 47.8654 8.43923 47.6381 8.64144 47.4497L9.71716 46.3713C9.9083 46.18 10.1352 46.0283 10.385 45.9248C10.6348 45.8213 10.9026 45.768 11.173 45.768C11.4433 45.768 11.7111 45.8213 11.9609 45.9248C12.2107 46.0283 12.4376 46.18 12.6287 46.3713ZM29.5 52.1395C30.0459 52.1395 30.5693 52.3564 30.9553 52.7424C31.3413 53.1283 31.5581 53.6518 31.5581 54.1977V56.9419C31.5581 57.4877 31.3413 58.0112 30.9553 58.3972C30.5693 58.7832 30.0459 59 29.5 59C28.9541 59 28.4307 58.7832 28.0447 58.3972C27.6587 58.0112 27.4419 57.4877 27.4419 56.9419V54.1977C27.4419 53.6518 27.6587 53.1283 28.0447 52.7424C28.4307 52.3564 28.9541 52.1395 29.5 52.1395Z" fill="#132C5E"/>
</svg>
