<svg width="101" height="98" viewBox="0 0 101 98" fill="none" xmlns="http://www.w3.org/2000/svg">
<path opacity="0.1" d="M48.0199 57.967L47.5542 58.3481L8.68039 95.3812C11.5535 97.0976 14.8621 98.0043 18.2361 98H82.7639C86.2708 98 89.5421 97.0418 92.3196 95.3812L53.4458 58.3535L52.924 57.9289C52.205 57.4371 51.3453 57.1763 50.4656 57.1831C49.586 57.19 48.7307 57.4641 48.0199 57.967ZM101 17.6944C101 13.0016 99.0787 8.50093 95.6588 5.18258C92.2388 1.86423 87.6004 0 82.7639 0H18.2361C13.3996 0 8.76117 1.86423 5.34123 5.18258C1.9213 8.50093 0 13.0016 0 17.6944V80.3055C0 83.7192 0.998777 86.9096 2.72139 89.6155L41.6569 52.528L42.4144 51.8583C44.6906 50.0167 47.562 49.0108 50.5257 49.0168C53.4895 49.0228 56.3565 50.0402 58.6249 51.891L59.3431 52.528L98.2786 89.6101C100.061 86.8152 101.004 83.5925 101 80.3055V17.6944ZM68.7361 42.1944C65.7598 42.1944 62.9054 41.0472 60.8008 39.0052C58.6962 36.9631 57.5139 34.1935 57.5139 31.3056C57.5139 28.4176 58.6962 25.648 60.8008 23.6059C62.9054 21.5639 65.7598 20.4167 68.7361 20.4167C71.7124 20.4167 74.5668 21.5639 76.6714 23.6059C78.776 25.648 79.9583 28.4176 79.9583 31.3056C79.9583 34.1935 78.776 36.9631 76.6714 39.0052C74.5668 41.0472 71.7124 42.1944 68.7361 42.1944Z" fill="#7C7C7C"/>
</svg>
