<svg width="370" height="293" viewBox="0 0 370 293" fill="none" xmlns="http://www.w3.org/2000/svg">
<rect width="370" height="293" rx="7.87257" fill="#F5F5F5"/>
<path opacity="0.24" d="M243.4 198.1V139.7H199.6C195.568 139.7 192.3 136.432 192.3 132.4C192.3 128.368 195.568 125.1 199.6 125.1H243.4V95.9C243.4 93.9639 242.63 92.1077 241.261 90.7387C239.892 89.3697 238.036 88.6 236.1 88.6H170.4V132.4C170.4 136.432 167.132 139.7 163.1 139.7C159.068 139.7 155.8 136.432 155.8 132.4V88.6H133.9C131.964 88.6 130.108 89.3697 128.739 90.7387C127.37 92.1077 126.6 93.9639 126.6 95.9V161.6H185C189.032 161.6 192.3 164.868 192.3 168.9C192.3 172.932 189.032 176.2 185 176.2H126.6V198.1C126.6 200.036 127.37 201.892 128.739 203.261C130.108 204.63 131.964 205.4 133.9 205.4H163.1C167.132 205.4 170.4 208.668 170.4 212.7C170.4 216.732 167.132 220 163.1 220H133.9C128.092 220 122.523 217.691 118.416 213.584C114.309 209.477 112 203.908 112 198.1V95.9C112 90.0918 114.309 84.5231 118.416 80.416C122.523 76.309 128.092 74 133.9 74H236.1C241.908 74 247.477 76.309 251.584 80.416C255.691 84.5231 258 90.0918 258 95.9V198.1C258 203.908 255.691 209.477 251.584 213.584C247.477 217.691 241.908 220 236.1 220H199.6C195.568 220 192.3 216.732 192.3 212.7C192.3 208.668 195.568 205.4 199.6 205.4H236.1C238.036 205.4 239.892 204.63 241.261 203.261C242.63 201.892 243.4 200.036 243.4 198.1Z" fill="#9E9E9E"/>
</svg>
