<svg width="197" height="82" viewBox="0 0 197 82" fill="none" xmlns="http://www.w3.org/2000/svg">
<path fill-rule="evenodd" clip-rule="evenodd" d="M105.021 0H91.8706V20.8756H105.037V0H105.021Z" fill="#CE2432"/>
<path d="M88.4506 0H75.0547V20.8756H88.4506V0Z" fill="#132C5E"/>
<path d="M121.955 0H108.559V20.8756H121.955V0Z" fill="#132C5E"/>
<path d="M15.3731 42.4561H30.0566V45.3376C30.0566 49.5219 28.7078 52.9399 26.0255 55.5302C23.3279 58.1051 19.864 59.3773 15.6031 59.3773C11.0969 59.3773 7.35704 57.9519 4.36824 55.101C1.47141 52.2502 0 48.7402 0 44.5559C0 40.3716 1.45608 36.8617 4.36824 33.9648C7.2804 31.0833 10.8976 29.6426 15.1892 29.6426C17.8868 29.6426 20.3698 30.2403 22.6382 31.4512C24.876 32.616 26.6693 34.1947 27.9567 36.2026L21.6419 39.7432C21.0595 38.8389 20.1859 38.1338 19.0517 37.582C17.9175 37.0149 16.6606 36.7697 15.2659 36.7697C12.9668 36.7697 11.0815 37.4901 9.61013 38.9615C8.13872 40.4482 7.38769 42.3335 7.38769 44.5866C7.38769 46.8397 8.10806 48.6636 9.54881 50.1503C11.0202 51.683 13.0741 52.4341 15.7103 52.4341C19.0976 52.4341 21.3354 51.1926 22.4236 48.6789H15.3425V42.4101L15.3731 42.4561ZM59.5 58.7795H51.4686L50.2271 54.6565H40.525L39.2835 58.7795H31.2061L40.8315 30.2863H49.9052L59.5307 58.7795H59.5ZM45.3377 38.7009L42.4409 48.3877H48.3112L45.3531 38.7009H45.3377ZM70.4283 30.271V51.7444H80.4676V58.7795H62.9946V30.2863H70.4283V30.271ZM111.03 58.7795H102.999L101.757 54.6565H92.0549L90.8134 58.7795H82.736L92.3615 30.2863H101.435L111.061 58.7948L111.03 58.7795ZM96.8676 38.7009L93.9708 48.3877H99.8411L96.883 38.7009H96.8676ZM136.504 30.271H143.723V58.7795H136.504V43.4217L129.606 54.8711H128.886L122.02 43.4677V58.7948H114.754V30.2863H122.02L129.239 42.4561L136.519 30.2863L136.504 30.271ZM175.588 58.7795H167.572L166.315 54.6565H156.628L155.387 58.7795H147.309L156.904 30.2863H165.978L175.573 58.7795H175.588ZM161.456 38.7009L158.559 48.3877H164.43L161.472 38.7009H161.456ZM175.159 30.271H197V37.3062H189.796V58.7795H182.363V37.3062H175.159V30.271Z" fill="#132C5E"/>
<path d="M32.0153 79.3187V70.9653H33.9925L36.1843 74.5059L38.3761 70.9653H40.3533V79.3187H38.5294V73.8622L36.1843 77.4334H36.1383L33.8086 73.8928V79.3187H32H32.0153Z" fill="#CE2432"/>
<path d="M41.7937 79.3187V70.9653H43.633V73.5863H45.1197C46.1466 73.5863 46.959 73.8315 47.5414 74.3067C48.1238 74.7818 48.415 75.4869 48.415 76.4065C48.415 77.3108 48.1238 78.0312 47.5414 78.537C46.959 79.0581 46.1313 79.3187 45.0584 79.3187H41.809H41.7937ZM43.633 77.6633H45.0737C45.5335 77.6633 45.9014 77.556 46.1466 77.3568C46.4072 77.1575 46.5298 76.851 46.5298 76.4525C46.5298 76.054 46.4072 75.7628 46.162 75.5482C45.9167 75.3336 45.5489 75.2263 45.0737 75.2263H43.6176V77.6633H43.633ZM49.6259 79.3187V70.9653H51.4651V79.3187H49.6259Z" fill="#CE2432"/>
<path d="M59.7709 79.457C58.5447 79.457 57.5178 79.0432 56.7054 78.2155C55.8931 77.3878 55.4792 76.3763 55.4792 75.1654V75.1347C55.4792 73.9239 55.8931 72.897 56.7054 72.0693C57.5331 71.2416 58.5754 70.8125 59.8322 70.8125C61.1656 70.8125 62.2692 71.2417 63.1275 72.1L61.9627 73.4487C61.2576 72.8203 60.5372 72.4985 59.8322 72.4985C59.1271 72.4985 58.56 72.759 58.1002 73.2648C57.6404 73.7706 57.4105 74.3837 57.4105 75.1041V75.1347C57.4105 75.8704 57.6404 76.4835 58.1002 77.0046C58.56 77.5104 59.1425 77.771 59.8322 77.771C60.2767 77.771 60.6598 77.6944 60.997 77.5258C61.3342 77.3725 61.6714 77.112 62.024 76.7901L63.1888 77.9703C62.729 78.4761 62.2385 78.8439 61.7021 79.0892C61.1656 79.3344 60.5219 79.457 59.7555 79.457H59.7709Z" fill="#132C5E"/>
<path d="M66.0109 79.3188V72.6515H63.4666V70.9502H70.3944V72.6515H67.8501V79.3188H66.0109Z" fill="#132C5E"/>
<path d="M71.2068 79.3187V70.9653H74.6247C75.6057 70.9653 76.3874 71.2259 76.9698 71.7624C77.5522 72.2988 77.8281 72.9885 77.8281 73.8622V73.8928C77.8281 74.8278 77.5062 75.5482 76.8778 76.0693C76.2341 76.5751 75.4371 76.8357 74.4561 76.8357H73.0614V79.3493H71.2221L71.2068 79.3187ZM73.046 75.1803H74.5021C74.9466 75.1803 75.2991 75.0577 75.5597 74.8278C75.8203 74.5826 75.9582 74.2914 75.9582 73.9235V73.8928C75.9582 73.479 75.8203 73.1725 75.5597 72.9579C75.2991 72.7433 74.9313 72.636 74.4561 72.636H73.0307V75.1956L73.046 75.1803Z" fill="#132C5E"/>
<path d="M85.8307 78.2002C84.9877 79.0431 83.9148 79.457 82.6427 79.457C81.3705 79.457 80.313 79.0432 79.47 78.2155C78.627 77.3878 78.2131 76.3609 78.2131 75.1654V75.1347C78.2131 73.9392 78.6423 72.9123 79.4853 72.0693C80.3283 71.2263 81.4012 70.8125 82.6733 70.8125C83.9455 70.8125 85.0031 71.2263 85.8461 72.054C86.6891 72.8817 87.1029 73.9086 87.1029 75.1041V75.1347C87.1029 76.3302 86.6737 77.3572 85.8307 78.2002ZM80.8494 77.0046C81.3246 77.5104 81.9376 77.771 82.658 77.771C83.3784 77.771 83.9915 77.5258 84.4666 77.02C84.9418 76.5142 85.1717 75.9011 85.1717 75.1654V75.1347C85.1717 74.399 84.9264 73.7859 84.4513 73.2802C83.9762 72.7744 83.3631 72.5138 82.6427 72.5138C81.9223 72.5138 81.3092 72.759 80.8341 73.2648C80.3589 73.7706 80.129 74.3837 80.129 75.1194V75.1501C80.129 75.8858 80.3743 76.4989 80.8494 77.02V77.0046Z" fill="#132C5E"/>
<path d="M95.5599 79.3187H93.7206V73.8622L89.7509 79.3187H88.1262V70.9653H89.9655V76.2532L93.7973 70.9653H95.5446V79.3187H95.5599Z" fill="#132C5E"/>
<path d="M96.9704 79.3187V70.9653H98.9476L101.139 74.5059L103.331 70.9653H105.308V79.3187H103.484V73.8622L101.139 77.4334H101.093L98.7637 73.8928V79.3187H96.9551H96.9704Z" fill="#132C5E"/>
<path d="M109.724 79.3187V70.9653H115.916V72.59H111.517V74.2147H113.617C114.582 74.2147 115.318 74.4293 115.854 74.8584C116.376 75.2876 116.636 75.9007 116.636 76.6977C116.636 77.5254 116.376 78.1691 115.824 78.6289C115.287 79.0887 114.521 79.3187 113.54 79.3187H109.724ZM111.517 77.694H113.586C113.954 77.694 114.245 77.6173 114.475 77.4487C114.705 77.2801 114.812 77.0502 114.812 76.7437C114.812 76.4372 114.705 76.2072 114.49 76.0386C114.276 75.87 113.985 75.7934 113.601 75.7934H111.532V77.694H111.517Z" fill="#132C5E"/>
<path d="M120.208 79.3187H118.17L119.81 76.4525L116.606 70.9653H118.675L120.837 74.7818L122.814 70.9653H124.852L120.208 79.3187Z" fill="#132C5E"/>
<path d="M123.365 77.6482H124.208L127.074 70.9043H129.006L131.841 77.6482H132.699V81.0202H130.983V79.3189H125.082V81.0202H123.365V77.6482ZM128.009 72.9274L126.093 77.7096H129.941L128.025 72.9274H128.009Z" fill="#132C5E"/>
<path d="M135.381 79.3187H133.343L134.983 76.4525L131.779 70.9653H133.848L136.01 74.7818L137.987 70.9653H140.025L135.381 79.3187Z" fill="#132C5E"/>
<path d="M140.564 79.3187V70.9653H142.403V77.648H145.377V70.9653H147.216V77.648H150.189V70.9653H152.029V77.648H153.117V81.0199H151.4V79.3187H140.564Z" fill="#132C5E"/>
<path d="M153.835 79.3187V70.9653H160.134V72.6053H155.659V74.3067H159.598V75.9467H155.659V77.694H160.196V79.334H153.835V79.3187Z" fill="#132C5E"/>
<path d="M161.24 79.3187V70.9653H167.54V72.6053H163.064V74.3067H167.003V75.9467H163.064V77.694H167.601V79.334H161.24V79.3187Z" fill="#132C5E"/>
</svg>
