<svg width="162" height="20" viewBox="0 0 162 20" fill="none" xmlns="http://www.w3.org/2000/svg">
<path fill-rule="evenodd" clip-rule="evenodd" d="M19.2641 0.400574H10.8213V19.0741H19.2641V0.400574Z" fill="#DB1D31"/>
<path fill-rule="evenodd" clip-rule="evenodd" d="M8.59231 0.400574H0V19.0741H8.59231V0.400574ZM30.0881 0.400574H21.4957V19.0741H30.0881V0.400574Z" fill="white"/>
<path d="M45.4807 8.20962H54.9041V10.0573C54.9041 12.742 54.0431 14.9244 52.3211 16.5987C50.593 18.249 48.3747 19.074 45.6421 19.074C42.7541 19.074 40.3504 18.1593 38.437 16.3356C36.5714 14.5059 35.6387 12.2577 35.6387 9.57293C35.6387 6.88821 36.5714 4.6399 38.437 2.77435C40.3026 0.926734 42.6226 0 45.379 0C47.1071 0 48.7036 0.388622 50.1565 1.15996C51.5916 1.90737 52.7396 2.91795 53.5708 4.21547L49.5227 6.48764C49.146 5.90765 48.5899 5.45318 47.8604 5.10638C47.131 4.74762 46.3238 4.58012 45.4388 4.58012C43.9619 4.58012 42.7541 5.04657 41.8094 5.98533C40.8646 6.94202 40.3863 8.14987 40.3863 9.59687C40.3863 11.0439 40.8527 12.2158 41.7735 13.1725C42.7182 14.1531 44.0397 14.6434 45.7199 14.6434C47.8964 14.6434 49.3254 13.8422 50.019 12.2397H45.4807V8.21561V8.20962ZM73.7929 18.6854H68.6387L67.8434 16.0426H61.6189L60.8237 18.6854H55.6456L61.8162 0.400569H67.6282L73.7988 18.6854H73.7929ZM64.7102 5.80592L62.8447 12.0245H66.6117L64.7102 5.80592ZM80.8007 0.400569V14.171H87.2404V18.6854H76.0292V0.400569H80.7947H80.8007ZM106.847 18.6854H101.692L100.897 16.0426H94.6727L93.8775 18.6854H88.6994L94.87 0.400569H100.682L106.853 18.6854H106.847ZM97.7641 5.80592L95.8985 12.0245H99.6655L97.7641 5.80592ZM123.188 0.400569H127.816V18.6854H123.188V8.8315L118.764 16.1741H118.297L113.896 8.85544V18.6854H109.232V0.400569H113.896L118.524 8.20962L123.188 0.400569ZM148.266 18.6854H143.123L142.316 16.0426H136.104L135.308 18.6854H130.13L136.289 0.400569H142.113L148.272 18.6854H148.266ZM139.195 5.80592L137.329 12.0245H141.096L139.195 5.80592ZM147.991 0.400569H162V4.915H157.378V18.6854H152.607V4.915H147.985V0.400569H147.991Z" fill="white"/>
</svg>
