<svg width="85" height="61" viewBox="0 0 85 61" fill="none" xmlns="http://www.w3.org/2000/svg">
<path d="M0 57.8496V58.1803H0.824271V60.2798H1.20024V58.1803H2.02451V57.8496H0Z" fill="white"/>
<path d="M7.2598 57.8496V59.4026C7.2598 59.604 7.20197 59.7621 7.08628 59.8628C6.9706 59.9778 6.84045 60.021 6.65246 60.021C6.47893 60.021 6.33432 59.9778 6.21863 59.8628C6.11741 59.7621 6.05956 59.604 6.05956 59.4026V57.8496H5.68359V59.4026C5.68359 59.604 5.72697 59.7765 5.81373 59.9203C5.9005 60.0498 6.01619 60.1648 6.1608 60.2367C6.29095 60.3086 6.46447 60.3517 6.65246 60.3517C6.85491 60.3517 7.02842 60.3086 7.15857 60.2367C7.30318 60.1648 7.41887 60.0498 7.50563 59.9203C7.57794 59.7765 7.63578 59.604 7.63578 59.4026V57.8496H7.2598Z" fill="white"/>
<path d="M12.6116 59.2732L12.5538 59.1438H12.1634L12.2501 59.3164L12.7418 60.2798H13.1467L12.6116 59.2732ZM13.0021 58.2235C12.9587 58.1084 12.8719 58.0222 12.7418 57.9646C12.6261 57.8927 12.4815 57.8496 12.2935 57.8496H11.2812V60.2798H11.6572V59.3164H12.308C12.4237 59.3164 12.5249 59.3164 12.6116 59.2732C12.655 59.2732 12.7129 59.2445 12.7418 59.2301C12.8575 59.1582 12.9442 59.0719 13.0021 58.9569C13.0599 58.8418 13.0888 58.7268 13.0888 58.583C13.0888 58.4535 13.0599 58.3385 13.0021 58.2235ZM12.5972 58.8706C12.5249 58.9425 12.4092 58.9856 12.2646 58.9856H11.6572V58.1803H12.2357C12.3658 58.1803 12.4526 58.1803 12.5249 58.2235C12.5827 58.2666 12.6406 58.3097 12.6695 58.3673C12.6984 58.4104 12.7129 58.4967 12.7129 58.5686C12.7129 58.698 12.6695 58.7843 12.5972 58.8706Z" fill="white"/>
<path d="M17.8463 58.9721V59.3029H18.685V59.3892C18.685 59.5042 18.6561 59.6049 18.5982 59.6911C18.5404 59.7774 18.4681 59.8493 18.3524 59.9068C18.2512 59.95 18.1355 59.9931 17.9764 59.9931C17.8029 59.9931 17.6438 59.95 17.5137 59.8637C17.3835 59.7918 17.2968 59.6911 17.2245 59.5473C17.1522 59.4179 17.1088 59.2454 17.1088 59.0584C17.1088 58.8715 17.1522 58.6989 17.2245 58.5551C17.2823 58.4257 17.3835 58.3106 17.5137 58.2387C17.6438 58.1668 17.8029 58.1237 17.9764 58.1237C18.1355 58.1237 18.2801 58.1525 18.3813 58.21C18.497 58.2675 18.5982 58.3682 18.6705 58.4976L18.9887 58.2819C18.873 58.1237 18.7428 57.9943 18.5693 57.9224C18.3958 57.8361 18.1933 57.793 17.9764 57.793C17.7306 57.793 17.4992 57.8361 17.3257 57.9512C17.1377 58.0518 17.0076 58.1956 16.9063 58.3826C16.8051 58.5695 16.7617 58.7852 16.7617 59.0584C16.7617 59.3316 16.8051 59.5329 16.9063 59.7199C17.0076 59.9212 17.1377 60.065 17.3112 60.1657C17.4992 60.2663 17.7017 60.3095 17.9331 60.3095C18.121 60.3095 18.2656 60.2663 18.4102 60.2088C18.5259 60.1657 18.6272 60.0794 18.6995 59.9931V60.2663H19.0031V58.9577H17.8463V58.9721Z" fill="white"/>
<path d="M23.5712 59.2157V60.2798H23.9472V59.2157H23.5712ZM24.4533 57.8496L23.7592 59L23.094 57.8496H22.6602L23.5712 59.3883L23.6001 59.4314H23.9038L23.9472 59.3739L24.8726 57.864H24.4533V57.8496Z" fill="white"/>
<path d="M30.2521 57.8496V59.7765L29.0085 57.8496H28.5312V60.2798H28.9072V58.3385L30.1509 60.2798H30.6136V57.8496H30.2376H30.2521Z" fill="white"/>
<path d="M39.5059 57.8496V59.4026C39.5059 59.604 39.4481 59.7621 39.3324 59.8628C39.2167 59.9778 39.0866 60.021 38.8986 60.021C38.725 60.021 38.5804 59.9778 38.4647 59.8628C38.3491 59.7621 38.3057 59.604 38.3057 59.4026V57.8496H37.9297V59.4026C37.9297 59.604 37.9731 59.7765 38.0599 59.9203C38.1466 60.0498 38.2623 60.1648 38.4069 60.2367C38.537 60.3086 38.7106 60.3517 38.8986 60.3517C39.101 60.3517 39.2745 60.3086 39.4047 60.2367C39.5493 60.1648 39.665 60.0498 39.7518 59.9203C39.8241 59.7765 39.8819 59.604 39.8819 59.4026V57.8496H39.5059Z" fill="white"/>
<path d="M43.5273 57.8496V60.2798H43.9033V57.8496H43.5273Z" fill="white"/>
<path d="M52.147 58.9144L52.1036 58.8713L51.7999 59.0439L51.9011 59.1733L52.7977 60.2949H53.2604L52.147 58.9288V58.9144ZM52.7543 57.8503L51.583 59.0007L51.4095 59.1733L51.4818 59.5472L51.583 59.4465L51.9011 59.1445L52.147 58.9L53.246 57.8359H52.7543V57.8503ZM51.207 57.8503V60.2806H51.583V57.8503H51.207Z" fill="white"/>
<path d="M58.6532 58.1803V57.8496H56.918V60.2798H58.6532V59.9635H57.2939V59.2013H58.5087V58.8706H57.2939V58.1947H58.6532V58.1803Z" fill="white"/>
<path d="M63.8719 59.0864C63.7996 59.0433 63.7128 58.9858 63.6261 58.957C63.5249 58.9139 63.4381 58.8851 63.3513 58.8564C63.2356 58.8276 63.1344 58.8132 63.0621 58.7701C62.9898 58.7413 62.932 58.7126 62.8741 58.6551C62.8307 58.6119 62.8018 58.54 62.8018 58.4681C62.8018 58.3531 62.8452 58.2811 62.932 58.2236C63.0043 58.1661 63.1344 58.1374 63.2646 58.1374C63.4959 58.1374 63.6984 58.2237 63.8285 58.3962L64.1322 58.1517C64.0165 58.0367 63.9008 57.9504 63.7418 57.8929C63.5972 57.8498 63.4381 57.8066 63.2646 57.8066C63.0043 57.8066 62.7874 57.8642 62.6428 57.9936C62.4982 58.123 62.4258 58.2812 62.4258 58.4825C62.4258 58.6119 62.4548 58.6982 62.4837 58.7845C62.5271 58.8564 62.5849 58.9139 62.6572 58.9714C62.7295 59.0289 62.8163 59.0721 62.903 59.1008C63.0043 59.144 63.091 59.1727 63.1923 59.2015C63.279 59.2303 63.3513 59.2446 63.4092 59.2734C63.4815 59.3021 63.5393 59.3165 63.5827 59.3597C63.6261 59.3884 63.6695 59.4172 63.6984 59.4747C63.7273 59.5179 63.7418 59.5754 63.7418 59.6329C63.7418 59.7623 63.6984 59.8486 63.6116 59.9205C63.5249 59.978 63.3947 60.0211 63.2356 60.0211C63.091 60.0211 62.9609 59.978 62.8452 59.9205C62.744 59.863 62.6572 59.7767 62.5849 59.676L62.2812 59.9061C62.3825 60.0499 62.5126 60.1506 62.6861 60.2225C62.8452 60.2944 63.0187 60.3375 63.2212 60.3375C63.4092 60.3375 63.5682 60.3087 63.6984 60.2512C63.8285 60.1937 63.9298 60.1074 64.0021 59.9924C64.0744 59.8773 64.1177 59.7623 64.1177 59.6041C64.1177 59.4747 64.0888 59.3884 64.0455 59.3021C64.0021 59.2159 63.9298 59.1583 63.8575 59.0864H63.8719Z" fill="white"/>
<path d="M69.4243 57.8496V58.8706H68.1807V57.8496H67.8047V60.2798H68.1807V59.2157H69.4243V60.2798H69.8003V57.8496H69.4243Z" fill="white"/>
<path d="M75.2091 58.1803V57.8496H73.4883V60.2798H75.2091V59.9635H73.8643V59.2013H75.0789V58.8706H73.8643V58.1947H75.2091V58.1803Z" fill="white"/>
<path d="M80.588 57.8496V59.7765L79.3444 57.8496H78.8672V60.2798H79.2432V58.3385L80.4868 60.2798H80.9495V57.8496H80.5735H80.588Z" fill="white"/>
<path d="M84.625 57.8496V60.2798H85.001V57.8496H84.625Z" fill="white"/>
<path d="M11.6131 46.7638V47.1233C11.6131 47.8998 11.483 48.6188 11.2082 49.2371C10.9334 49.8842 10.5575 50.4307 10.0658 50.8909C9.57415 51.3654 8.99572 51.7105 8.34498 51.955C7.69425 52.2138 6.98567 52.3432 6.23371 52.3432C5.33715 52.3432 4.5129 52.1994 3.76094 51.8687C2.99452 51.5667 2.34378 51.1353 1.77981 50.5889C1.21584 50.028 0.796492 49.381 0.478356 48.6476C0.174681 47.9142 0.015625 47.1089 0.015625 46.2461C0.015625 45.3833 0.160213 44.578 0.492809 43.8446C0.796484 43.1113 1.23031 42.4642 1.80874 41.9177C2.37271 41.3713 3.03791 40.9399 3.80432 40.6379C4.57074 40.3359 5.39499 40.1777 6.27709 40.1777C6.8989 40.1777 7.50626 40.264 8.07023 40.4366C8.64865 40.6091 9.16923 40.8392 9.64644 41.1556C10.1092 41.4576 10.4852 41.8027 10.8033 42.1766L9.40061 43.629C9.09693 43.327 8.74988 43.0681 8.43174 42.8812C8.09915 42.6655 7.73764 42.5073 7.37612 42.4066C7.0146 42.2916 6.63862 42.2341 6.26264 42.2341C5.69867 42.2341 5.16363 42.3491 4.68643 42.5361C4.20922 42.7518 3.78985 43.0106 3.42833 43.3845C3.06681 43.744 2.79208 44.161 2.58963 44.6499C2.38718 45.1245 2.28594 45.6565 2.28594 46.2317C2.28594 46.8069 2.40163 47.2958 2.60408 47.7991C2.82099 48.3024 3.09575 48.7338 3.47173 49.1077C3.86217 49.4816 4.28152 49.7692 4.77319 49.9849C5.26485 50.2006 5.79989 50.2869 6.3494 50.2869C6.76876 50.2869 7.15919 50.2294 7.52071 50.0999C7.88223 49.9705 8.20036 49.798 8.48958 49.5823C8.77879 49.3666 8.99572 49.1077 9.14033 48.8201C9.29939 48.5182 9.37168 48.2018 9.37168 47.8711V47.8423H8.86557H6.16142L8.12806 45.8866H11.5263C11.5553 46.016 11.5697 46.1598 11.5697 46.3036C11.5697 46.4474 11.5986 46.6056 11.6131 46.7494V46.7638Z" fill="white"/>
<path d="M18.6551 40.3652H16.5872L11.9453 52.2H14.1433L15.17 49.4966H19.9421L20.9688 52.2H23.2536L18.6551 40.3652ZM15.9075 47.5696L16.7029 45.4989C16.7896 45.2832 16.8764 45.0244 16.9632 44.7511C17.0644 44.4635 17.1656 44.1759 17.2668 43.8596C17.3825 43.5576 17.4693 43.27 17.5705 42.9824C17.5705 42.9536 17.5705 42.9393 17.5994 42.9105C17.6717 43.2125 17.7874 43.5288 17.9031 43.8452C18.0188 44.1903 18.12 44.5067 18.2068 44.8087C18.308 45.1106 18.3803 45.312 18.4382 45.4558L19.248 47.5696H15.9365H15.9075Z" fill="white"/>
<path d="M27.6511 50.158V40.3652H25.4531V52.2H33.1462V50.1724H27.6656L27.6511 50.158Z" fill="white"/>
<path d="M41.6199 40.3652H39.5376L34.9102 52.2H37.1082L38.1349 49.4966H42.9069L43.9192 52.2H46.2184L41.6199 40.3652ZM38.8724 47.5696L39.6677 45.4989C39.74 45.2832 39.8268 45.0244 39.928 44.7511C40.0292 44.4635 40.1305 44.1759 40.2317 43.8596C40.3329 43.5576 40.4341 43.27 40.5354 42.9824C40.5354 42.9536 40.5354 42.9393 40.5643 42.9105C40.6366 43.2125 40.7378 43.5288 40.868 43.8452C40.9837 44.1903 41.0849 44.5067 41.1716 44.8087C41.2729 45.1106 41.3452 45.312 41.403 45.4558L42.1984 47.5696H38.8869H38.8724Z" fill="white"/>
<path d="M62.6873 43.859C62.3836 43.1256 61.9787 42.4642 61.4436 41.9321C60.9086 41.3713 60.2868 40.9543 59.5493 40.6379C58.8262 40.3359 58.0454 40.1777 57.1777 40.1777C56.3101 40.1777 55.5437 40.3359 54.8062 40.6379C54.0831 40.9399 53.4613 41.3713 52.9118 41.9177C52.3768 42.4642 51.9574 43.1113 51.6682 43.8446C51.379 44.578 51.2344 45.3977 51.2344 46.2892C51.2344 47.1808 51.379 47.9717 51.6682 48.7195C51.9719 49.4672 52.3912 50.1143 52.9118 50.6608C53.4613 51.2072 54.0831 51.6243 54.8062 51.9262C55.5437 52.2282 56.3245 52.3864 57.1777 52.3864C58.0309 52.3864 58.8407 52.2426 59.5493 51.9262C60.2868 51.6243 60.9086 51.1928 61.4436 50.6464C61.9787 50.1 62.3836 49.4385 62.6873 48.7051C62.9909 47.9717 63.1355 47.152 63.1355 46.2892C63.1355 45.4264 62.9909 44.6068 62.6873 43.859ZM60.6049 47.8711C60.4169 48.3456 60.1566 48.777 59.824 49.1365C59.5059 49.5104 59.101 49.7836 58.6672 49.9849C58.2189 50.1862 57.7272 50.2869 57.1777 50.2869C56.6282 50.2869 56.151 50.1862 55.7027 49.9849C55.24 49.7836 54.864 49.5104 54.5314 49.1509C54.2133 48.7914 53.953 48.36 53.765 47.8711C53.5915 47.3965 53.4902 46.8501 53.4902 46.2892C53.4902 45.7284 53.5915 45.1676 53.765 44.6787C53.953 44.2041 54.2133 43.7871 54.5314 43.4132C54.864 43.0537 55.2544 42.7661 55.7027 42.5792C56.151 42.3779 56.6427 42.2772 57.1777 42.2772C57.7128 42.2772 58.2189 42.3779 58.6672 42.5792C59.1155 42.7805 59.5059 43.0538 59.824 43.4276C60.1566 43.8015 60.4169 44.2185 60.6049 44.7075C60.7929 45.182 60.8797 45.714 60.8797 46.2892C60.8797 46.8644 60.7929 47.3821 60.6049 47.8711Z" fill="white"/>
<path d="M84.9861 50.1855V52.1844H77.1484V40.3496H84.9283V42.3485H79.3031V45.1526H84.9861V47.1082H79.3031V50.1855H84.9861Z" fill="white"/>
<path d="M75.3136 40.3652V52.2H73.1011L67.1433 44.1328V52.2H64.9453V40.3652H67.1433L73.1011 48.6337V42.551H70.8887L73.0867 40.3652H75.3136Z" fill="white"/>
<path d="M42.1686 0C32.8559 0 25.293 7.49201 25.293 16.7527C25.293 25.3089 31.7135 32.3407 40.014 33.3904V16.5802H33.5789L39.9416 10.253H46.3767V33.0022C53.6504 31.1472 59.0442 24.5755 59.0442 16.7527C59.0442 7.49201 51.4813 0 42.1686 0ZM50.1075 7.92341L49.587 9.30388L49.0808 7.92341L47.7071 7.4201L49.0808 6.91679L49.587 5.55069L50.1075 6.91679L51.4813 7.4201L50.1075 7.92341Z" fill="white"/>
</svg>
