<svg width="753" height="737" viewBox="0 0 753 737" fill="none" xmlns="http://www.w3.org/2000/svg">
<g clip-path="url(#clip0_108_2909)">
<rect width="753" height="735.734" transform="translate(0 0.633057)" fill="#132C5E"/>
<path d="M167.562 576.296C282.351 692.194 469.36 693.092 585.257 578.302C701.154 463.513 702.052 276.504 587.263 160.607C472.473 44.7103 285.465 43.8122 169.568 158.602C53.6706 273.391 52.7726 460.399 167.562 576.296Z" fill="#1F4C93"/>
<path d="M377.415 368.45L649.743 482.786C681.376 407.445 679.405 326.398 650.658 256.331L377.648 367.885L377.415 368.45Z" fill="#173560"/>
<path d="M377.414 368.45L105.086 254.114C73.4531 329.455 75.4237 410.501 104.172 480.569L377.181 369.015L377.414 368.45Z" fill="#173560"/>
<path d="M377.414 368.45L265.228 95.2258C340.822 64.1831 421.846 66.788 491.683 96.0926L377.991 368.213L377.424 368.44L377.414 368.45Z" fill="#173560"/>
<path d="M377.415 368.45L489.611 641.664C414.017 672.707 332.992 670.102 263.156 640.797L376.848 368.677L377.415 368.45Z" fill="#173560"/>
<path d="M377.394 372.304L264.436 641.349L261.717 640.204L374.675 371.169L104.558 481.538L103.44 478.799L373.556 368.43L104.512 255.472L105.657 252.753L374.701 365.711L264.333 95.5943L267.062 94.4755L377.431 364.592L490.389 95.5479L493.108 96.6928L380.15 365.737L650.266 255.368L651.385 258.098L381.269 368.467L650.313 481.425L649.168 484.153L380.124 371.195L490.492 641.302L487.763 642.421L377.394 372.304Z" fill="white"/>
<g filter="url(#filter0_i_108_2909)">
<circle cx="379.765" cy="368.032" r="295.445" transform="rotate(90.2751 379.765 368.032)" fill="white" fill-opacity="0.01"/>
</g>
<path d="M355.759 495.237L389.773 495.4L387.949 487.832L395.766 485.884L399.428 498.353L399.397 504.856L355.724 504.647L355.769 495.227L355.759 495.237Z" fill="white"/>
<path d="M354.986 526.764C355.009 521.891 356.18 517.887 358.516 514.762C360.843 511.636 363.862 510.078 367.584 510.095L367.709 510.096C370.27 510.108 372.377 510.684 374.022 511.834C375.666 512.974 377.039 514.755 378.15 517.149C380.355 513.485 383.529 511.659 387.653 511.679L387.778 511.679C391.164 511.695 393.987 513.119 396.247 515.969C398.507 518.81 399.621 522.48 399.599 526.978C399.578 531.477 398.419 535.136 396.141 537.955C393.854 540.774 391.018 542.18 387.632 542.163L387.507 542.163C383.373 542.143 380.226 540.286 378.056 536.602C376.808 538.946 375.389 540.694 373.82 541.848C372.241 543.001 370.244 543.567 367.807 543.555L367.682 543.554C363.759 543.536 360.659 541.967 358.381 538.829C356.104 535.7 354.981 531.675 355.005 526.764L354.986 526.764ZM362.851 526.802C362.84 529.114 363.34 530.948 364.341 532.286C365.341 533.634 366.633 534.312 368.206 534.319L368.331 534.32C369.981 534.328 371.289 533.643 372.245 532.267C373.201 530.89 373.69 529.079 373.7 526.854C373.711 524.629 373.24 522.813 372.297 521.428C371.354 520.042 370.053 519.345 368.403 519.337L368.278 519.336C366.753 519.329 365.464 520.004 364.432 521.361C363.389 522.718 362.872 524.529 362.861 526.802L362.851 526.802ZM382.796 522.408C381.774 523.535 381.268 525.029 381.259 526.89C381.25 528.751 381.742 530.25 382.724 531.387C383.707 532.523 384.97 533.105 386.495 533.112L386.62 533.113C388.021 533.12 389.222 532.569 390.225 531.461C391.228 530.353 391.725 528.849 391.734 526.95C391.743 525.051 391.261 523.543 390.297 522.425C389.334 521.308 388.147 520.746 386.747 520.739L386.622 520.739C385.097 520.731 383.818 521.291 382.806 522.428L382.796 522.408Z" fill="white"/>
<path d="M354.674 565.726C354.701 559.981 356.834 555.358 361.062 551.848C365.29 548.338 370.631 546.599 377.068 546.63L377.192 546.63C383.59 546.661 388.925 548.48 393.186 552.098C397.446 555.716 399.554 560.369 399.526 566.066C399.499 571.764 397.357 576.33 393.11 579.878C388.862 583.426 383.53 585.194 377.132 585.163L377.007 585.162C370.609 585.132 365.275 583.312 361.014 579.695C356.753 576.077 354.646 571.424 354.674 565.726ZM367.224 559.005C364.616 560.748 363.301 563.043 363.287 565.892C363.273 568.741 364.538 571.03 367.091 572.76C369.644 574.489 372.92 575.358 376.93 575.378L377.054 575.378C381.016 575.397 384.32 574.521 386.947 572.759C389.574 570.997 390.9 568.711 390.913 565.9C390.927 563.09 389.662 560.81 387.109 559.062C384.556 557.313 381.28 556.434 377.27 556.415L377.145 556.414C373.136 556.395 369.832 557.252 367.224 558.995L367.224 559.005Z" fill="white"/>
<path d="M355.308 589.519L400.535 589.736L400.49 599.156L376.394 599.04L388.418 610.129L388.364 621.4L375.35 608.704L355.153 621.682L355.206 610.775L368.877 602.352L365.363 598.987L355.262 598.938L355.308 589.519Z" fill="white"/>
<path d="M391.356 227.72L383.797 227.683L372.029 213.19C369.731 210.33 367.861 208.355 366.417 207.273C364.974 206.192 363.384 205.647 361.658 205.639C359.931 205.631 358.442 206.151 357.468 207.202C356.494 208.252 355.998 209.66 355.99 211.434C355.982 213.046 356.416 214.506 357.302 215.805C358.188 217.104 359.677 218.618 361.77 220.316L356.347 226.976C353.259 224.649 350.997 222.279 349.57 219.883C348.133 217.478 347.428 214.444 347.446 210.77C347.467 206.309 348.703 202.709 351.152 199.977C353.602 197.245 356.851 195.889 360.899 195.909L361.023 195.909C364.41 195.925 367.216 196.764 369.434 198.424C371.661 200.085 374.428 203.072 377.755 207.385L383.17 214.471L383.26 195.575L391.5 195.614L391.346 227.7L391.356 227.72Z" fill="white"/>
<path d="M392.368 172.712C392.341 178.458 390.208 183.081 385.98 186.591C381.752 190.1 376.41 191.84 369.974 191.809L369.849 191.808C363.451 191.777 358.117 189.958 353.856 186.34C349.595 182.723 347.488 178.07 347.515 172.372C347.543 166.674 349.685 162.109 353.932 158.561C358.179 155.013 363.512 153.245 369.91 153.275L370.034 153.276C376.432 153.307 381.767 155.126 386.027 158.744C390.288 162.361 392.395 167.014 392.368 172.712ZM379.818 179.434C382.426 177.691 383.741 175.395 383.755 172.546C383.769 169.697 382.504 167.408 379.951 165.679C377.398 163.95 374.122 163.08 370.112 163.061L369.987 163.06C366.026 163.041 362.722 163.917 360.094 165.679C357.467 167.441 356.142 169.728 356.129 172.538C356.115 175.349 357.38 177.628 359.933 179.367C362.486 181.116 365.762 181.995 369.772 182.014L369.896 182.014C373.906 182.034 377.21 181.177 379.818 179.434Z" fill="white"/>
<path d="M391.734 148.92L346.507 148.703L346.552 139.283L370.648 139.399L358.624 128.31L358.678 117.039L371.692 129.735L391.889 116.767L391.836 127.673L378.165 136.097L381.679 139.461L391.779 139.51L391.734 148.929L391.734 148.92Z" fill="white"/>
<path d="M254.022 346.909L253.859 380.923L261.426 379.099L263.375 386.916L250.906 390.578L244.402 390.547L244.612 346.873L254.032 346.919L254.022 346.909Z" fill="white"/>
<path d="M238.973 346.837L238.936 354.395L224.443 366.163C221.583 368.461 219.608 370.332 218.526 371.775C217.445 373.218 216.9 374.808 216.892 376.534C216.884 378.261 217.404 379.75 218.455 380.724C219.505 381.698 220.913 382.194 222.687 382.203C224.299 382.21 225.759 381.776 227.058 380.89C228.367 380.004 229.871 378.515 231.569 376.423L238.229 381.846C235.902 384.933 233.532 387.195 231.136 388.622C228.731 390.059 225.697 390.764 222.023 390.746C217.563 390.725 213.962 389.489 211.23 387.04C208.498 384.59 207.142 381.341 207.162 377.293L207.162 377.169C207.179 373.783 208.017 370.976 209.678 368.759C211.338 366.541 214.325 363.764 218.638 360.437L225.725 355.023L206.828 354.932L206.867 346.692L238.953 346.846L238.973 346.837Z" fill="white"/>
<path d="M183.964 345.835C189.71 345.862 194.333 347.995 197.843 352.223C201.352 356.451 203.092 361.792 203.061 368.229L203.06 368.353C203.03 374.751 201.21 380.086 197.593 384.347C193.975 388.607 189.322 390.715 183.624 390.687C177.926 390.66 173.361 388.518 169.813 384.271C166.265 380.023 164.497 374.691 164.528 368.293L164.528 368.168C164.559 361.77 166.378 356.436 169.996 352.175C173.614 347.914 178.267 345.807 183.964 345.835ZM190.686 358.375C188.943 355.767 186.647 354.452 183.798 354.438C180.949 354.425 178.66 355.689 176.931 358.242C175.202 360.795 174.332 364.072 174.313 368.081L174.312 368.206C174.293 372.167 175.17 375.471 176.932 378.099C178.694 380.726 180.98 382.051 183.79 382.064C186.601 382.078 188.88 380.813 190.629 378.26C192.377 375.708 193.256 372.431 193.276 368.422L193.276 368.297C193.296 364.287 192.438 360.983 190.696 358.375L190.686 358.375Z" fill="white"/>
<path d="M160.172 346.458L159.955 391.686L150.535 391.641L150.651 367.545L139.562 379.569L128.291 379.514L140.996 366.501L128.019 346.304L138.925 346.356L147.349 360.028L150.714 356.514L150.762 346.413L160.182 346.458L160.172 346.458Z" fill="white"/>
<path d="M517.951 382.499L537.506 347.465L517.122 347.367L517.162 339.128L548.385 339.278L548.35 346.462L528.723 382.551L517.942 382.499L517.951 382.499Z" fill="white"/>
<path d="M569.304 383.495C563.558 383.467 558.935 381.334 555.425 377.106C551.916 372.878 550.176 367.537 550.207 361.1L550.208 360.976C550.239 354.578 552.058 349.243 555.676 344.982C559.293 340.722 563.946 338.605 569.644 338.632C575.342 338.66 579.907 340.801 583.455 345.049C587.003 349.296 588.771 354.628 588.741 361.026L588.74 361.151C588.709 367.549 586.89 372.883 583.272 377.144C579.655 381.405 575.002 383.512 569.304 383.485L569.304 383.495ZM562.582 370.944C564.325 373.552 566.621 374.868 569.47 374.881C572.319 374.895 574.608 373.63 576.337 371.077C578.067 368.524 578.936 365.248 578.955 361.238L578.956 361.114C578.975 357.152 578.099 353.848 576.337 351.221C574.575 348.594 572.288 347.268 569.478 347.255C566.667 347.241 564.388 348.506 562.649 351.059C560.91 353.612 560.021 356.888 560.002 360.898L560.002 361.023C559.982 365.032 560.839 368.336 562.582 370.944Z" fill="white"/>
<path d="M593.097 382.86L593.314 337.633L602.733 337.678L602.618 361.774L613.707 349.75L624.978 349.804L612.282 362.818L625.259 383.015L614.353 382.962L605.929 369.291L602.565 372.805L602.516 382.906L593.097 382.86Z" fill="white"/>
<path d="M473.137 485.893L497.301 461.96L490.663 457.9L494.811 450.994L506.215 457.226L510.788 461.843L479.753 492.582L473.128 485.893L473.137 485.893Z" fill="white"/>
<path d="M496.93 510.976C492.892 506.899 491.122 502.123 491.637 496.648C492.143 491.173 494.69 486.169 499.268 481.634L499.355 481.548C503.904 477.043 508.962 474.563 514.527 474.11C520.093 473.657 524.881 475.455 528.89 479.503C532.9 483.551 534.613 488.288 534.126 493.811C533.63 499.325 531.112 504.339 526.562 508.845L526.476 508.931C521.926 513.437 516.869 515.916 511.303 516.369C505.737 516.822 500.949 515.024 496.94 510.976L496.93 510.976ZM501.044 497.346C500.434 500.422 501.122 502.977 503.127 505.001C505.132 507.025 507.651 507.747 510.676 507.157C513.7 506.567 516.634 504.874 519.487 502.048L519.574 501.962C522.388 499.175 524.11 496.219 524.719 493.114C525.329 490.009 524.651 487.454 522.675 485.459C520.698 483.464 518.189 482.751 515.145 483.322C512.102 483.893 509.158 485.586 506.315 488.402L506.228 488.488C503.385 491.304 501.654 494.26 501.034 497.336L501.044 497.346Z" fill="white"/>
<path d="M514.196 527.357L546.33 495.53L552.955 502.219L535.827 519.182L552.167 518.512L560.1 526.522L541.921 526.742L536.81 550.199L529.135 542.45L532.846 526.832L527.982 526.943L520.811 534.046L514.186 527.357L514.196 527.357Z" fill="white"/>
<path d="M316.727 273.78L311.359 279.097L292.797 277.166C289.144 276.765 286.43 276.694 284.654 276.954C282.878 277.214 281.369 277.946 280.135 279.167C278.843 280.447 278.223 281.796 278.274 283.235C278.324 284.665 278.98 286.011 280.221 287.274C281.357 288.42 282.696 289.137 284.239 289.442C285.792 289.737 287.902 289.747 290.589 289.472L291.469 298.023C287.639 298.561 284.368 298.488 281.657 297.803C278.946 297.119 276.296 295.475 273.709 292.854C270.569 289.683 268.897 286.269 268.703 282.604C268.5 278.939 269.84 275.684 272.712 272.83L272.799 272.744C275.208 270.357 277.786 268.969 280.531 268.579C283.276 268.18 287.352 268.334 292.75 269.031L301.598 270.215L288.3 256.789L294.15 250.995L316.737 273.799L316.727 273.78Z" fill="white"/>
<path d="M278.547 234.171C282.585 238.248 284.356 243.024 283.84 248.499C283.335 253.974 280.788 258.978 276.209 263.513L276.123 263.599C271.573 268.104 266.516 270.584 260.95 271.037C255.384 271.49 250.597 269.692 246.587 265.644C242.607 261.625 240.864 256.858 241.351 251.336C241.848 245.822 244.366 240.808 248.915 236.302L249.002 236.216C253.551 231.71 258.609 229.231 264.175 228.778C269.74 228.325 274.528 230.123 278.537 234.171L278.547 234.171ZM274.434 247.792C275.043 244.715 274.355 242.161 272.35 240.137C270.346 238.112 267.826 237.391 264.802 237.98C261.778 238.561 258.844 240.263 255.991 243.089L255.904 243.175C253.09 245.963 251.368 248.918 250.758 252.023C250.149 255.128 250.827 257.683 252.803 259.678C254.779 261.674 257.289 262.386 260.332 261.815C263.376 261.245 266.319 259.551 269.163 256.735L269.249 256.649C272.093 253.833 273.824 250.878 274.443 247.801L274.434 247.792Z" fill="white"/>
<path d="M248.906 204.236C252.944 208.313 254.715 213.089 254.2 218.564C253.694 224.039 251.147 229.043 246.569 233.578L246.482 233.664C241.933 238.169 236.875 240.649 231.309 241.102C225.744 241.555 220.956 239.757 216.947 235.709C212.966 231.69 211.224 226.923 211.711 221.4C212.207 215.887 214.725 210.873 219.275 206.367L219.361 206.281C223.911 201.775 228.968 199.296 234.534 198.843C240.1 198.39 244.887 200.188 248.897 204.236L248.906 204.236ZM244.783 217.866C245.393 214.79 244.705 212.235 242.7 210.211C240.695 208.187 238.176 207.465 235.152 208.055C232.127 208.635 229.193 210.338 226.34 213.164L226.254 213.25C223.439 216.037 221.718 218.993 221.108 222.098C220.498 225.203 221.177 227.758 223.153 229.753C225.129 231.748 227.639 232.46 230.682 231.89C233.726 231.319 236.669 229.626 239.513 226.81L239.599 226.724C242.443 223.908 244.174 220.952 244.793 217.876L244.783 217.866Z" fill="white"/>
<path d="M231.631 187.864L199.497 219.691L192.872 213.002L209.99 196.048L193.65 196.718L185.718 188.708L203.896 188.489L209.007 165.031L216.682 172.78L212.971 188.398L217.835 188.287L225.006 181.175L231.631 187.864Z" fill="white"/>
<path d="M258.769 449.235C263.231 444.815 268.595 442.549 274.879 442.435L275.622 451.379C270.95 451.586 267.394 452.903 264.956 455.318C263.346 456.912 262.446 458.529 262.256 460.168C262.076 461.798 262.663 463.307 264.028 464.685L264.114 464.772C265.393 466.063 266.906 466.589 268.644 466.348C270.381 466.107 272.074 465.175 273.712 463.542C275.476 461.795 276.81 459.72 277.733 457.298L284.224 456.015L298.382 472.073L279.452 490.822L273.572 484.875L286.689 471.883L281.767 466.209C280.703 467.96 279.535 469.47 278.244 470.749C275.044 473.918 271.63 475.667 268.012 476.004C264.394 476.342 260.948 474.858 257.693 471.571L257.607 471.484C254.38 468.226 252.882 464.584 253.103 460.556C253.324 456.528 255.212 452.758 258.769 449.235Z" fill="white"/>
<path d="M230.645 477.091C234.722 473.053 239.498 471.282 244.973 471.797C250.448 472.313 255.453 474.85 259.987 479.428L260.073 479.515C264.579 484.064 267.058 489.122 267.511 494.688C267.964 500.254 266.166 505.041 262.118 509.051C258.07 513.06 253.333 514.773 247.81 514.286C242.287 513.8 237.282 511.272 232.776 506.723L232.69 506.636C228.185 502.087 225.705 497.029 225.252 491.463C224.8 485.897 226.597 481.11 230.645 477.1L230.645 477.091ZM244.266 481.214C241.19 480.604 238.635 481.292 236.611 483.297C234.587 485.302 233.865 487.821 234.455 490.846C235.035 493.87 236.738 496.804 239.563 499.657L239.649 499.743C242.437 502.558 245.393 504.28 248.498 504.889C251.603 505.499 254.158 504.82 256.153 502.844C258.148 500.868 258.86 498.358 258.29 495.325C257.719 492.281 256.026 489.338 253.21 486.494L253.124 486.408C250.308 483.564 247.352 481.833 244.276 481.214L244.266 481.214Z" fill="white"/>
<path d="M214.264 494.364L246.091 526.499L239.402 533.124L222.438 516.006L223.108 532.345L215.098 540.278L214.879 522.099L191.421 516.989L199.17 509.314L214.788 513.024L214.677 508.16L207.575 500.99L214.264 494.364Z" fill="white"/>
<path d="M487.827 279.542L463.894 255.379L459.834 262.016L452.928 257.868L459.16 246.464L463.777 241.881L494.516 272.917L487.827 279.542Z" fill="white"/>
<path d="M510.318 258.315C505.856 262.734 500.492 265.001 494.209 265.115L493.465 256.171C498.138 255.964 501.693 254.647 504.132 252.232C505.741 250.638 506.641 249.021 506.831 247.382C507.012 245.752 506.424 244.243 505.059 242.865L504.973 242.778C503.694 241.486 502.181 240.961 500.443 241.202C498.706 241.443 497.013 242.375 495.375 244.008C493.611 245.755 492.277 247.83 491.354 250.252L484.864 251.535L470.706 235.477L489.635 216.728L495.525 222.665L482.407 235.657L487.33 241.331C488.384 239.581 489.561 238.071 490.853 236.792C494.053 233.622 497.467 231.874 501.085 231.536C504.712 231.208 508.149 232.683 511.404 235.969L511.49 236.056C514.717 239.314 516.215 242.957 515.994 246.984C515.773 251.012 513.884 254.783 510.337 258.305L510.318 258.315Z" fill="white"/>
<path d="M538.443 230.459C534.366 234.497 529.59 236.268 524.115 235.752C518.64 235.247 513.635 232.7 509.101 228.121L509.015 228.035C504.509 223.485 502.03 218.428 501.577 212.862C501.124 207.296 502.922 202.509 506.97 198.499C511.018 194.49 515.755 192.776 521.278 193.263C526.791 193.76 531.806 196.278 536.312 200.827L536.397 200.914C540.903 205.463 543.383 210.521 543.836 216.087C544.288 221.652 542.491 226.44 538.443 230.449L538.443 230.459ZM524.812 226.336C527.889 226.945 530.444 226.257 532.468 224.253C534.492 222.248 535.214 219.729 534.624 216.704C534.034 213.68 532.341 210.736 529.515 207.893L529.429 207.806C526.642 204.992 523.686 203.28 520.581 202.661C517.476 202.051 514.921 202.729 512.926 204.705C510.931 206.681 510.218 209.191 510.789 212.235C511.359 215.278 513.053 218.222 515.869 221.065L515.955 221.152C518.771 223.995 521.727 225.726 524.803 226.346L524.812 226.336Z" fill="white"/>
<path d="M554.823 213.186L522.996 181.051L529.685 174.426L546.639 191.554L545.969 175.214L553.979 167.282L554.198 185.46L577.656 190.571L569.907 198.246L554.289 194.535L554.4 199.399L561.502 206.57L554.814 213.195L554.823 213.186Z" fill="white"/>
<g filter="url(#filter1_d_108_2909)">
<path d="M374.103 123.415L347.244 60.1057L400.961 60.1057L374.103 123.415Z" fill="#DB1D31"/>
<path d="M347.969 60.5852L400.236 60.5852L374.104 122.187L347.969 60.5852Z" stroke="url(#paint0_linear_108_2909)" stroke-opacity="0.55" stroke-width="0.959236"/>
</g>
<g clip-path="url(#paint1_diamond_108_2909_clip_path)" data-figma-skip-parse="true"><g transform="matrix(0.13013 0.352198 -0.391709 0.144729 248.768 344.999)"><rect x="0" y="0" width="1306.1" height="1284.4" fill="url(#paint1_diamond_108_2909)" opacity="1" shape-rendering="crispEdges"/><rect x="0" y="0" width="1306.1" height="1284.4" transform="scale(1 -1)" fill="url(#paint1_diamond_108_2909)" opacity="1" shape-rendering="crispEdges"/><rect x="0" y="0" width="1306.1" height="1284.4" transform="scale(-1 1)" fill="url(#paint1_diamond_108_2909)" opacity="1" shape-rendering="crispEdges"/><rect x="0" y="0" width="1306.1" height="1284.4" transform="scale(-1)" fill="url(#paint1_diamond_108_2909)" opacity="1" shape-rendering="crispEdges"/></g></g><path d="M378.898 41.0791C197.717 41.0791 50.8398 187.961 50.8398 369.141C50.8398 550.321 197.717 697.196 378.898 697.196C560.08 697.196 706.957 550.321 706.957 369.141C706.957 187.961 560.08 41.0791 378.898 41.0791ZM378.898 663.087C216.547 663.087 84.9421 531.484 84.9421 369.141C84.9421 206.799 216.547 75.188 378.898 75.188C541.25 75.188 672.848 206.792 672.848 369.141C672.848 531.491 541.243 663.087 378.898 663.087Z" data-figma-gradient-fill="{&#34;type&#34;:&#34;GRADIENT_DIAMOND&#34;,&#34;stops&#34;:[{&#34;color&#34;:{&#34;r&#34;:0.20726238191127777,&#34;g&#34;:0.47628051042556763,&#34;b&#34;:0.87980771064758301,&#34;a&#34;:1.0},&#34;position&#34;:0.0},{&#34;color&#34;:{&#34;r&#34;:0.13059356808662415,&#34;g&#34;:0.27503004670143127,&#34;b&#34;:0.54326921701431274,&#34;a&#34;:1.0},&#34;position&#34;:1.0}],&#34;stopsVar&#34;:[{&#34;color&#34;:{&#34;r&#34;:0.20726238191127777,&#34;g&#34;:0.47628051042556763,&#34;b&#34;:0.87980771064758301,&#34;a&#34;:1.0},&#34;position&#34;:0.0},{&#34;color&#34;:{&#34;r&#34;:0.13059356808662415,&#34;g&#34;:0.27503004670143127,&#34;b&#34;:0.54326921701431274,&#34;a&#34;:1.0},&#34;position&#34;:1.0}],&#34;transform&#34;:{&#34;m00&#34;:260.26016235351562,&#34;m01&#34;:-783.41711425781250,&#34;m02&#34;:510.34686279296875,&#34;m10&#34;:704.39550781250,&#34;m11&#34;:289.45706176757812,&#34;m12&#34;:-151.92778015136719},&#34;opacity&#34;:1.0,&#34;blendMode&#34;:&#34;NORMAL&#34;,&#34;visible&#34;:true}"/>
<g filter="url(#filter2_dif_108_2909)">
<circle cx="372.988" cy="57.2279" r="13.4293" fill="#FFAB36"/>
</g>
<g filter="url(#filter3_f_108_2909)">
<circle cx="372.988" cy="57.2279" r="13.4293" fill="#FFAB36"/>
</g>
<g filter="url(#filter4_dif_108_2909)">
<circle cx="372.988" cy="680.731" r="13.4293" fill="#FFAB36"/>
</g>
<g filter="url(#filter5_f_108_2909)">
<circle cx="372.988" cy="680.731" r="13.4293" fill="#FFAB36"/>
</g>
<g filter="url(#filter6_dif_108_2909)">
<circle cx="67.9496" cy="368.98" r="13.4293" transform="rotate(90 67.9496 368.98)" fill="#FFAB36"/>
</g>
<g filter="url(#filter7_f_108_2909)">
<circle cx="67.9496" cy="368.98" r="13.4293" transform="rotate(90 67.9496 368.98)" fill="#FFAB36"/>
</g>
<g filter="url(#filter8_dif_108_2909)">
<circle cx="691.453" cy="368.98" r="13.4293" transform="rotate(90 691.453 368.98)" fill="#FFAB36"/>
</g>
<g filter="url(#filter9_f_108_2909)">
<circle cx="691.453" cy="368.98" r="13.4293" transform="rotate(90 691.453 368.98)" fill="#FFAB36"/>
</g>
<g filter="url(#filter10_dif_108_2909)">
<circle cx="157.928" cy="589.421" r="13.4293" transform="rotate(45 157.928 589.421)" fill="#FFAB36"/>
</g>
<g filter="url(#filter11_f_108_2909)">
<circle cx="157.928" cy="589.421" r="13.4293" transform="rotate(45 157.928 589.421)" fill="#FFAB36"/>
</g>
<g filter="url(#filter12_dif_108_2909)">
<circle cx="598.809" cy="148.538" r="13.4293" transform="rotate(45 598.809 148.538)" fill="#FFAB36"/>
</g>
<g filter="url(#filter13_f_108_2909)">
<circle cx="598.809" cy="148.538" r="13.4293" transform="rotate(45 598.809 148.538)" fill="#FFAB36"/>
</g>
<g filter="url(#filter14_dif_108_2909)">
<circle cx="598.81" cy="589.421" r="13.4293" transform="rotate(-45 598.81 589.421)" fill="#FFAB36"/>
</g>
<g filter="url(#filter15_f_108_2909)">
<circle cx="598.81" cy="589.421" r="13.4293" transform="rotate(-45 598.81 589.421)" fill="#FFAB36"/>
</g>
<g filter="url(#filter16_dif_108_2909)">
<circle cx="157.925" cy="148.538" r="13.4293" transform="rotate(-45 157.925 148.538)" fill="#FFAB36"/>
</g>
<g filter="url(#filter17_f_108_2909)">
<circle cx="157.925" cy="148.538" r="13.4293" transform="rotate(-45 157.925 148.538)" fill="#FFAB36"/>
</g>
<g filter="url(#filter18_d_108_2909)">
<circle cx="377.94" cy="368.02" r="45.0841" fill="#D9D9D9"/>
<circle cx="377.94" cy="368.02" r="45.0841" fill="url(#paint2_radial_108_2909)"/>
</g>
</g>
<defs>
<filter id="filter0_i_108_2909" x="84.3203" y="72.5872" width="590.889" height="591.848" filterUnits="userSpaceOnUse" color-interpolation-filters="sRGB">
<feFlood flood-opacity="0" result="BackgroundImageFix"/>
<feBlend mode="normal" in="SourceGraphic" in2="BackgroundImageFix" result="shape"/>
<feColorMatrix in="SourceAlpha" type="matrix" values="0 0 0 0 0 0 0 0 0 0 0 0 0 0 0 0 0 0 127 0" result="hardAlpha"/>
<feOffset dy="0.959236"/>
<feGaussianBlur stdDeviation="54.8683"/>
<feComposite in2="hardAlpha" operator="arithmetic" k2="-1" k3="1"/>
<feColorMatrix type="matrix" values="0 0 0 0 0 0 0 0 0 0 0 0 0 0 0 0 0 0 0.65 0"/>
<feBlend mode="normal" in2="shape" result="effect1_innerShadow_108_2909"/>
</filter>
<filter id="filter1_d_108_2909" x="343.407" y="60.1057" width="61.3907" height="70.9835" filterUnits="userSpaceOnUse" color-interpolation-filters="sRGB">
<feFlood flood-opacity="0" result="BackgroundImageFix"/>
<feColorMatrix in="SourceAlpha" type="matrix" values="0 0 0 0 0 0 0 0 0 0 0 0 0 0 0 0 0 0 127 0" result="hardAlpha"/>
<feOffset dy="3.83694"/>
<feGaussianBlur stdDeviation="1.91847"/>
<feComposite in2="hardAlpha" operator="out"/>
<feColorMatrix type="matrix" values="0 0 0 0 0 0 0 0 0 0 0 0 0 0 0 0 0 0 0.25 0"/>
<feBlend mode="normal" in2="BackgroundImageFix" result="effect1_dropShadow_108_2909"/>
<feBlend mode="normal" in="SourceGraphic" in2="effect1_dropShadow_108_2909" result="shape"/>
</filter>
<clipPath id="paint1_diamond_108_2909_clip_path"><path d="M378.898 41.0791C197.717 41.0791 50.8398 187.961 50.8398 369.141C50.8398 550.321 197.717 697.196 378.898 697.196C560.08 697.196 706.957 550.321 706.957 369.141C706.957 187.961 560.08 41.0791 378.898 41.0791ZM378.898 663.087C216.547 663.087 84.9421 531.484 84.9421 369.141C84.9421 206.799 216.547 75.188 378.898 75.188C541.25 75.188 672.848 206.792 672.848 369.141C672.848 531.491 541.243 663.087 378.898 663.087Z"/></clipPath><filter id="filter2_dif_108_2909" x="346.897" y="31.1367" width="52.1832" height="52.1825" filterUnits="userSpaceOnUse" color-interpolation-filters="sRGB">
<feFlood flood-opacity="0" result="BackgroundImageFix"/>
<feColorMatrix in="SourceAlpha" type="matrix" values="0 0 0 0 0 0 0 0 0 0 0 0 0 0 0 0 0 0 127 0" result="hardAlpha"/>
<feOffset/>
<feGaussianBlur stdDeviation="6.33096"/>
<feComposite in2="hardAlpha" operator="out"/>
<feColorMatrix type="matrix" values="0 0 0 0 1 0 0 0 0 0.670588 0 0 0 0 0.211765 0 0 0 1 0"/>
<feBlend mode="normal" in2="BackgroundImageFix" result="effect1_dropShadow_108_2909"/>
<feBlend mode="normal" in="SourceGraphic" in2="effect1_dropShadow_108_2909" result="shape"/>
<feColorMatrix in="SourceAlpha" type="matrix" values="0 0 0 0 0 0 0 0 0 0 0 0 0 0 0 0 0 0 127 0" result="hardAlpha"/>
<feMorphology radius="2.87771" operator="dilate" in="SourceAlpha" result="effect2_innerShadow_108_2909"/>
<feOffset dx="0.959236" dy="7.67389"/>
<feGaussianBlur stdDeviation="1.91847"/>
<feComposite in2="hardAlpha" operator="arithmetic" k2="-1" k3="1"/>
<feColorMatrix type="matrix" values="0 0 0 0 1 0 0 0 0 1 0 0 0 0 1 0 0 0 0.25 0"/>
<feBlend mode="normal" in2="shape" result="effect2_innerShadow_108_2909"/>
<feGaussianBlur stdDeviation="0.52758" result="effect3_foregroundBlur_108_2909"/>
</filter>
<filter id="filter3_f_108_2909" x="332.508" y="16.7481" width="80.9603" height="80.9595" filterUnits="userSpaceOnUse" color-interpolation-filters="sRGB">
<feFlood flood-opacity="0" result="BackgroundImageFix"/>
<feBlend mode="normal" in="SourceGraphic" in2="BackgroundImageFix" result="shape"/>
<feGaussianBlur stdDeviation="13.5252" result="effect1_foregroundBlur_108_2909"/>
</filter>
<filter id="filter4_dif_108_2909" x="346.897" y="654.64" width="52.1832" height="52.1825" filterUnits="userSpaceOnUse" color-interpolation-filters="sRGB">
<feFlood flood-opacity="0" result="BackgroundImageFix"/>
<feColorMatrix in="SourceAlpha" type="matrix" values="0 0 0 0 0 0 0 0 0 0 0 0 0 0 0 0 0 0 127 0" result="hardAlpha"/>
<feOffset/>
<feGaussianBlur stdDeviation="6.33096"/>
<feComposite in2="hardAlpha" operator="out"/>
<feColorMatrix type="matrix" values="0 0 0 0 1 0 0 0 0 0.670588 0 0 0 0 0.211765 0 0 0 1 0"/>
<feBlend mode="normal" in2="BackgroundImageFix" result="effect1_dropShadow_108_2909"/>
<feBlend mode="normal" in="SourceGraphic" in2="effect1_dropShadow_108_2909" result="shape"/>
<feColorMatrix in="SourceAlpha" type="matrix" values="0 0 0 0 0 0 0 0 0 0 0 0 0 0 0 0 0 0 127 0" result="hardAlpha"/>
<feMorphology radius="2.87771" operator="dilate" in="SourceAlpha" result="effect2_innerShadow_108_2909"/>
<feOffset dx="0.959236" dy="7.67389"/>
<feGaussianBlur stdDeviation="1.91847"/>
<feComposite in2="hardAlpha" operator="arithmetic" k2="-1" k3="1"/>
<feColorMatrix type="matrix" values="0 0 0 0 1 0 0 0 0 1 0 0 0 0 1 0 0 0 0.25 0"/>
<feBlend mode="normal" in2="shape" result="effect2_innerShadow_108_2909"/>
<feGaussianBlur stdDeviation="0.52758" result="effect3_foregroundBlur_108_2909"/>
</filter>
<filter id="filter5_f_108_2909" x="332.508" y="640.251" width="80.9603" height="80.9595" filterUnits="userSpaceOnUse" color-interpolation-filters="sRGB">
<feFlood flood-opacity="0" result="BackgroundImageFix"/>
<feBlend mode="normal" in="SourceGraphic" in2="BackgroundImageFix" result="shape"/>
<feGaussianBlur stdDeviation="13.5252" result="effect1_foregroundBlur_108_2909"/>
</filter>
<filter id="filter6_dif_108_2909" x="41.8576" y="342.888" width="52.1832" height="52.1825" filterUnits="userSpaceOnUse" color-interpolation-filters="sRGB">
<feFlood flood-opacity="0" result="BackgroundImageFix"/>
<feColorMatrix in="SourceAlpha" type="matrix" values="0 0 0 0 0 0 0 0 0 0 0 0 0 0 0 0 0 0 127 0" result="hardAlpha"/>
<feOffset/>
<feGaussianBlur stdDeviation="6.33096"/>
<feComposite in2="hardAlpha" operator="out"/>
<feColorMatrix type="matrix" values="0 0 0 0 1 0 0 0 0 0.670588 0 0 0 0 0.211765 0 0 0 1 0"/>
<feBlend mode="normal" in2="BackgroundImageFix" result="effect1_dropShadow_108_2909"/>
<feBlend mode="normal" in="SourceGraphic" in2="effect1_dropShadow_108_2909" result="shape"/>
<feColorMatrix in="SourceAlpha" type="matrix" values="0 0 0 0 0 0 0 0 0 0 0 0 0 0 0 0 0 0 127 0" result="hardAlpha"/>
<feMorphology radius="2.87771" operator="dilate" in="SourceAlpha" result="effect2_innerShadow_108_2909"/>
<feOffset dx="0.959236" dy="7.67389"/>
<feGaussianBlur stdDeviation="1.91847"/>
<feComposite in2="hardAlpha" operator="arithmetic" k2="-1" k3="1"/>
<feColorMatrix type="matrix" values="0 0 0 0 1 0 0 0 0 1 0 0 0 0 1 0 0 0 0.25 0"/>
<feBlend mode="normal" in2="shape" result="effect2_innerShadow_108_2909"/>
<feGaussianBlur stdDeviation="0.52758" result="effect3_foregroundBlur_108_2909"/>
</filter>
<filter id="filter7_f_108_2909" x="27.4691" y="328.5" width="80.9603" height="80.9595" filterUnits="userSpaceOnUse" color-interpolation-filters="sRGB">
<feFlood flood-opacity="0" result="BackgroundImageFix"/>
<feBlend mode="normal" in="SourceGraphic" in2="BackgroundImageFix" result="shape"/>
<feGaussianBlur stdDeviation="13.5252" result="effect1_foregroundBlur_108_2909"/>
</filter>
<filter id="filter8_dif_108_2909" x="665.362" y="342.888" width="52.1832" height="52.1825" filterUnits="userSpaceOnUse" color-interpolation-filters="sRGB">
<feFlood flood-opacity="0" result="BackgroundImageFix"/>
<feColorMatrix in="SourceAlpha" type="matrix" values="0 0 0 0 0 0 0 0 0 0 0 0 0 0 0 0 0 0 127 0" result="hardAlpha"/>
<feOffset/>
<feGaussianBlur stdDeviation="6.33096"/>
<feComposite in2="hardAlpha" operator="out"/>
<feColorMatrix type="matrix" values="0 0 0 0 1 0 0 0 0 0.670588 0 0 0 0 0.211765 0 0 0 1 0"/>
<feBlend mode="normal" in2="BackgroundImageFix" result="effect1_dropShadow_108_2909"/>
<feBlend mode="normal" in="SourceGraphic" in2="effect1_dropShadow_108_2909" result="shape"/>
<feColorMatrix in="SourceAlpha" type="matrix" values="0 0 0 0 0 0 0 0 0 0 0 0 0 0 0 0 0 0 127 0" result="hardAlpha"/>
<feMorphology radius="2.87771" operator="dilate" in="SourceAlpha" result="effect2_innerShadow_108_2909"/>
<feOffset dx="0.959236" dy="7.67389"/>
<feGaussianBlur stdDeviation="1.91847"/>
<feComposite in2="hardAlpha" operator="arithmetic" k2="-1" k3="1"/>
<feColorMatrix type="matrix" values="0 0 0 0 1 0 0 0 0 1 0 0 0 0 1 0 0 0 0.25 0"/>
<feBlend mode="normal" in2="shape" result="effect2_innerShadow_108_2909"/>
<feGaussianBlur stdDeviation="0.52758" result="effect3_foregroundBlur_108_2909"/>
</filter>
<filter id="filter9_f_108_2909" x="650.973" y="328.5" width="80.9603" height="80.9595" filterUnits="userSpaceOnUse" color-interpolation-filters="sRGB">
<feFlood flood-opacity="0" result="BackgroundImageFix"/>
<feBlend mode="normal" in="SourceGraphic" in2="BackgroundImageFix" result="shape"/>
<feGaussianBlur stdDeviation="13.5252" result="effect1_foregroundBlur_108_2909"/>
</filter>
<filter id="filter10_dif_108_2909" x="131.836" y="563.33" width="52.1832" height="52.1825" filterUnits="userSpaceOnUse" color-interpolation-filters="sRGB">
<feFlood flood-opacity="0" result="BackgroundImageFix"/>
<feColorMatrix in="SourceAlpha" type="matrix" values="0 0 0 0 0 0 0 0 0 0 0 0 0 0 0 0 0 0 127 0" result="hardAlpha"/>
<feOffset/>
<feGaussianBlur stdDeviation="6.33096"/>
<feComposite in2="hardAlpha" operator="out"/>
<feColorMatrix type="matrix" values="0 0 0 0 1 0 0 0 0 0.670588 0 0 0 0 0.211765 0 0 0 1 0"/>
<feBlend mode="normal" in2="BackgroundImageFix" result="effect1_dropShadow_108_2909"/>
<feBlend mode="normal" in="SourceGraphic" in2="effect1_dropShadow_108_2909" result="shape"/>
<feColorMatrix in="SourceAlpha" type="matrix" values="0 0 0 0 0 0 0 0 0 0 0 0 0 0 0 0 0 0 127 0" result="hardAlpha"/>
<feMorphology radius="2.87771" operator="dilate" in="SourceAlpha" result="effect2_innerShadow_108_2909"/>
<feOffset dx="0.959236" dy="7.67389"/>
<feGaussianBlur stdDeviation="1.91847"/>
<feComposite in2="hardAlpha" operator="arithmetic" k2="-1" k3="1"/>
<feColorMatrix type="matrix" values="0 0 0 0 1 0 0 0 0 1 0 0 0 0 1 0 0 0 0.25 0"/>
<feBlend mode="normal" in2="shape" result="effect2_innerShadow_108_2909"/>
<feGaussianBlur stdDeviation="0.52758" result="effect3_foregroundBlur_108_2909"/>
</filter>
<filter id="filter11_f_108_2909" x="117.448" y="548.941" width="80.9603" height="80.9595" filterUnits="userSpaceOnUse" color-interpolation-filters="sRGB">
<feFlood flood-opacity="0" result="BackgroundImageFix"/>
<feBlend mode="normal" in="SourceGraphic" in2="BackgroundImageFix" result="shape"/>
<feGaussianBlur stdDeviation="13.5252" result="effect1_foregroundBlur_108_2909"/>
</filter>
<filter id="filter12_dif_108_2909" x="572.717" y="122.446" width="52.1832" height="52.1825" filterUnits="userSpaceOnUse" color-interpolation-filters="sRGB">
<feFlood flood-opacity="0" result="BackgroundImageFix"/>
<feColorMatrix in="SourceAlpha" type="matrix" values="0 0 0 0 0 0 0 0 0 0 0 0 0 0 0 0 0 0 127 0" result="hardAlpha"/>
<feOffset/>
<feGaussianBlur stdDeviation="6.33096"/>
<feComposite in2="hardAlpha" operator="out"/>
<feColorMatrix type="matrix" values="0 0 0 0 1 0 0 0 0 0.670588 0 0 0 0 0.211765 0 0 0 1 0"/>
<feBlend mode="normal" in2="BackgroundImageFix" result="effect1_dropShadow_108_2909"/>
<feBlend mode="normal" in="SourceGraphic" in2="effect1_dropShadow_108_2909" result="shape"/>
<feColorMatrix in="SourceAlpha" type="matrix" values="0 0 0 0 0 0 0 0 0 0 0 0 0 0 0 0 0 0 127 0" result="hardAlpha"/>
<feMorphology radius="2.87771" operator="dilate" in="SourceAlpha" result="effect2_innerShadow_108_2909"/>
<feOffset dx="0.959236" dy="7.67389"/>
<feGaussianBlur stdDeviation="1.91847"/>
<feComposite in2="hardAlpha" operator="arithmetic" k2="-1" k3="1"/>
<feColorMatrix type="matrix" values="0 0 0 0 1 0 0 0 0 1 0 0 0 0 1 0 0 0 0.25 0"/>
<feBlend mode="normal" in2="shape" result="effect2_innerShadow_108_2909"/>
<feGaussianBlur stdDeviation="0.52758" result="effect3_foregroundBlur_108_2909"/>
</filter>
<filter id="filter13_f_108_2909" x="558.328" y="108.058" width="80.9603" height="80.9595" filterUnits="userSpaceOnUse" color-interpolation-filters="sRGB">
<feFlood flood-opacity="0" result="BackgroundImageFix"/>
<feBlend mode="normal" in="SourceGraphic" in2="BackgroundImageFix" result="shape"/>
<feGaussianBlur stdDeviation="13.5252" result="effect1_foregroundBlur_108_2909"/>
</filter>
<filter id="filter14_dif_108_2909" x="572.719" y="563.33" width="52.1832" height="52.1822" filterUnits="userSpaceOnUse" color-interpolation-filters="sRGB">
<feFlood flood-opacity="0" result="BackgroundImageFix"/>
<feColorMatrix in="SourceAlpha" type="matrix" values="0 0 0 0 0 0 0 0 0 0 0 0 0 0 0 0 0 0 127 0" result="hardAlpha"/>
<feOffset/>
<feGaussianBlur stdDeviation="6.33096"/>
<feComposite in2="hardAlpha" operator="out"/>
<feColorMatrix type="matrix" values="0 0 0 0 1 0 0 0 0 0.670588 0 0 0 0 0.211765 0 0 0 1 0"/>
<feBlend mode="normal" in2="BackgroundImageFix" result="effect1_dropShadow_108_2909"/>
<feBlend mode="normal" in="SourceGraphic" in2="effect1_dropShadow_108_2909" result="shape"/>
<feColorMatrix in="SourceAlpha" type="matrix" values="0 0 0 0 0 0 0 0 0 0 0 0 0 0 0 0 0 0 127 0" result="hardAlpha"/>
<feMorphology radius="2.87771" operator="dilate" in="SourceAlpha" result="effect2_innerShadow_108_2909"/>
<feOffset dx="0.959236" dy="7.67389"/>
<feGaussianBlur stdDeviation="1.91847"/>
<feComposite in2="hardAlpha" operator="arithmetic" k2="-1" k3="1"/>
<feColorMatrix type="matrix" values="0 0 0 0 1 0 0 0 0 1 0 0 0 0 1 0 0 0 0.25 0"/>
<feBlend mode="normal" in2="shape" result="effect2_innerShadow_108_2909"/>
<feGaussianBlur stdDeviation="0.52758" result="effect3_foregroundBlur_108_2909"/>
</filter>
<filter id="filter15_f_108_2909" x="558.33" y="548.941" width="80.9603" height="80.9593" filterUnits="userSpaceOnUse" color-interpolation-filters="sRGB">
<feFlood flood-opacity="0" result="BackgroundImageFix"/>
<feBlend mode="normal" in="SourceGraphic" in2="BackgroundImageFix" result="shape"/>
<feGaussianBlur stdDeviation="13.5252" result="effect1_foregroundBlur_108_2909"/>
</filter>
<filter id="filter16_dif_108_2909" x="131.834" y="122.447" width="52.1832" height="52.1822" filterUnits="userSpaceOnUse" color-interpolation-filters="sRGB">
<feFlood flood-opacity="0" result="BackgroundImageFix"/>
<feColorMatrix in="SourceAlpha" type="matrix" values="0 0 0 0 0 0 0 0 0 0 0 0 0 0 0 0 0 0 127 0" result="hardAlpha"/>
<feOffset/>
<feGaussianBlur stdDeviation="6.33096"/>
<feComposite in2="hardAlpha" operator="out"/>
<feColorMatrix type="matrix" values="0 0 0 0 1 0 0 0 0 0.670588 0 0 0 0 0.211765 0 0 0 1 0"/>
<feBlend mode="normal" in2="BackgroundImageFix" result="effect1_dropShadow_108_2909"/>
<feBlend mode="normal" in="SourceGraphic" in2="effect1_dropShadow_108_2909" result="shape"/>
<feColorMatrix in="SourceAlpha" type="matrix" values="0 0 0 0 0 0 0 0 0 0 0 0 0 0 0 0 0 0 127 0" result="hardAlpha"/>
<feMorphology radius="2.87771" operator="dilate" in="SourceAlpha" result="effect2_innerShadow_108_2909"/>
<feOffset dx="0.959236" dy="7.67389"/>
<feGaussianBlur stdDeviation="1.91847"/>
<feComposite in2="hardAlpha" operator="arithmetic" k2="-1" k3="1"/>
<feColorMatrix type="matrix" values="0 0 0 0 1 0 0 0 0 1 0 0 0 0 1 0 0 0 0.25 0"/>
<feBlend mode="normal" in2="shape" result="effect2_innerShadow_108_2909"/>
<feGaussianBlur stdDeviation="0.52758" result="effect3_foregroundBlur_108_2909"/>
</filter>
<filter id="filter17_f_108_2909" x="117.446" y="108.058" width="80.9603" height="80.9593" filterUnits="userSpaceOnUse" color-interpolation-filters="sRGB">
<feFlood flood-opacity="0" result="BackgroundImageFix"/>
<feBlend mode="normal" in="SourceGraphic" in2="BackgroundImageFix" result="shape"/>
<feGaussianBlur stdDeviation="13.5252" result="effect1_foregroundBlur_108_2909"/>
</filter>
<filter id="filter18_d_108_2909" x="312.712" y="306.629" width="130.456" height="130.456" filterUnits="userSpaceOnUse" color-interpolation-filters="sRGB">
<feFlood flood-opacity="0" result="BackgroundImageFix"/>
<feColorMatrix in="SourceAlpha" type="matrix" values="0 0 0 0 0 0 0 0 0 0 0 0 0 0 0 0 0 0 127 0" result="hardAlpha"/>
<feOffset dy="3.83694"/>
<feGaussianBlur stdDeviation="10.072"/>
<feComposite in2="hardAlpha" operator="out"/>
<feColorMatrix type="matrix" values="0 0 0 0 0 0 0 0 0 0 0 0 0 0 0 0 0 0 0.5 0"/>
<feBlend mode="normal" in2="BackgroundImageFix" result="effect1_dropShadow_108_2909"/>
<feBlend mode="normal" in="SourceGraphic" in2="effect1_dropShadow_108_2909" result="shape"/>
</filter>
<linearGradient id="paint0_linear_108_2909" x1="374.37" y1="123.415" x2="373.835" y2="60.1057" gradientUnits="userSpaceOnUse">
<stop stop-color="white"/>
<stop offset="1" stop-color="white" stop-opacity="0"/>
</linearGradient>
<linearGradient id="paint1_diamond_108_2909" x1="0" y1="0" x2="500" y2="500" gradientUnits="userSpaceOnUse">
<stop stop-color="#3579E0"/>
<stop offset="1" stop-color="#21468B"/>
</linearGradient>
<radialGradient id="paint2_radial_108_2909" cx="0" cy="0" r="1" gradientUnits="userSpaceOnUse" gradientTransform="translate(377.94 364.183) rotate(90) scale(48.921)">
<stop stop-color="#3579E0"/>
<stop offset="1" stop-color="#21468B"/>
</radialGradient>
<clipPath id="clip0_108_2909">
<rect width="753" height="735.734" fill="white" transform="translate(0 0.633057)"/>
</clipPath>
</defs>
</svg>
