<svg width="26" height="28" viewBox="0 0 26 28" fill="none" xmlns="http://www.w3.org/2000/svg">
<path d="M19.5869 5.59575C21.1322 5.59575 22.3848 4.3431 22.3848 2.79787C22.3848 1.25265 21.1322 0 19.5869 0C18.0417 0 16.7891 1.25265 16.7891 2.79787C16.7891 4.3431 18.0417 5.59575 19.5869 5.59575Z" fill="#7F0217"/>
<path d="M17.8742 12.5479C18.1958 13.026 18.6565 13.3938 19.1939 13.6014C19.7314 13.8091 20.3196 13.8467 20.8791 13.709L25.518 12.5493L24.8423 9.83538L20.2034 10.9951L18.2743 8.1035C18.0708 7.79718 17.8089 7.534 17.5035 7.329C17.1982 7.12401 16.8554 6.98122 16.4949 6.9088L11.1146 5.83162C10.5127 5.71131 9.88793 5.79226 9.33659 6.06199C8.78524 6.33172 8.3379 6.77527 8.06347 7.32429L5.74403 11.9632L8.24673 13.2152L10.5662 8.57494L13.3179 9.12612L6.20289 20.9849H0V23.7828H6.20289C7.17934 23.7828 8.09844 23.2624 8.60206 22.4244L11.2852 17.9534L18.5163 19.3999L21.0568 27.0227L23.7092 26.1372L21.1701 18.5158C21.013 18.0481 20.7357 17.6299 20.3659 17.3034C19.9961 16.9768 19.5468 16.7532 19.0633 16.6552L14.8119 15.806L17.2909 11.6736L17.8742 12.5479Z" fill="#7F0217"/>
</svg>
