<svg width="20" height="24" viewBox="0 0 20 24" fill="none" xmlns="http://www.w3.org/2000/svg">
<path d="M0 24V5.71429H4.44444C4.44444 4.13333 4.9863 2.78591 6.07 1.672C7.1537 0.558096 8.4637 0.000762685 10 7.80107e-07C11.5363 -0.000761125 12.8467 0.556572 13.9311 1.672C15.0156 2.78743 15.557 4.13486 15.5556 5.71429H20V24H0ZM10 14.8571C11.537 14.8571 12.8474 14.2998 13.9311 13.1851C15.0148 12.0705 15.5563 10.723 15.5556 9.14286H13.3333C13.3333 10.0952 13.0093 10.9048 12.3611 11.5714C11.713 12.2381 10.9259 12.5714 10 12.5714C9.07407 12.5714 8.28704 12.2381 7.63889 11.5714C6.99074 10.9048 6.66667 10.0952 6.66667 9.14286H4.44444C4.44444 10.7238 4.9863 12.0716 6.07 13.1863C7.1537 14.301 8.4637 14.8579 10 14.8571ZM6.66667 5.71429H13.3333C13.3333 4.76191 13.0093 3.95238 12.3611 3.28572C11.713 2.61905 10.9259 2.28572 10 2.28572C9.07407 2.28572 8.28704 2.61905 7.63889 3.28572C6.99074 3.95238 6.66667 4.76191 6.66667 5.71429Z" fill="#7F0217"/>
</svg>
