<svg width="20" height="20" viewBox="0 0 20 20" fill="none" xmlns="http://www.w3.org/2000/svg">
<path d="M19.9438 2.31628C19.9152 1.72677 19.6681 1.16899 19.2506 0.751656C18.8331 0.334318 18.2751 0.0873174 17.6854 0.0587892C16.862 0.0235158 16.0739 0 15.3093 0C9.39269 0 5.28753 1.14051 3.00558 3.42152C-1.32307 7.74838 -0.699653 13.8859 3.11144 17.4133H3.12321C4.71961 12.9517 7.94156 9.25657 12.1452 7.06643C11.8981 7.27807 6.61671 11.2757 5.66394 19.1182C6.89901 19.6825 8.25172 20 9.61619 20C12.0275 20 14.5094 19.0594 16.5797 17.0018C19.1557 14.415 20.2731 9.52381 19.9438 2.31628Z" fill="#7F0217"/>
</svg>
