<svg width="753" height="737" viewBox="0 0 753 737" fill="none" xmlns="http://www.w3.org/2000/svg">
<g clip-path="url(#clip0_108_2909)">
<rect width="753" height="735.734" transform="translate(0 0.633057)" fill="#132C5E"/>
<path d="M167.56 576.296C282.349 692.194 469.358 693.092 585.255 578.302C701.152 463.513 702.05 276.504 587.261 160.607C472.471 44.7103 285.463 43.8122 169.566 158.602C53.6686 273.391 52.7706 460.399 167.56 576.296Z" fill="#1F4C93"/>
<path d="M377.413 368.45L649.741 482.786C681.374 407.445 679.403 326.398 650.656 256.331L377.646 367.885L377.413 368.45Z" fill="#173560"/>
<path d="M377.412 368.45L105.084 254.114C73.4512 329.455 75.4217 410.501 104.17 480.569L377.179 369.015L377.412 368.45Z" fill="#173560"/>
<path d="M377.412 368.45L265.226 95.2258C340.82 64.1831 421.845 66.788 491.681 96.0926L377.989 368.213L377.422 368.44L377.412 368.45Z" fill="#173560"/>
<path d="M377.413 368.45L489.609 641.664C414.015 672.707 332.99 670.102 263.154 640.797L376.846 368.677L377.413 368.45Z" fill="#173560"/>
<path d="M377.392 372.304L264.434 641.349L261.715 640.204L374.673 371.169L104.557 481.538L103.438 478.799L373.554 368.43L104.51 255.472L105.655 252.753L374.699 365.711L264.331 95.5943L267.06 94.4755L377.429 364.592L490.387 95.5479L493.106 96.6928L380.148 365.737L650.265 255.368L651.383 258.098L381.267 368.467L650.311 481.425L649.166 484.153L380.122 371.195L490.49 641.302L487.761 642.421L377.392 372.304Z" fill="white"/>
<g filter="url(#filter0_i_108_2909)">
<circle cx="379.763" cy="368.032" r="295.445" transform="rotate(90.2751 379.763 368.032)" fill="white" fill-opacity="0.01"/>
</g>
<path d="M355.757 495.236L389.772 495.4L387.947 487.832L395.765 485.884L399.427 498.353L399.395 504.856L355.722 504.646L355.767 495.227L355.757 495.236Z" fill="white"/>
<path d="M354.984 526.764C355.007 521.891 356.178 517.887 358.514 514.762C360.841 511.636 363.86 510.077 367.582 510.095L367.707 510.096C370.268 510.108 372.375 510.684 374.02 511.834C375.664 512.973 377.037 514.755 378.148 517.148C380.353 513.485 383.527 511.659 387.652 511.678L387.776 511.679C391.162 511.695 393.985 513.119 396.245 515.969C398.505 518.81 399.619 522.479 399.597 526.978C399.576 531.477 398.417 535.136 396.139 537.955C393.852 540.773 391.016 542.179 387.63 542.163L387.505 542.162C383.371 542.143 380.224 540.286 378.054 536.601C376.806 538.946 375.387 540.694 373.818 541.847C372.239 543 370.242 543.566 367.805 543.555L367.68 543.554C363.757 543.535 360.657 541.966 358.379 538.828C356.102 535.7 354.979 531.675 355.003 526.764L354.984 526.764ZM362.85 526.802C362.838 529.113 363.338 530.948 364.339 532.286C365.34 533.634 366.631 534.312 368.204 534.319L368.329 534.32C369.979 534.328 371.287 533.643 372.243 532.267C373.199 530.89 373.688 529.079 373.698 526.854C373.709 524.628 373.238 522.813 372.295 521.427C371.352 520.041 370.051 519.345 368.401 519.337L368.276 519.336C366.751 519.329 365.463 520.004 364.43 521.361C363.387 522.718 362.87 524.528 362.859 526.802L362.85 526.802ZM382.794 522.408C381.772 523.535 381.266 525.029 381.257 526.89C381.248 528.751 381.74 530.25 382.722 531.386C383.705 532.523 384.968 533.105 386.493 533.112L386.618 533.113C388.019 533.119 389.22 532.569 390.223 531.461C391.226 530.353 391.723 528.849 391.732 526.95C391.741 525.051 391.259 523.542 390.295 522.425C389.332 521.308 388.145 520.746 386.745 520.739L386.62 520.738C385.095 520.731 383.816 521.291 382.804 522.427L382.794 522.408Z" fill="white"/>
<path d="M354.672 565.726C354.699 559.98 356.832 555.357 361.06 551.848C365.288 548.338 370.629 546.599 377.066 546.63L377.191 546.63C383.589 546.661 388.923 548.48 393.184 552.098C397.445 555.715 399.552 560.368 399.524 566.066C399.497 571.764 397.355 576.329 393.108 579.877C388.861 583.425 383.528 585.193 377.13 585.163L377.005 585.162C370.607 585.131 365.273 583.312 361.012 579.694C356.751 576.077 354.644 571.424 354.672 565.726ZM367.222 559.004C364.614 560.747 363.299 563.043 363.285 565.892C363.271 568.741 364.536 571.03 367.089 572.759C369.642 574.489 372.918 575.358 376.928 575.377L377.052 575.378C381.014 575.397 384.318 574.521 386.945 572.759C389.572 570.997 390.898 568.711 390.911 565.9C390.925 563.09 389.66 560.81 387.107 559.062C384.554 557.313 381.278 556.434 377.268 556.415L377.144 556.414C373.134 556.395 369.83 557.252 367.222 558.995L367.222 559.004Z" fill="white"/>
<path d="M355.306 589.519L400.533 589.736L400.488 599.155L376.392 599.04L388.416 610.129L388.362 621.4L375.348 608.704L355.151 621.681L355.204 610.775L368.875 602.351L365.361 598.987L355.261 598.938L355.306 589.519Z" fill="white"/>
<path d="M391.354 227.72L383.795 227.684L372.027 213.191C369.729 210.331 367.859 208.355 366.415 207.274C364.972 206.193 363.382 205.648 361.656 205.639C359.929 205.631 358.44 206.152 357.466 207.202C356.492 208.253 355.996 209.66 355.988 211.435C355.98 213.046 356.414 214.506 357.3 215.806C358.186 217.105 359.675 218.618 361.768 220.316L356.345 226.976C353.258 224.65 350.995 222.279 349.568 219.884C348.131 217.479 347.426 214.444 347.444 210.77C347.465 206.31 348.701 202.709 351.151 199.977C353.6 197.246 356.849 195.89 360.897 195.909L361.022 195.91C364.408 195.926 367.214 196.764 369.432 198.425C371.659 200.085 374.426 203.072 377.753 207.386L383.168 214.472L383.258 195.575L391.498 195.615L391.344 227.701L391.354 227.72Z" fill="white"/>
<path d="M392.366 172.713C392.339 178.458 390.206 183.081 385.978 186.591C381.75 190.101 376.408 191.84 369.972 191.809L369.847 191.809C363.449 191.778 358.115 189.959 353.854 186.341C349.593 182.723 347.486 178.07 347.513 172.373C347.541 166.675 349.683 162.109 353.93 158.561C358.177 155.013 363.51 153.245 369.908 153.276L370.032 153.277C376.43 153.307 381.765 155.127 386.025 158.744C390.286 162.362 392.394 167.015 392.366 172.713ZM379.816 179.434C382.424 177.691 383.739 175.395 383.753 172.547C383.767 169.698 382.502 167.409 379.949 165.679C377.396 163.95 374.12 163.081 370.11 163.061L369.985 163.061C366.024 163.042 362.72 163.918 360.093 165.68C357.465 167.442 356.14 169.728 356.127 172.539C356.113 175.349 357.378 177.629 359.931 179.368C362.484 181.116 365.76 181.995 369.77 182.014L369.894 182.015C373.904 182.034 377.208 181.177 379.816 179.434Z" fill="white"/>
<path d="M391.732 148.92L346.505 148.703L346.55 139.284L370.646 139.399L358.622 128.31L358.676 117.039L371.69 129.735L391.887 116.767L391.834 127.673L378.163 136.097L381.677 139.462L391.778 139.51L391.732 148.93L391.732 148.92Z" fill="white"/>
<path d="M254.022 346.909L253.859 380.923L261.426 379.099L263.375 386.916L250.906 390.578L244.402 390.547L244.612 346.873L254.032 346.919L254.022 346.909Z" fill="white"/>
<path d="M238.973 346.837L238.936 354.395L224.443 366.163C221.583 368.461 219.608 370.332 218.526 371.775C217.445 373.218 216.9 374.808 216.892 376.534C216.884 378.261 217.404 379.75 218.455 380.724C219.505 381.698 220.913 382.194 222.687 382.203C224.299 382.21 225.759 381.776 227.058 380.89C228.367 380.004 229.871 378.515 231.569 376.423L238.229 381.846C235.902 384.933 233.532 387.195 231.136 388.622C228.731 390.059 225.697 390.764 222.023 390.746C217.563 390.725 213.962 389.489 211.23 387.04C208.498 384.59 207.142 381.341 207.162 377.293L207.162 377.169C207.179 373.783 208.017 370.976 209.678 368.759C211.338 366.541 214.325 363.764 218.638 360.437L225.725 355.023L206.828 354.932L206.867 346.692L238.953 346.846L238.973 346.837Z" fill="white"/>
<path d="M183.964 345.835C189.71 345.862 194.333 347.995 197.843 352.223C201.352 356.451 203.092 361.792 203.061 368.229L203.06 368.353C203.03 374.751 201.21 380.086 197.593 384.347C193.975 388.607 189.322 390.715 183.624 390.687C177.926 390.66 173.361 388.518 169.813 384.271C166.265 380.023 164.497 374.691 164.528 368.293L164.528 368.168C164.559 361.77 166.378 356.436 169.996 352.175C173.614 347.914 178.267 345.807 183.964 345.835ZM190.686 358.375C188.943 355.767 186.647 354.452 183.798 354.438C180.949 354.425 178.66 355.689 176.931 358.242C175.202 360.795 174.332 364.072 174.313 368.081L174.312 368.206C174.293 372.167 175.17 375.471 176.932 378.099C178.694 380.726 180.98 382.051 183.79 382.064C186.601 382.078 188.88 380.813 190.629 378.26C192.377 375.708 193.256 372.431 193.276 368.422L193.276 368.297C193.296 364.287 192.438 360.983 190.696 358.375L190.686 358.375Z" fill="white"/>
<path d="M160.172 346.458L159.955 391.686L150.535 391.641L150.651 367.545L139.562 379.569L128.291 379.514L140.996 366.501L128.019 346.304L138.925 346.356L147.349 360.028L150.714 356.514L150.762 346.413L160.182 346.458L160.172 346.458Z" fill="white"/>
<path d="M517.949 382.499L537.504 347.465L517.12 347.367L517.16 339.128L548.383 339.278L548.348 346.462L528.721 382.551L517.94 382.499L517.949 382.499Z" fill="white"/>
<path d="M569.302 383.495C563.556 383.467 558.933 381.334 555.423 377.106C551.914 372.878 550.174 367.537 550.205 361.1L550.206 360.976C550.237 354.578 552.056 349.243 555.674 344.982C559.291 340.722 563.944 338.605 569.642 338.632C575.34 338.66 579.905 340.801 583.453 345.049C587.001 349.296 588.769 354.628 588.739 361.026L588.738 361.151C588.707 367.549 586.888 372.883 583.27 377.144C579.653 381.405 575 383.512 569.302 383.485L569.302 383.495ZM562.58 370.944C564.323 373.552 566.619 374.868 569.468 374.881C572.317 374.895 574.606 373.63 576.335 371.077C578.065 368.524 578.934 365.248 578.953 361.238L578.954 361.114C578.973 357.152 578.097 353.848 576.335 351.221C574.573 348.594 572.286 347.268 569.476 347.255C566.665 347.241 564.386 348.506 562.647 351.059C560.908 353.612 560.019 356.888 560 360.898L560 361.023C559.98 365.032 560.837 368.336 562.58 370.944Z" fill="white"/>
<path d="M593.095 382.86L593.312 337.633L602.731 337.678L602.616 361.774L613.705 349.75L624.976 349.804L612.28 362.818L625.257 383.015L614.351 382.962L605.927 369.291L602.563 372.805L602.514 382.906L593.095 382.86Z" fill="white"/>
<path d="M473.135 485.892L497.299 461.96L490.661 457.899L494.809 450.994L506.214 457.226L510.786 461.843L479.751 492.581L473.126 485.892L473.135 485.892Z" fill="white"/>
<path d="M496.929 510.976C492.891 506.899 491.12 502.123 491.635 496.648C492.141 491.173 494.688 486.168 499.266 481.634L499.353 481.548C503.902 477.042 508.96 474.563 514.525 474.11C520.091 473.657 524.879 475.455 528.888 479.503C532.898 483.551 534.611 488.288 534.124 493.811C533.628 499.324 531.11 504.339 526.56 508.845L526.474 508.931C521.924 513.436 516.867 515.916 511.301 516.369C505.735 516.821 500.948 515.024 496.938 510.976L496.929 510.976ZM501.042 497.345C500.433 500.422 501.121 502.977 503.125 505.001C505.13 507.025 507.649 507.747 510.674 507.157C513.698 506.567 516.632 504.874 519.485 502.048L519.572 501.962C522.386 499.175 524.108 496.219 524.717 493.114C525.327 490.009 524.649 487.454 522.673 485.459C520.697 483.464 518.187 482.751 515.143 483.322C512.1 483.892 509.156 485.586 506.313 488.402L506.226 488.488C503.383 491.304 501.652 494.26 501.032 497.336L501.042 497.345Z" fill="white"/>
<path d="M514.194 527.356L546.328 495.529L552.953 502.218L535.826 519.182L552.165 518.512L560.098 526.522L541.919 526.741L536.808 550.199L529.133 542.45L532.844 526.832L527.98 526.943L520.809 534.045L514.184 527.356L514.194 527.356Z" fill="white"/>
<path d="M258.769 449.235C263.231 444.815 268.595 442.549 274.879 442.435L275.622 451.379C270.95 451.586 267.394 452.903 264.956 455.318C263.346 456.912 262.446 458.529 262.256 460.168C262.076 461.798 262.663 463.307 264.028 464.685L264.114 464.772C265.393 466.063 266.906 466.589 268.644 466.348C270.381 466.107 272.074 465.175 273.712 463.542C275.476 461.795 276.81 459.72 277.733 457.298L284.224 456.015L298.382 472.073L279.452 490.822L273.572 484.875L286.689 471.883L281.767 466.209C280.703 467.96 279.535 469.47 278.244 470.749C275.044 473.918 271.63 475.667 268.012 476.004C264.394 476.342 260.948 474.858 257.693 471.571L257.607 471.484C254.38 468.226 252.882 464.584 253.103 460.556C253.324 456.528 255.212 452.758 258.769 449.235Z" fill="white"/>
<path d="M230.645 477.091C234.722 473.053 239.498 471.282 244.973 471.797C250.448 472.313 255.453 474.85 259.987 479.428L260.073 479.515C264.579 484.064 267.058 489.122 267.511 494.688C267.964 500.254 266.166 505.041 262.118 509.051C258.07 513.06 253.333 514.773 247.81 514.286C242.287 513.8 237.282 511.272 232.776 506.723L232.69 506.636C228.185 502.087 225.705 497.029 225.252 491.463C224.8 485.897 226.597 481.11 230.645 477.1L230.645 477.091ZM244.266 481.214C241.19 480.604 238.635 481.292 236.611 483.297C234.587 485.302 233.865 487.821 234.455 490.846C235.035 493.87 236.738 496.804 239.563 499.657L239.649 499.743C242.437 502.558 245.393 504.28 248.498 504.889C251.603 505.499 254.158 504.82 256.153 502.844C258.148 500.868 258.86 498.358 258.29 495.325C257.719 492.281 256.026 489.338 253.21 486.494L253.124 486.408C250.308 483.564 247.352 481.833 244.276 481.214L244.266 481.214Z" fill="white"/>
<path d="M214.264 494.364L246.091 526.499L239.402 533.124L222.438 516.006L223.108 532.345L215.098 540.278L214.879 522.099L191.421 516.989L199.17 509.314L214.788 513.024L214.677 508.16L207.575 500.99L214.264 494.364Z" fill="white"/>
<path d="M487.825 279.542L463.893 255.379L459.832 262.017L452.926 257.868L459.158 246.464L463.775 241.882L494.514 272.917L487.825 279.542Z" fill="white"/>
<path d="M510.316 258.315C505.854 262.735 500.49 265.002 494.207 265.115L493.463 256.172C498.136 255.964 501.691 254.647 504.13 252.232C505.739 250.638 506.639 249.021 506.829 247.382C507.01 245.752 506.422 244.243 505.057 242.865L504.971 242.778C503.692 241.487 502.179 240.961 500.441 241.202C498.704 241.443 497.011 242.375 495.373 244.008C493.609 245.755 492.275 247.83 491.352 250.252L484.862 251.535L470.704 235.477L489.633 216.728L495.523 222.665L482.406 235.658L487.328 241.331C488.382 239.581 489.559 238.071 490.851 236.792C494.051 233.622 497.465 231.874 501.083 231.536C504.71 231.208 508.147 232.683 511.402 235.97L511.488 236.056C514.715 239.314 516.213 242.957 515.992 246.985C515.771 251.012 513.882 254.783 510.336 258.305L510.316 258.315Z" fill="white"/>
<path d="M538.441 230.459C534.364 234.497 529.588 236.268 524.113 235.753C518.638 235.247 513.633 232.7 509.099 228.122L509.013 228.035C504.507 223.486 502.028 218.428 501.575 212.862C501.122 207.297 502.92 202.509 506.968 198.5C511.016 194.49 515.753 192.777 521.276 193.264C526.789 193.76 531.804 196.278 536.31 200.828L536.396 200.914C540.901 205.464 543.381 210.521 543.834 216.087C544.286 221.653 542.489 226.44 538.441 230.45L538.441 230.459ZM524.81 226.336C527.887 226.946 530.442 226.258 532.466 224.253C534.49 222.248 535.212 219.729 534.622 216.705C534.032 213.68 532.339 210.737 529.513 207.893L529.427 207.807C526.64 204.992 523.684 203.28 520.579 202.661C517.474 202.051 514.919 202.73 512.924 204.706C510.929 206.682 510.216 209.192 510.787 212.235C511.357 215.279 513.051 218.222 515.867 221.065L515.953 221.152C518.769 223.995 521.725 225.727 524.801 226.346L524.81 226.336Z" fill="white"/>
<path d="M554.821 213.186L522.994 181.052L529.683 174.427L546.637 191.554L545.967 175.215L553.977 167.282L554.197 185.461L577.654 190.571L569.905 198.246L554.287 194.535L554.398 199.399L561.501 206.57L554.812 213.195L554.821 213.186Z" fill="white"/>
<path d="M302.957 255.643L281.541 282.062L288.581 285.377L285.209 292.693L273.194 287.738L268.137 283.648L295.644 249.715L302.957 255.643Z" fill="white"/>
<path d="M279.409 235.595C284.288 239.55 287.125 244.635 287.922 250.869L279.112 252.581C278.397 247.959 276.702 244.568 274.036 242.406C272.276 240.98 270.571 240.261 268.92 240.251C267.28 240.248 265.845 240.997 264.623 242.504L264.546 242.598C263.401 244.011 263.044 245.572 263.472 247.273C263.901 248.974 265.012 250.555 266.813 252.006C268.741 253.569 270.949 254.669 273.458 255.323L275.439 261.636L261.016 277.457L240.319 260.68L245.581 254.178L259.923 265.805L265.027 260.294C263.173 259.437 261.544 258.431 260.131 257.286C256.633 254.45 254.523 251.247 253.794 247.687C253.073 244.117 254.165 240.54 257.078 236.946L257.155 236.852C260.043 233.29 263.501 231.404 267.529 231.185C271.556 230.967 275.51 232.434 279.397 235.577L279.409 235.595Z" fill="white"/>
<path d="M248.658 210.668C253.116 214.281 255.396 218.836 255.479 224.335C255.572 229.832 253.585 235.084 249.527 240.09L249.45 240.185C245.418 245.159 240.66 248.174 235.177 249.229C229.693 250.285 224.739 249.019 220.313 245.431C215.887 241.843 213.668 237.321 213.551 231.777C213.445 226.243 215.402 220.984 219.434 216.01L219.511 215.915C223.543 210.941 228.301 207.927 233.785 206.871C239.268 205.815 244.223 207.081 248.649 210.669L248.658 210.668ZM246.043 224.666C246.314 221.542 245.352 219.077 243.139 217.283C240.926 215.489 238.343 215.045 235.401 215.961C232.458 216.876 229.717 218.88 227.198 221.998L227.121 222.093C224.626 225.17 223.246 228.294 222.968 231.448C222.7 234.601 223.652 237.067 225.834 238.835C228.015 240.604 230.588 241.039 233.551 240.14C236.514 239.242 239.256 237.239 241.776 234.13L241.853 234.035C244.373 230.926 245.773 227.8 246.053 224.674L246.043 224.666Z" fill="white"/>
<path d="M229.706 196.264L201.225 231.398L193.912 225.47L209.093 206.753L192.923 209.196L184.166 202.097L202.213 199.901L204.741 176.027L213.213 182.895L211.224 198.824L216.047 198.184L222.403 190.344L229.716 196.272L229.706 196.264Z" fill="white"/>
<g filter="url(#filter1_d_108_2909)">
<path d="M374.101 123.416L347.242 60.106L400.959 60.106L374.101 123.416Z" fill="#DB1D31"/>
<path d="M347.967 60.5854L400.234 60.5854L374.102 122.187L347.967 60.5854Z" stroke="url(#paint0_linear_108_2909)" stroke-opacity="0.55" stroke-width="0.959236"/>
</g>
<g clip-path="url(#paint1_diamond_108_2909_clip_path)" data-figma-skip-parse="true"><g transform="matrix(0.13013 0.352198 -0.391709 0.144729 248.768 344.998)"><rect x="0" y="0" width="1306.1" height="1284.4" fill="url(#paint1_diamond_108_2909)" opacity="1" shape-rendering="crispEdges"/><rect x="0" y="0" width="1306.1" height="1284.4" transform="scale(1 -1)" fill="url(#paint1_diamond_108_2909)" opacity="1" shape-rendering="crispEdges"/><rect x="0" y="0" width="1306.1" height="1284.4" transform="scale(-1 1)" fill="url(#paint1_diamond_108_2909)" opacity="1" shape-rendering="crispEdges"/><rect x="0" y="0" width="1306.1" height="1284.4" transform="scale(-1)" fill="url(#paint1_diamond_108_2909)" opacity="1" shape-rendering="crispEdges"/></g></g><path d="M378.898 41.0789C197.717 41.0789 50.8398 187.961 50.8398 369.141C50.8398 550.321 197.717 697.196 378.898 697.196C560.08 697.196 706.957 550.321 706.957 369.141C706.957 187.961 560.08 41.0789 378.898 41.0789ZM378.898 663.087C216.547 663.087 84.9421 531.483 84.9421 369.141C84.9421 206.799 216.547 75.1877 378.898 75.1877C541.25 75.1877 672.848 206.792 672.848 369.141C672.848 531.49 541.243 663.087 378.898 663.087Z" data-figma-gradient-fill="{&#34;type&#34;:&#34;GRADIENT_DIAMOND&#34;,&#34;stops&#34;:[{&#34;color&#34;:{&#34;r&#34;:0.20726238191127777,&#34;g&#34;:0.47628051042556763,&#34;b&#34;:0.87980771064758301,&#34;a&#34;:1.0},&#34;position&#34;:0.0},{&#34;color&#34;:{&#34;r&#34;:0.13059356808662415,&#34;g&#34;:0.27503004670143127,&#34;b&#34;:0.54326921701431274,&#34;a&#34;:1.0},&#34;position&#34;:1.0}],&#34;stopsVar&#34;:[{&#34;color&#34;:{&#34;r&#34;:0.20726238191127777,&#34;g&#34;:0.47628051042556763,&#34;b&#34;:0.87980771064758301,&#34;a&#34;:1.0},&#34;position&#34;:0.0},{&#34;color&#34;:{&#34;r&#34;:0.13059356808662415,&#34;g&#34;:0.27503004670143127,&#34;b&#34;:0.54326921701431274,&#34;a&#34;:1.0},&#34;position&#34;:1.0}],&#34;transform&#34;:{&#34;m00&#34;:260.26016235351562,&#34;m01&#34;:-783.41711425781250,&#34;m02&#34;:510.34686279296875,&#34;m10&#34;:704.39550781250,&#34;m11&#34;:289.45706176757812,&#34;m12&#34;:-151.92802429199219},&#34;opacity&#34;:1.0,&#34;blendMode&#34;:&#34;NORMAL&#34;,&#34;visible&#34;:true}"/>
<g filter="url(#filter2_dif_108_2909)">
<circle cx="372.988" cy="57.2276" r="13.4293" fill="#FFAB36"/>
</g>
<g filter="url(#filter3_f_108_2909)">
<circle cx="372.988" cy="57.2276" r="13.4293" fill="#FFAB36"/>
</g>
<g filter="url(#filter4_dif_108_2909)">
<circle cx="372.988" cy="680.731" r="13.4293" fill="#FFAB36"/>
</g>
<g filter="url(#filter5_f_108_2909)">
<circle cx="372.988" cy="680.731" r="13.4293" fill="#FFAB36"/>
</g>
<g filter="url(#filter6_dif_108_2909)">
<circle cx="67.9496" cy="368.979" r="13.4293" transform="rotate(90 67.9496 368.979)" fill="#FFAB36"/>
</g>
<g filter="url(#filter7_f_108_2909)">
<circle cx="67.9496" cy="368.979" r="13.4293" transform="rotate(90 67.9496 368.979)" fill="#FFAB36"/>
</g>
<g filter="url(#filter8_dif_108_2909)">
<circle cx="691.453" cy="368.979" r="13.4293" transform="rotate(90 691.453 368.979)" fill="#FFAB36"/>
</g>
<g filter="url(#filter9_f_108_2909)">
<circle cx="691.453" cy="368.979" r="13.4293" transform="rotate(90 691.453 368.979)" fill="#FFAB36"/>
</g>
<g filter="url(#filter10_dif_108_2909)">
<circle cx="157.928" cy="589.421" r="13.4293" transform="rotate(45 157.928 589.421)" fill="#FFAB36"/>
</g>
<g filter="url(#filter11_f_108_2909)">
<circle cx="157.928" cy="589.421" r="13.4293" transform="rotate(45 157.928 589.421)" fill="#FFAB36"/>
</g>
<g filter="url(#filter12_dif_108_2909)">
<circle cx="598.809" cy="148.538" r="13.4293" transform="rotate(45 598.809 148.538)" fill="#FFAB36"/>
</g>
<g filter="url(#filter13_f_108_2909)">
<circle cx="598.809" cy="148.538" r="13.4293" transform="rotate(45 598.809 148.538)" fill="#FFAB36"/>
</g>
<g filter="url(#filter14_dif_108_2909)">
<circle cx="598.81" cy="589.421" r="13.4293" transform="rotate(-45 598.81 589.421)" fill="#FFAB36"/>
</g>
<g filter="url(#filter15_f_108_2909)">
<circle cx="598.81" cy="589.421" r="13.4293" transform="rotate(-45 598.81 589.421)" fill="#FFAB36"/>
</g>
<g filter="url(#filter16_dif_108_2909)">
<circle cx="157.925" cy="148.538" r="13.4293" transform="rotate(-45 157.925 148.538)" fill="#FFAB36"/>
</g>
<g filter="url(#filter17_f_108_2909)">
<circle cx="157.925" cy="148.538" r="13.4293" transform="rotate(-45 157.925 148.538)" fill="#FFAB36"/>
</g>
<g filter="url(#filter18_d_108_2909)">
<circle cx="377.94" cy="368.02" r="45.0841" fill="#D9D9D9"/>
<circle cx="377.94" cy="368.02" r="45.0841" fill="url(#paint2_radial_108_2909)"/>
</g>
</g>
<defs>
<filter id="filter0_i_108_2909" x="84.3184" y="72.5872" width="590.889" height="591.848" filterUnits="userSpaceOnUse" color-interpolation-filters="sRGB">
<feFlood flood-opacity="0" result="BackgroundImageFix"/>
<feBlend mode="normal" in="SourceGraphic" in2="BackgroundImageFix" result="shape"/>
<feColorMatrix in="SourceAlpha" type="matrix" values="0 0 0 0 0 0 0 0 0 0 0 0 0 0 0 0 0 0 127 0" result="hardAlpha"/>
<feOffset dy="0.959236"/>
<feGaussianBlur stdDeviation="54.8683"/>
<feComposite in2="hardAlpha" operator="arithmetic" k2="-1" k3="1"/>
<feColorMatrix type="matrix" values="0 0 0 0 0 0 0 0 0 0 0 0 0 0 0 0 0 0 0.65 0"/>
<feBlend mode="normal" in2="shape" result="effect1_innerShadow_108_2909"/>
</filter>
<filter id="filter1_d_108_2909" x="343.405" y="60.106" width="61.3907" height="70.9835" filterUnits="userSpaceOnUse" color-interpolation-filters="sRGB">
<feFlood flood-opacity="0" result="BackgroundImageFix"/>
<feColorMatrix in="SourceAlpha" type="matrix" values="0 0 0 0 0 0 0 0 0 0 0 0 0 0 0 0 0 0 127 0" result="hardAlpha"/>
<feOffset dy="3.83694"/>
<feGaussianBlur stdDeviation="1.91847"/>
<feComposite in2="hardAlpha" operator="out"/>
<feColorMatrix type="matrix" values="0 0 0 0 0 0 0 0 0 0 0 0 0 0 0 0 0 0 0.25 0"/>
<feBlend mode="normal" in2="BackgroundImageFix" result="effect1_dropShadow_108_2909"/>
<feBlend mode="normal" in="SourceGraphic" in2="effect1_dropShadow_108_2909" result="shape"/>
</filter>
<clipPath id="paint1_diamond_108_2909_clip_path"><path d="M378.898 41.0789C197.717 41.0789 50.8398 187.961 50.8398 369.141C50.8398 550.321 197.717 697.196 378.898 697.196C560.08 697.196 706.957 550.321 706.957 369.141C706.957 187.961 560.08 41.0789 378.898 41.0789ZM378.898 663.087C216.547 663.087 84.9421 531.483 84.9421 369.141C84.9421 206.799 216.547 75.1877 378.898 75.1877C541.25 75.1877 672.848 206.792 672.848 369.141C672.848 531.49 541.243 663.087 378.898 663.087Z"/></clipPath><filter id="filter2_dif_108_2909" x="346.897" y="31.1364" width="52.1832" height="52.1825" filterUnits="userSpaceOnUse" color-interpolation-filters="sRGB">
<feFlood flood-opacity="0" result="BackgroundImageFix"/>
<feColorMatrix in="SourceAlpha" type="matrix" values="0 0 0 0 0 0 0 0 0 0 0 0 0 0 0 0 0 0 127 0" result="hardAlpha"/>
<feOffset/>
<feGaussianBlur stdDeviation="6.33096"/>
<feComposite in2="hardAlpha" operator="out"/>
<feColorMatrix type="matrix" values="0 0 0 0 1 0 0 0 0 0.670588 0 0 0 0 0.211765 0 0 0 1 0"/>
<feBlend mode="normal" in2="BackgroundImageFix" result="effect1_dropShadow_108_2909"/>
<feBlend mode="normal" in="SourceGraphic" in2="effect1_dropShadow_108_2909" result="shape"/>
<feColorMatrix in="SourceAlpha" type="matrix" values="0 0 0 0 0 0 0 0 0 0 0 0 0 0 0 0 0 0 127 0" result="hardAlpha"/>
<feMorphology radius="2.87771" operator="dilate" in="SourceAlpha" result="effect2_innerShadow_108_2909"/>
<feOffset dx="0.959236" dy="7.67389"/>
<feGaussianBlur stdDeviation="1.91847"/>
<feComposite in2="hardAlpha" operator="arithmetic" k2="-1" k3="1"/>
<feColorMatrix type="matrix" values="0 0 0 0 1 0 0 0 0 1 0 0 0 0 1 0 0 0 0.25 0"/>
<feBlend mode="normal" in2="shape" result="effect2_innerShadow_108_2909"/>
<feGaussianBlur stdDeviation="0.52758" result="effect3_foregroundBlur_108_2909"/>
</filter>
<filter id="filter3_f_108_2909" x="332.508" y="16.7479" width="80.9603" height="80.9595" filterUnits="userSpaceOnUse" color-interpolation-filters="sRGB">
<feFlood flood-opacity="0" result="BackgroundImageFix"/>
<feBlend mode="normal" in="SourceGraphic" in2="BackgroundImageFix" result="shape"/>
<feGaussianBlur stdDeviation="13.5252" result="effect1_foregroundBlur_108_2909"/>
</filter>
<filter id="filter4_dif_108_2909" x="346.897" y="654.64" width="52.1832" height="52.1825" filterUnits="userSpaceOnUse" color-interpolation-filters="sRGB">
<feFlood flood-opacity="0" result="BackgroundImageFix"/>
<feColorMatrix in="SourceAlpha" type="matrix" values="0 0 0 0 0 0 0 0 0 0 0 0 0 0 0 0 0 0 127 0" result="hardAlpha"/>
<feOffset/>
<feGaussianBlur stdDeviation="6.33096"/>
<feComposite in2="hardAlpha" operator="out"/>
<feColorMatrix type="matrix" values="0 0 0 0 1 0 0 0 0 0.670588 0 0 0 0 0.211765 0 0 0 1 0"/>
<feBlend mode="normal" in2="BackgroundImageFix" result="effect1_dropShadow_108_2909"/>
<feBlend mode="normal" in="SourceGraphic" in2="effect1_dropShadow_108_2909" result="shape"/>
<feColorMatrix in="SourceAlpha" type="matrix" values="0 0 0 0 0 0 0 0 0 0 0 0 0 0 0 0 0 0 127 0" result="hardAlpha"/>
<feMorphology radius="2.87771" operator="dilate" in="SourceAlpha" result="effect2_innerShadow_108_2909"/>
<feOffset dx="0.959236" dy="7.67389"/>
<feGaussianBlur stdDeviation="1.91847"/>
<feComposite in2="hardAlpha" operator="arithmetic" k2="-1" k3="1"/>
<feColorMatrix type="matrix" values="0 0 0 0 1 0 0 0 0 1 0 0 0 0 1 0 0 0 0.25 0"/>
<feBlend mode="normal" in2="shape" result="effect2_innerShadow_108_2909"/>
<feGaussianBlur stdDeviation="0.52758" result="effect3_foregroundBlur_108_2909"/>
</filter>
<filter id="filter5_f_108_2909" x="332.508" y="640.251" width="80.9603" height="80.9595" filterUnits="userSpaceOnUse" color-interpolation-filters="sRGB">
<feFlood flood-opacity="0" result="BackgroundImageFix"/>
<feBlend mode="normal" in="SourceGraphic" in2="BackgroundImageFix" result="shape"/>
<feGaussianBlur stdDeviation="13.5252" result="effect1_foregroundBlur_108_2909"/>
</filter>
<filter id="filter6_dif_108_2909" x="41.8576" y="342.888" width="52.1832" height="52.1825" filterUnits="userSpaceOnUse" color-interpolation-filters="sRGB">
<feFlood flood-opacity="0" result="BackgroundImageFix"/>
<feColorMatrix in="SourceAlpha" type="matrix" values="0 0 0 0 0 0 0 0 0 0 0 0 0 0 0 0 0 0 127 0" result="hardAlpha"/>
<feOffset/>
<feGaussianBlur stdDeviation="6.33096"/>
<feComposite in2="hardAlpha" operator="out"/>
<feColorMatrix type="matrix" values="0 0 0 0 1 0 0 0 0 0.670588 0 0 0 0 0.211765 0 0 0 1 0"/>
<feBlend mode="normal" in2="BackgroundImageFix" result="effect1_dropShadow_108_2909"/>
<feBlend mode="normal" in="SourceGraphic" in2="effect1_dropShadow_108_2909" result="shape"/>
<feColorMatrix in="SourceAlpha" type="matrix" values="0 0 0 0 0 0 0 0 0 0 0 0 0 0 0 0 0 0 127 0" result="hardAlpha"/>
<feMorphology radius="2.87771" operator="dilate" in="SourceAlpha" result="effect2_innerShadow_108_2909"/>
<feOffset dx="0.959236" dy="7.67389"/>
<feGaussianBlur stdDeviation="1.91847"/>
<feComposite in2="hardAlpha" operator="arithmetic" k2="-1" k3="1"/>
<feColorMatrix type="matrix" values="0 0 0 0 1 0 0 0 0 1 0 0 0 0 1 0 0 0 0.25 0"/>
<feBlend mode="normal" in2="shape" result="effect2_innerShadow_108_2909"/>
<feGaussianBlur stdDeviation="0.52758" result="effect3_foregroundBlur_108_2909"/>
</filter>
<filter id="filter7_f_108_2909" x="27.4691" y="328.5" width="80.9603" height="80.9595" filterUnits="userSpaceOnUse" color-interpolation-filters="sRGB">
<feFlood flood-opacity="0" result="BackgroundImageFix"/>
<feBlend mode="normal" in="SourceGraphic" in2="BackgroundImageFix" result="shape"/>
<feGaussianBlur stdDeviation="13.5252" result="effect1_foregroundBlur_108_2909"/>
</filter>
<filter id="filter8_dif_108_2909" x="665.362" y="342.888" width="52.1832" height="52.1825" filterUnits="userSpaceOnUse" color-interpolation-filters="sRGB">
<feFlood flood-opacity="0" result="BackgroundImageFix"/>
<feColorMatrix in="SourceAlpha" type="matrix" values="0 0 0 0 0 0 0 0 0 0 0 0 0 0 0 0 0 0 127 0" result="hardAlpha"/>
<feOffset/>
<feGaussianBlur stdDeviation="6.33096"/>
<feComposite in2="hardAlpha" operator="out"/>
<feColorMatrix type="matrix" values="0 0 0 0 1 0 0 0 0 0.670588 0 0 0 0 0.211765 0 0 0 1 0"/>
<feBlend mode="normal" in2="BackgroundImageFix" result="effect1_dropShadow_108_2909"/>
<feBlend mode="normal" in="SourceGraphic" in2="effect1_dropShadow_108_2909" result="shape"/>
<feColorMatrix in="SourceAlpha" type="matrix" values="0 0 0 0 0 0 0 0 0 0 0 0 0 0 0 0 0 0 127 0" result="hardAlpha"/>
<feMorphology radius="2.87771" operator="dilate" in="SourceAlpha" result="effect2_innerShadow_108_2909"/>
<feOffset dx="0.959236" dy="7.67389"/>
<feGaussianBlur stdDeviation="1.91847"/>
<feComposite in2="hardAlpha" operator="arithmetic" k2="-1" k3="1"/>
<feColorMatrix type="matrix" values="0 0 0 0 1 0 0 0 0 1 0 0 0 0 1 0 0 0 0.25 0"/>
<feBlend mode="normal" in2="shape" result="effect2_innerShadow_108_2909"/>
<feGaussianBlur stdDeviation="0.52758" result="effect3_foregroundBlur_108_2909"/>
</filter>
<filter id="filter9_f_108_2909" x="650.973" y="328.5" width="80.9603" height="80.9595" filterUnits="userSpaceOnUse" color-interpolation-filters="sRGB">
<feFlood flood-opacity="0" result="BackgroundImageFix"/>
<feBlend mode="normal" in="SourceGraphic" in2="BackgroundImageFix" result="shape"/>
<feGaussianBlur stdDeviation="13.5252" result="effect1_foregroundBlur_108_2909"/>
</filter>
<filter id="filter10_dif_108_2909" x="131.836" y="563.33" width="52.1832" height="52.1825" filterUnits="userSpaceOnUse" color-interpolation-filters="sRGB">
<feFlood flood-opacity="0" result="BackgroundImageFix"/>
<feColorMatrix in="SourceAlpha" type="matrix" values="0 0 0 0 0 0 0 0 0 0 0 0 0 0 0 0 0 0 127 0" result="hardAlpha"/>
<feOffset/>
<feGaussianBlur stdDeviation="6.33096"/>
<feComposite in2="hardAlpha" operator="out"/>
<feColorMatrix type="matrix" values="0 0 0 0 1 0 0 0 0 0.670588 0 0 0 0 0.211765 0 0 0 1 0"/>
<feBlend mode="normal" in2="BackgroundImageFix" result="effect1_dropShadow_108_2909"/>
<feBlend mode="normal" in="SourceGraphic" in2="effect1_dropShadow_108_2909" result="shape"/>
<feColorMatrix in="SourceAlpha" type="matrix" values="0 0 0 0 0 0 0 0 0 0 0 0 0 0 0 0 0 0 127 0" result="hardAlpha"/>
<feMorphology radius="2.87771" operator="dilate" in="SourceAlpha" result="effect2_innerShadow_108_2909"/>
<feOffset dx="0.959236" dy="7.67389"/>
<feGaussianBlur stdDeviation="1.91847"/>
<feComposite in2="hardAlpha" operator="arithmetic" k2="-1" k3="1"/>
<feColorMatrix type="matrix" values="0 0 0 0 1 0 0 0 0 1 0 0 0 0 1 0 0 0 0.25 0"/>
<feBlend mode="normal" in2="shape" result="effect2_innerShadow_108_2909"/>
<feGaussianBlur stdDeviation="0.52758" result="effect3_foregroundBlur_108_2909"/>
</filter>
<filter id="filter11_f_108_2909" x="117.448" y="548.941" width="80.9603" height="80.9595" filterUnits="userSpaceOnUse" color-interpolation-filters="sRGB">
<feFlood flood-opacity="0" result="BackgroundImageFix"/>
<feBlend mode="normal" in="SourceGraphic" in2="BackgroundImageFix" result="shape"/>
<feGaussianBlur stdDeviation="13.5252" result="effect1_foregroundBlur_108_2909"/>
</filter>
<filter id="filter12_dif_108_2909" x="572.717" y="122.446" width="52.1832" height="52.1825" filterUnits="userSpaceOnUse" color-interpolation-filters="sRGB">
<feFlood flood-opacity="0" result="BackgroundImageFix"/>
<feColorMatrix in="SourceAlpha" type="matrix" values="0 0 0 0 0 0 0 0 0 0 0 0 0 0 0 0 0 0 127 0" result="hardAlpha"/>
<feOffset/>
<feGaussianBlur stdDeviation="6.33096"/>
<feComposite in2="hardAlpha" operator="out"/>
<feColorMatrix type="matrix" values="0 0 0 0 1 0 0 0 0 0.670588 0 0 0 0 0.211765 0 0 0 1 0"/>
<feBlend mode="normal" in2="BackgroundImageFix" result="effect1_dropShadow_108_2909"/>
<feBlend mode="normal" in="SourceGraphic" in2="effect1_dropShadow_108_2909" result="shape"/>
<feColorMatrix in="SourceAlpha" type="matrix" values="0 0 0 0 0 0 0 0 0 0 0 0 0 0 0 0 0 0 127 0" result="hardAlpha"/>
<feMorphology radius="2.87771" operator="dilate" in="SourceAlpha" result="effect2_innerShadow_108_2909"/>
<feOffset dx="0.959236" dy="7.67389"/>
<feGaussianBlur stdDeviation="1.91847"/>
<feComposite in2="hardAlpha" operator="arithmetic" k2="-1" k3="1"/>
<feColorMatrix type="matrix" values="0 0 0 0 1 0 0 0 0 1 0 0 0 0 1 0 0 0 0.25 0"/>
<feBlend mode="normal" in2="shape" result="effect2_innerShadow_108_2909"/>
<feGaussianBlur stdDeviation="0.52758" result="effect3_foregroundBlur_108_2909"/>
</filter>
<filter id="filter13_f_108_2909" x="558.328" y="108.058" width="80.9603" height="80.9595" filterUnits="userSpaceOnUse" color-interpolation-filters="sRGB">
<feFlood flood-opacity="0" result="BackgroundImageFix"/>
<feBlend mode="normal" in="SourceGraphic" in2="BackgroundImageFix" result="shape"/>
<feGaussianBlur stdDeviation="13.5252" result="effect1_foregroundBlur_108_2909"/>
</filter>
<filter id="filter14_dif_108_2909" x="572.719" y="563.33" width="52.1832" height="52.1822" filterUnits="userSpaceOnUse" color-interpolation-filters="sRGB">
<feFlood flood-opacity="0" result="BackgroundImageFix"/>
<feColorMatrix in="SourceAlpha" type="matrix" values="0 0 0 0 0 0 0 0 0 0 0 0 0 0 0 0 0 0 127 0" result="hardAlpha"/>
<feOffset/>
<feGaussianBlur stdDeviation="6.33096"/>
<feComposite in2="hardAlpha" operator="out"/>
<feColorMatrix type="matrix" values="0 0 0 0 1 0 0 0 0 0.670588 0 0 0 0 0.211765 0 0 0 1 0"/>
<feBlend mode="normal" in2="BackgroundImageFix" result="effect1_dropShadow_108_2909"/>
<feBlend mode="normal" in="SourceGraphic" in2="effect1_dropShadow_108_2909" result="shape"/>
<feColorMatrix in="SourceAlpha" type="matrix" values="0 0 0 0 0 0 0 0 0 0 0 0 0 0 0 0 0 0 127 0" result="hardAlpha"/>
<feMorphology radius="2.87771" operator="dilate" in="SourceAlpha" result="effect2_innerShadow_108_2909"/>
<feOffset dx="0.959236" dy="7.67389"/>
<feGaussianBlur stdDeviation="1.91847"/>
<feComposite in2="hardAlpha" operator="arithmetic" k2="-1" k3="1"/>
<feColorMatrix type="matrix" values="0 0 0 0 1 0 0 0 0 1 0 0 0 0 1 0 0 0 0.25 0"/>
<feBlend mode="normal" in2="shape" result="effect2_innerShadow_108_2909"/>
<feGaussianBlur stdDeviation="0.52758" result="effect3_foregroundBlur_108_2909"/>
</filter>
<filter id="filter15_f_108_2909" x="558.33" y="548.941" width="80.9603" height="80.9593" filterUnits="userSpaceOnUse" color-interpolation-filters="sRGB">
<feFlood flood-opacity="0" result="BackgroundImageFix"/>
<feBlend mode="normal" in="SourceGraphic" in2="BackgroundImageFix" result="shape"/>
<feGaussianBlur stdDeviation="13.5252" result="effect1_foregroundBlur_108_2909"/>
</filter>
<filter id="filter16_dif_108_2909" x="131.834" y="122.446" width="52.1832" height="52.1822" filterUnits="userSpaceOnUse" color-interpolation-filters="sRGB">
<feFlood flood-opacity="0" result="BackgroundImageFix"/>
<feColorMatrix in="SourceAlpha" type="matrix" values="0 0 0 0 0 0 0 0 0 0 0 0 0 0 0 0 0 0 127 0" result="hardAlpha"/>
<feOffset/>
<feGaussianBlur stdDeviation="6.33096"/>
<feComposite in2="hardAlpha" operator="out"/>
<feColorMatrix type="matrix" values="0 0 0 0 1 0 0 0 0 0.670588 0 0 0 0 0.211765 0 0 0 1 0"/>
<feBlend mode="normal" in2="BackgroundImageFix" result="effect1_dropShadow_108_2909"/>
<feBlend mode="normal" in="SourceGraphic" in2="effect1_dropShadow_108_2909" result="shape"/>
<feColorMatrix in="SourceAlpha" type="matrix" values="0 0 0 0 0 0 0 0 0 0 0 0 0 0 0 0 0 0 127 0" result="hardAlpha"/>
<feMorphology radius="2.87771" operator="dilate" in="SourceAlpha" result="effect2_innerShadow_108_2909"/>
<feOffset dx="0.959236" dy="7.67389"/>
<feGaussianBlur stdDeviation="1.91847"/>
<feComposite in2="hardAlpha" operator="arithmetic" k2="-1" k3="1"/>
<feColorMatrix type="matrix" values="0 0 0 0 1 0 0 0 0 1 0 0 0 0 1 0 0 0 0.25 0"/>
<feBlend mode="normal" in2="shape" result="effect2_innerShadow_108_2909"/>
<feGaussianBlur stdDeviation="0.52758" result="effect3_foregroundBlur_108_2909"/>
</filter>
<filter id="filter17_f_108_2909" x="117.446" y="108.058" width="80.9603" height="80.9593" filterUnits="userSpaceOnUse" color-interpolation-filters="sRGB">
<feFlood flood-opacity="0" result="BackgroundImageFix"/>
<feBlend mode="normal" in="SourceGraphic" in2="BackgroundImageFix" result="shape"/>
<feGaussianBlur stdDeviation="13.5252" result="effect1_foregroundBlur_108_2909"/>
</filter>
<filter id="filter18_d_108_2909" x="312.712" y="306.629" width="130.456" height="130.456" filterUnits="userSpaceOnUse" color-interpolation-filters="sRGB">
<feFlood flood-opacity="0" result="BackgroundImageFix"/>
<feColorMatrix in="SourceAlpha" type="matrix" values="0 0 0 0 0 0 0 0 0 0 0 0 0 0 0 0 0 0 127 0" result="hardAlpha"/>
<feOffset dy="3.83694"/>
<feGaussianBlur stdDeviation="10.072"/>
<feComposite in2="hardAlpha" operator="out"/>
<feColorMatrix type="matrix" values="0 0 0 0 0 0 0 0 0 0 0 0 0 0 0 0 0 0 0.5 0"/>
<feBlend mode="normal" in2="BackgroundImageFix" result="effect1_dropShadow_108_2909"/>
<feBlend mode="normal" in="SourceGraphic" in2="effect1_dropShadow_108_2909" result="shape"/>
</filter>
<linearGradient id="paint0_linear_108_2909" x1="374.368" y1="123.416" x2="373.833" y2="60.106" gradientUnits="userSpaceOnUse">
<stop stop-color="white"/>
<stop offset="1" stop-color="white" stop-opacity="0"/>
</linearGradient>
<linearGradient id="paint1_diamond_108_2909" x1="0" y1="0" x2="500" y2="500" gradientUnits="userSpaceOnUse">
<stop stop-color="#3579E0"/>
<stop offset="1" stop-color="#21468B"/>
</linearGradient>
<radialGradient id="paint2_radial_108_2909" cx="0" cy="0" r="1" gradientUnits="userSpaceOnUse" gradientTransform="translate(377.94 364.183) rotate(90) scale(48.921)">
<stop stop-color="#3579E0"/>
<stop offset="1" stop-color="#21468B"/>
</radialGradient>
<clipPath id="clip0_108_2909">
<rect width="753" height="735.734" fill="white" transform="translate(0 0.633057)"/>
</clipPath>
</defs>
</svg>
