<svg width="31" height="31" viewBox="0 0 31 31" fill="none" xmlns="http://www.w3.org/2000/svg">
<path d="M30.8112 15.4056V27.3877C30.8112 28.2957 30.4505 29.1664 29.8085 29.8085C29.1664 30.4505 28.2957 30.8112 27.3877 30.8112H3.42346C2.51551 30.8112 1.64473 30.4505 1.00271 29.8085C0.360685 29.1664 0 28.2957 0 27.3877V15.4056H30.8112ZM22.2525 0C22.7065 0 23.1419 0.180343 23.4629 0.501355C23.7839 0.822367 23.9643 1.25775 23.9643 1.71173V3.42346H27.3877C28.2957 3.42346 29.1664 3.78415 29.8085 4.42617C30.4505 5.0682 30.8112 5.93897 30.8112 6.84693V11.9821H0V6.84693C0 5.93897 0.360685 5.0682 1.00271 4.42617C1.64473 3.78415 2.51551 3.42346 3.42346 3.42346H6.84693V1.71173C6.84693 1.25775 7.02727 0.822367 7.34828 0.501355C7.6693 0.180343 8.10468 0 8.55866 0C9.01264 0 9.44803 0.180343 9.76904 0.501355C10.0901 0.822367 10.2704 1.25775 10.2704 1.71173V3.42346H20.5408V1.71173C20.5408 1.25775 20.7211 0.822367 21.0421 0.501355C21.3632 0.180343 21.7985 0 22.2525 0Z" fill="#1A3B7E"/>
</svg>
