<svg width="29" height="36" viewBox="0 0 29 36" fill="none" xmlns="http://www.w3.org/2000/svg">
<path fill-rule="evenodd" clip-rule="evenodd" d="M14.9823 35.817L14.9863 35.815L14.9963 35.808L15.0263 35.785L15.1443 35.7C15.2456 35.626 15.3889 35.518 15.5743 35.376C15.9423 35.094 16.4643 34.679 17.0873 34.146C18.7227 32.7482 20.2519 31.2306 21.6623 29.606C24.9703 25.78 28.4063 20.32 28.4063 14.076C28.4063 10.346 26.9323 6.766 24.3083 4.126C23.0114 2.8193 21.4688 1.78204 19.7694 1.07392C18.07 0.365807 16.2473 0.000828597 14.4063 0C12.5653 0.000697612 10.7426 0.365518 9.04323 1.07346C7.34383 1.7814 5.80123 2.81848 4.50425 4.125C1.87795 6.77122 0.404813 10.3487 0.406251 14.077C0.406251 20.32 3.84225 25.78 7.15025 29.606C8.56061 31.2306 10.0898 32.7482 11.7253 34.146C12.3493 34.679 12.8703 35.094 13.2383 35.376C13.4188 35.5151 13.6011 35.6517 13.7853 35.786L13.8173 35.808L13.8263 35.815L13.8303 35.817C14.1753 36.06 14.6373 36.06 14.9823 35.817ZM19.4063 14C19.4063 15.3261 18.8795 16.5979 17.9418 17.5355C17.0041 18.4732 15.7323 19 14.4063 19C13.0802 19 11.8084 18.4732 10.8707 17.5355C9.93303 16.5979 9.40625 15.3261 9.40625 14C9.40625 12.6739 9.93303 11.4021 10.8707 10.4645C11.8084 9.52678 13.0802 9 14.4063 9C15.7323 9 17.0041 9.52678 17.9418 10.4645C18.8795 11.4021 19.4063 12.6739 19.4063 14Z" fill="#1A3B7E"/>
</svg>
