<svg width="204" height="197" viewBox="0 0 204 197" fill="none" xmlns="http://www.w3.org/2000/svg">
<path opacity="0.1" d="M96.9907 116.525L96.05 117.292L17.5327 191.736C23.3357 195.186 30.0186 197.009 36.8333 197H167.167C174.25 197 180.857 195.074 186.467 191.736L107.95 117.303L106.896 116.449C105.444 115.46 103.707 114.936 101.931 114.95C100.154 114.964 98.4263 115.515 96.9907 116.525ZM204 35.5694C204 26.1358 200.119 17.0886 193.212 10.418C186.304 3.74748 176.935 0 167.167 0H36.8333C27.0645 0 17.6958 3.74748 10.7882 10.418C3.88064 17.0886 0 26.1358 0 35.5694V161.431C0 168.293 2.01733 174.706 5.49666 180.146L84.1387 105.592L85.6687 104.246C90.2662 100.544 96.0659 98.5217 102.052 98.5337C108.038 98.5457 113.829 100.591 118.411 104.311L119.861 105.592L198.503 180.135C202.104 174.516 204.008 168.038 204 161.431V35.5694ZM138.833 84.8194C132.822 84.8194 127.056 82.5133 122.806 78.4083C118.555 74.3034 116.167 68.7358 116.167 62.9305C116.167 57.1253 118.555 51.5577 122.806 47.4528C127.056 43.3478 132.822 41.0417 138.833 41.0417C144.845 41.0417 150.61 43.3478 154.861 47.4528C159.112 51.5577 161.5 57.1253 161.5 62.9305C161.5 68.7358 159.112 74.3034 154.861 78.4083C150.61 82.5133 144.845 84.8194 138.833 84.8194Z" fill="white"/>
</svg>
