<svg width="136" height="136" viewBox="0 0 136 136" fill="none" xmlns="http://www.w3.org/2000/svg">
<path opacity="0.1" d="M64.6604 80.444L64.0333 80.9729L11.6884 132.366C15.5572 134.748 20.0124 136.006 24.5556 136H111.444C116.167 136 120.572 134.67 124.312 132.366L71.9667 80.9804L71.264 80.3911C70.2959 79.7086 69.1382 79.3467 67.9537 79.3562C66.7692 79.3657 65.6175 79.7461 64.6604 80.444ZM136 24.5555C136 18.043 133.413 11.7972 128.808 7.19215C124.203 2.58709 117.957 0 111.444 0H24.5556C18.043 0 11.7972 2.58709 7.19215 7.19215C2.58709 11.7972 0 18.043 0 24.5555V111.444C0 116.182 1.34489 120.609 3.66444 124.364L56.0924 72.896L57.1124 71.9667C60.1775 69.4109 64.0439 68.015 68.0347 68.0233C72.0254 68.0316 75.886 69.4436 78.9404 72.012L79.9075 72.896L132.336 124.357C134.736 120.478 136.005 116.006 136 111.444V24.5555ZM92.5555 58.5555C88.5478 58.5555 84.7043 56.9635 81.8704 54.1296C79.0365 51.2957 77.4444 47.4521 77.4444 43.4444C77.4444 39.4367 79.0365 35.5932 81.8704 32.7593C84.7043 29.9254 88.5478 28.3333 92.5555 28.3333C96.5633 28.3333 100.407 29.9254 103.241 32.7593C106.075 35.5932 107.667 39.4367 107.667 43.4444C107.667 47.4521 106.075 51.2957 103.241 54.1296C100.407 56.9635 96.5633 58.5555 92.5555 58.5555Z" fill="white"/>
</svg>
