<svg width="28" height="28" viewBox="0 0 28 28" fill="none" xmlns="http://www.w3.org/2000/svg">
<path d="M5.23843 20.4239C6.38812 19.5447 7.67306 18.8518 9.09327 18.345C10.5135 17.8382 12.0013 17.5844 13.5568 17.5835C15.1122 17.5826 16.6001 17.8364 18.0203 18.345C19.4405 18.8536 20.7254 19.5465 21.8751 20.4239C22.6641 19.4997 23.2786 18.4514 23.7187 17.2792C24.1587 16.1069 24.3783 14.8558 24.3774 13.5258C24.3774 10.5276 23.3237 7.97434 21.2164 5.86613C19.1091 3.75791 16.5559 2.70425 13.5568 2.70515C10.5577 2.70606 8.00445 3.76016 5.89713 5.86748C3.78982 7.97479 2.73616 10.5276 2.73616 13.5258C2.73616 14.8558 2.95618 16.1069 3.39622 17.2792C3.83626 18.4514 4.45033 19.4997 5.23843 20.4239ZM13.5568 14.8783C12.2267 14.8783 11.105 14.4221 10.1916 13.5095C9.27812 12.597 8.82185 11.4753 8.82275 10.1443C8.82366 8.81339 9.28038 7.69165 10.1929 6.77912C11.1055 5.86658 12.2267 5.41031 13.5568 5.41031C14.8868 5.41031 16.0085 5.86703 16.922 6.78047C17.8354 7.69391 18.2917 8.8152 18.2908 10.1443C18.2899 11.4735 17.8336 12.5952 16.922 13.5095C16.0103 14.4239 14.8886 14.8801 13.5568 14.8783ZM13.5568 27.0515C11.6857 27.0515 9.92736 26.6963 8.28172 25.9857C6.63609 25.2752 5.20461 24.3117 3.98729 23.0953C2.76997 21.8788 1.80649 20.4474 1.09684 18.8008C0.387186 17.1543 0.0319093 15.3959 0.0310076 13.5258C0.0301059 11.6556 0.385383 9.89726 1.09684 8.25072C1.80829 6.60418 2.77178 5.17271 3.98729 3.95629C5.20281 2.73987 6.63429 1.77638 8.28172 1.06583C9.92916 0.355277 11.6875 0 13.5568 0C15.426 0 17.1844 0.355277 18.8318 1.06583C20.4793 1.77638 21.9107 2.73987 23.1263 3.95629C24.3418 5.17271 25.3057 6.60418 26.0181 8.25072C26.7304 9.89726 27.0852 11.6556 27.0825 13.5258C27.0798 15.3959 26.7246 17.1543 26.0167 18.8008C25.3089 20.4474 24.3454 21.8788 23.1263 23.0953C21.9071 24.3117 20.4756 25.2756 18.8318 25.9871C17.188 26.6985 15.4296 27.0533 13.5568 27.0515Z" fill="#5B75A4"/>
</svg>
