<svg width="415" height="556" viewBox="0 0 415 556" fill="none" xmlns="http://www.w3.org/2000/svg">
<rect width="414.294" height="556" rx="16" fill="white"/>
<path d="M36.1918 341.72L33.5348 338.744C36.5106 336.099 39.8643 334.776 43.5959 334.776C46.4064 334.776 48.6265 335.379 50.2561 336.583C51.8857 337.788 52.7005 339.405 52.7005 341.436V341.472C52.7005 344.33 51.189 346.266 48.1659 347.282C51.6141 348.108 53.3382 350.057 53.3382 353.127V353.163C53.3382 355.288 52.4289 357.036 50.6104 358.406C48.7918 359.752 46.3356 360.425 43.2417 360.425C39.3211 360.425 35.9438 359.197 33.1097 356.741L35.6958 353.588C38.152 355.548 40.7028 356.528 43.3479 356.528C45.0012 356.528 46.3356 356.198 47.3511 355.536C48.3903 354.875 48.9099 353.977 48.9099 352.844V352.808C48.9099 351.675 48.4139 350.813 47.422 350.222C46.43 349.608 45.0366 349.313 43.2417 349.337H38.7779V345.652H43.3125C44.824 345.652 46.0285 345.345 46.926 344.731C47.8235 344.093 48.2722 343.208 48.2722 342.074V342.039C48.2722 341 47.8471 340.185 46.9969 339.594C46.1466 338.98 44.9776 338.673 43.4896 338.673C41.0806 338.673 38.648 339.689 36.1918 341.72ZM69.3532 341.153L76.0134 356.139H78.139V364.676H74.2421V359.965H59.9652V364.676H56.0683V356.139H58.1939L64.8541 341.153H69.3532ZM67.0859 345.511L62.5159 356.28H71.5851L67.0859 345.511ZM89.4564 360.425C86.7168 360.425 84.4258 359.528 82.5837 357.733C80.7651 355.914 79.8558 353.576 79.8558 350.718V350.647C79.8558 347.908 80.7179 345.605 82.442 343.739C84.1661 341.85 86.3507 340.905 88.9959 340.905C91.83 340.905 94.0264 341.873 95.5852 343.81C97.1676 345.723 97.9588 348.108 97.9588 350.966C97.9588 351.202 97.9352 351.604 97.8879 352.171H84.1424C84.3786 353.682 84.9809 354.851 85.9492 355.678C86.9175 356.505 88.1102 356.918 89.5273 356.918C91.3458 356.918 93.0345 356.174 94.5933 354.686L97.1086 356.918C95.1247 359.256 92.574 360.425 89.4564 360.425ZM84.107 349.337H93.7076C93.5659 347.896 93.0817 346.715 92.2551 345.794C91.4285 344.873 90.3303 344.412 88.9604 344.412C87.6379 344.412 86.5396 344.861 85.6658 345.759C84.8155 346.656 84.2959 347.849 84.107 349.337ZM110.908 360.425C108.144 360.425 105.842 359.492 104 357.626C102.157 355.737 101.236 353.446 101.236 350.754V350.683C101.236 347.99 102.157 345.688 104 343.775C105.865 341.862 108.192 340.905 110.979 340.905C113.931 340.905 116.422 341.98 118.454 344.129L115.761 346.998C114.273 345.44 112.667 344.66 110.943 344.66C109.408 344.66 108.121 345.239 107.082 346.396C106.043 347.553 105.523 348.959 105.523 350.612V350.683C105.523 352.36 106.043 353.777 107.082 354.934C108.144 356.091 109.491 356.67 111.12 356.67C112.821 356.67 114.439 355.902 115.974 354.367L118.56 356.918C117.544 358.052 116.446 358.925 115.265 359.539C114.084 360.13 112.632 360.425 110.908 360.425ZM122.467 360V341.295H126.754V347.069H131.111C133.426 347.069 135.244 347.636 136.567 348.77C137.889 349.88 138.551 351.439 138.551 353.446V353.482C138.551 355.489 137.866 357.083 136.496 358.264C135.15 359.421 133.249 360 130.792 360H122.467ZM126.718 356.457H130.721C133.107 356.457 134.3 355.477 134.3 353.517V353.482C134.3 352.584 133.992 351.876 133.378 351.356C132.788 350.813 131.914 350.541 130.757 350.541H126.718V356.457ZM161.764 360.425C159.001 360.425 156.698 359.492 154.856 357.626C153.014 355.737 152.093 353.446 152.093 350.754V350.683C152.093 347.99 153.014 345.688 154.856 343.775C156.722 341.862 159.048 340.905 161.835 340.905C164.787 340.905 167.279 341.98 169.31 344.129L166.618 346.998C165.13 345.44 163.524 344.66 161.8 344.66C160.264 344.66 158.977 345.239 157.938 346.396C156.899 347.553 156.379 348.959 156.379 350.612V350.683C156.379 352.36 156.899 353.777 157.938 354.934C159.001 356.091 160.347 356.67 161.977 356.67C163.677 356.67 165.295 355.902 166.83 354.367L169.416 356.918C168.401 358.052 167.303 358.925 166.122 359.539C164.941 360.13 163.488 360.425 161.764 360.425ZM177.646 341.295V348.699H179.771L185.723 341.295H191.001L183.137 350.435L191.249 360H186.077L179.842 352.419H177.646V360H173.324V341.295H177.646ZM202.317 360.425C199.483 360.425 197.121 359.492 195.232 357.626C193.342 355.737 192.397 353.446 192.397 350.754V350.683C192.397 347.967 193.354 345.664 195.267 343.775C197.18 341.862 199.554 340.905 202.388 340.905C205.245 340.905 207.619 341.85 209.508 343.739C211.398 345.605 212.343 347.896 212.343 350.612V350.683C212.343 353.352 211.386 355.643 209.473 357.556C207.56 359.469 205.175 360.425 202.317 360.425ZM202.388 356.67C204.088 356.67 205.458 356.103 206.497 354.969C207.536 353.812 208.056 352.407 208.056 350.754V350.683C208.056 349.006 207.513 347.589 206.426 346.432C205.34 345.251 203.97 344.66 202.317 344.66C200.64 344.66 199.282 345.239 198.243 346.396C197.204 347.53 196.684 348.935 196.684 350.612V350.683C196.684 352.336 197.227 353.753 198.314 354.934C199.4 356.091 200.758 356.67 202.388 356.67ZM216.673 365.668V341.295H220.995V344.412C222.648 342.074 224.773 340.905 227.371 340.905C229.71 340.905 231.741 341.779 233.465 343.527C235.189 345.274 236.051 347.636 236.051 350.612V350.683C236.051 353.659 235.189 356.02 233.465 357.768C231.764 359.516 229.733 360.39 227.371 360.39C224.773 360.39 222.648 359.291 220.995 357.095V365.668H216.673ZM222.483 355.005C223.545 356.115 224.833 356.67 226.344 356.67C227.856 356.67 229.119 356.127 230.135 355.04C231.174 353.93 231.693 352.478 231.693 350.683V350.612C231.693 348.841 231.174 347.4 230.135 346.29C229.096 345.18 227.832 344.625 226.344 344.625C224.833 344.625 223.545 345.192 222.483 346.325C221.42 347.435 220.888 348.864 220.888 350.612V350.683C220.888 352.431 221.42 353.871 222.483 355.005ZM249.368 360.425C246.534 360.425 244.172 359.492 242.282 357.626C240.393 355.737 239.448 353.446 239.448 350.754V350.683C239.448 347.967 240.405 345.664 242.318 343.775C244.231 341.862 246.604 340.905 249.439 340.905C252.296 340.905 254.67 341.85 256.559 343.739C258.449 345.605 259.393 347.896 259.393 350.612V350.683C259.393 353.352 258.437 355.643 256.524 357.556C254.611 359.469 252.225 360.425 249.368 360.425ZM249.439 356.67C251.139 356.67 252.509 356.103 253.548 354.969C254.587 353.812 255.107 352.407 255.107 350.754V350.683C255.107 349.006 254.564 347.589 253.477 346.432C252.391 345.251 251.021 344.66 249.368 344.66C247.691 344.66 246.333 345.239 245.294 346.396C244.254 347.53 243.735 348.935 243.735 350.612V350.683C243.735 352.336 244.278 353.753 245.365 354.934C246.451 356.091 247.809 356.67 249.439 356.67ZM283.272 360.425C280.532 360.425 278.312 359.575 276.612 357.874C274.604 355.867 273.601 352.915 273.601 349.018V348.982C273.601 344.684 274.404 341.413 276.01 339.169C277.639 336.902 280.19 335.485 283.662 334.918L290.393 333.784L291.066 337.717L284.406 338.779C282.256 339.157 280.65 339.842 279.588 340.834C278.548 341.826 277.899 343.267 277.639 345.156C279.292 343.338 281.56 342.428 284.441 342.428C287.134 342.428 289.247 343.22 290.782 344.802C292.341 346.384 293.121 348.439 293.121 350.966V351.002C293.121 353.694 292.2 355.938 290.357 357.733C288.539 359.528 286.177 360.425 283.272 360.425ZM283.343 356.776C284.972 356.776 286.295 356.233 287.311 355.147C288.35 354.06 288.869 352.69 288.869 351.037V351.002C288.869 349.419 288.385 348.132 287.417 347.14C286.472 346.148 285.197 345.652 283.591 345.652C281.867 345.652 280.485 346.172 279.446 347.211C278.407 348.25 277.887 349.573 277.887 351.179V351.214C277.887 352.844 278.395 354.178 279.411 355.217C280.426 356.257 281.737 356.776 283.343 356.776ZM304.53 355.182L309.418 341.295H313.882L306.443 360.496C305.687 362.433 304.848 363.791 303.927 364.57C303.006 365.373 301.79 365.775 300.278 365.775C298.696 365.775 297.22 365.385 295.85 364.605L297.303 361.452C298.2 361.925 299.039 362.161 299.818 362.161C300.456 362.161 300.963 361.996 301.341 361.665C301.743 361.358 302.121 360.815 302.475 360.035L294.681 341.295H299.286L304.53 355.182ZM327.026 341.153L333.686 356.139H335.812V364.676H331.915V359.965H317.638V364.676H313.741V356.139H315.867L322.527 341.153H327.026ZM324.759 345.511L320.189 356.28H329.258L324.759 345.511ZM347.129 360.425C344.39 360.425 342.099 359.528 340.256 357.733C338.438 355.914 337.529 353.576 337.529 350.718V350.647C337.529 347.908 338.391 345.605 340.115 343.739C341.839 341.85 344.023 340.905 346.669 340.905C349.503 340.905 351.699 341.873 353.258 343.81C354.84 345.723 355.632 348.108 355.632 350.966C355.632 351.202 355.608 351.604 355.561 352.171H341.815C342.051 353.682 342.654 354.851 343.622 355.678C344.59 356.505 345.783 356.918 347.2 356.918C349.019 356.918 350.707 356.174 352.266 354.686L354.781 356.918C352.797 359.256 350.247 360.425 347.129 360.425ZM341.78 349.337H351.38C351.239 347.896 350.755 346.715 349.928 345.794C349.101 344.873 348.003 344.412 346.633 344.412C345.311 344.412 344.212 344.861 343.339 345.759C342.488 346.656 341.969 347.849 341.78 349.337ZM364.139 360V345.121H357.479V341.295H375.086V345.121H368.426V360H364.139ZM110.116 403V384.295H114.438V391.628H123.082V384.295H127.369V403H123.082V395.56H114.438V403H110.116ZM141.6 403.425C138.766 403.425 136.405 402.492 134.515 400.626C132.626 398.737 131.681 396.446 131.681 393.754V393.683C131.681 390.967 132.638 388.664 134.551 386.775C136.464 384.862 138.837 383.905 141.671 383.905C144.529 383.905 146.903 384.85 148.792 386.739C150.681 388.605 151.626 390.896 151.626 393.612V393.683C151.626 396.352 150.67 398.643 148.757 400.556C146.844 402.469 144.458 403.425 141.6 403.425ZM141.671 399.67C143.372 399.67 144.742 399.103 145.781 397.969C146.82 396.812 147.34 395.407 147.34 393.754V393.683C147.34 392.006 146.796 390.589 145.71 389.432C144.623 388.251 143.254 387.66 141.6 387.66C139.924 387.66 138.566 388.239 137.526 389.396C136.487 390.53 135.968 391.935 135.968 393.612V393.683C135.968 395.336 136.511 396.753 137.597 397.934C138.684 399.091 140.042 399.67 141.671 399.67ZM155.956 403V384.295H165.486C167.493 384.295 169.076 384.72 170.233 385.57C171.39 386.397 171.969 387.578 171.969 389.113V389.148C171.969 391.108 170.989 392.49 169.029 393.293C171.508 394.073 172.748 395.56 172.748 397.757V397.792C172.748 399.469 172.087 400.756 170.764 401.654C169.466 402.551 167.718 403 165.521 403H155.956ZM160.172 392.053H164.636C165.675 392.053 166.454 391.841 166.974 391.416C167.493 390.99 167.753 390.412 167.753 389.68V389.644C167.753 388.983 167.493 388.44 166.974 388.015C166.454 387.589 165.71 387.389 164.742 387.412H160.172V392.053ZM160.172 395.064V399.882H165.273C167.47 399.882 168.568 399.091 168.568 397.509V397.473C168.568 396.718 168.261 396.127 167.647 395.702C167.057 395.253 166.206 395.041 165.096 395.064H160.172ZM181.347 384.295V390.069H185.704C188.019 390.069 189.837 390.636 191.16 391.77C192.482 392.88 193.144 394.439 193.144 396.446V396.482C193.144 398.489 192.459 400.083 191.089 401.264C189.743 402.421 187.841 403 185.385 403H177.06V384.295H181.347ZM181.311 393.541V399.457H185.314C187.7 399.457 188.892 398.477 188.892 396.517V396.482C188.892 395.584 188.585 394.876 187.971 394.356C187.381 393.813 186.507 393.541 185.35 393.541H181.311ZM196.119 403V384.295H200.406V403H196.119ZM205.74 403V384.295H210.027V396.269L218.954 384.295H223.028V403H218.742V390.742L209.637 403H205.74ZM218.565 380.646C217.478 381.543 216.073 381.992 214.349 381.992C212.625 381.992 211.208 381.543 210.098 380.646C209.011 379.725 208.397 378.461 208.255 376.855H211.231C211.704 378.296 212.743 379.016 214.349 379.016C215.955 379.016 216.994 378.296 217.466 376.855H220.442C220.3 378.461 219.675 379.725 218.565 380.646ZM237.358 378.201H242.602L251.316 388.581H253.3L253.265 378.201H257.587L257.552 388.581H259.535L268.286 378.201H273.493L263.149 390.282L274.167 403H268.923L259.748 392.301H257.552L257.587 403H253.265L253.3 392.301H250.998L241.858 403H236.721L247.738 390.282L237.358 378.201ZM277.747 403V378.201H282.105L282.069 388.511H284.797L294.114 378.201H299.606L288.305 390.176L300.208 403H294.61L284.904 392.372H282.069L282.105 403H277.747Z" fill="#353535"/>
<path d="M66.3052 451V434.701H79.3677V451H77.5282V436.401H68.1446V451H66.3052ZM83.6704 454.726V438.962H85.4633V441.384C86.7206 439.598 88.2574 438.706 90.0736 438.706C91.6104 438.706 92.9531 439.272 94.1018 440.406C95.2505 441.539 95.8248 443.052 95.8248 444.946V444.993C95.8248 446.871 95.2505 448.384 94.1018 449.533C92.9531 450.682 91.6104 451.256 90.0736 451.256C88.1643 451.256 86.6275 450.402 85.4633 448.695V454.726H83.6704ZM89.7476 449.65C90.9584 449.65 91.9674 449.23 92.7746 448.392C93.5818 447.554 93.9854 446.428 93.9854 445.016V444.969C93.9854 443.572 93.574 442.447 92.7513 441.593C91.9441 440.739 90.9429 440.312 89.7476 440.312C88.5989 440.312 87.5822 440.755 86.6974 441.64C85.8281 442.524 85.3934 443.627 85.3934 444.946V444.993C85.3934 446.343 85.8281 447.461 86.6974 448.346C87.5666 449.215 88.5834 449.65 89.7476 449.65ZM104.628 451.279C102.843 451.279 101.352 450.674 100.157 449.463C98.9775 448.237 98.3876 446.762 98.3876 445.039V444.993C98.3876 443.254 98.9852 441.772 100.18 440.545C101.376 439.319 102.874 438.706 104.674 438.706C106.459 438.706 107.95 439.319 109.145 440.545C110.34 441.756 110.938 443.223 110.938 444.946V444.993C110.938 446.731 110.332 448.214 109.122 449.44C107.926 450.666 106.428 451.279 104.628 451.279ZM104.674 449.673C105.947 449.673 107.003 449.223 107.841 448.322C108.679 447.422 109.098 446.328 109.098 445.039V444.993C109.098 443.689 108.664 442.579 107.794 441.663C106.941 440.747 105.885 440.289 104.628 440.289C103.355 440.289 102.299 440.747 101.461 441.663C100.638 442.563 100.227 443.658 100.227 444.946V444.993C100.227 446.297 100.654 447.406 101.508 448.322C102.361 449.223 103.417 449.673 104.674 449.673ZM119.611 451.279C117.857 451.279 116.39 450.666 115.21 449.44C114.03 448.214 113.441 446.747 113.441 445.039V444.993C113.441 443.254 114.03 441.772 115.21 440.545C116.39 439.319 117.857 438.706 119.611 438.706C121.474 438.706 123.08 439.42 124.431 440.848L123.243 442.105C122.095 440.895 120.876 440.289 119.588 440.289C118.361 440.289 117.337 440.739 116.514 441.64C115.691 442.54 115.28 443.642 115.28 444.946V444.993C115.28 446.297 115.699 447.406 116.537 448.322C117.391 449.223 118.447 449.673 119.704 449.673C121.039 449.673 122.265 449.075 123.383 447.88L124.524 448.951C123.158 450.503 121.52 451.279 119.611 451.279ZM127.488 451V438.962H129.281V448.299L136.592 438.962H138.315V451H136.545V441.64L129.164 451H127.488ZM142.336 451V438.962H144.222L148.786 445.714L153.326 438.962H155.189V451H153.396V441.756L148.786 448.439H148.716L144.106 441.779V451H142.336ZM166.189 451V438.962H172.266C173.524 438.962 174.517 439.234 175.247 439.777C175.976 440.32 176.341 441.081 176.341 442.059V442.082C176.341 443.417 175.619 444.333 174.176 444.83C175.93 445.326 176.807 446.297 176.807 447.74V447.763C176.807 448.788 176.403 449.587 175.596 450.162C174.789 450.736 173.679 451.016 172.266 451H166.189ZM167.959 444.224H171.894C172.747 444.224 173.399 444.046 173.85 443.689C174.3 443.332 174.525 442.843 174.525 442.222V442.199C174.525 441.64 174.307 441.197 173.873 440.871C173.454 440.545 172.848 440.39 172.057 440.406H167.959V444.224ZM167.959 445.621V449.556H172.22C173.104 449.556 173.787 449.386 174.269 449.044C174.765 448.703 175.014 448.245 175.014 447.67V447.647C175.014 447.011 174.758 446.514 174.245 446.157C173.733 445.784 172.996 445.606 172.033 445.621H167.959ZM183.668 451.256C182.457 451.256 181.402 450.93 180.501 450.278C179.617 449.611 179.174 448.687 179.174 447.507V447.461C179.174 446.234 179.64 445.28 180.571 444.597C181.518 443.914 182.768 443.572 184.32 443.572C185.546 443.572 186.78 443.743 188.022 444.085V443.665C188.022 442.594 187.712 441.779 187.091 441.221C186.47 440.662 185.585 440.382 184.436 440.382C183.226 440.382 182.007 440.677 180.781 441.267L180.245 439.8C181.658 439.133 183.117 438.799 184.623 438.799C186.33 438.799 187.626 439.241 188.511 440.126C189.334 440.949 189.745 442.121 189.745 443.642V451H188.022V449.184C186.967 450.565 185.515 451.256 183.668 451.256ZM184.017 449.836C185.151 449.836 186.105 449.533 186.881 448.928C187.657 448.307 188.046 447.523 188.046 446.576V445.412C186.835 445.07 185.655 444.899 184.506 444.899C183.389 444.899 182.519 445.125 181.898 445.575C181.293 446.025 180.99 446.63 180.99 447.391V447.437C180.99 448.167 181.285 448.749 181.875 449.184C182.465 449.618 183.179 449.836 184.017 449.836ZM198.992 451.279C197.237 451.279 195.771 450.666 194.591 449.44C193.411 448.214 192.821 446.747 192.821 445.039V444.993C192.821 443.254 193.411 441.772 194.591 440.545C195.771 439.319 197.237 438.706 198.992 438.706C200.854 438.706 202.461 439.42 203.811 440.848L202.624 442.105C201.475 440.895 200.257 440.289 198.968 440.289C197.742 440.289 196.717 440.739 195.895 441.64C195.072 442.54 194.661 443.642 194.661 444.946V444.993C194.661 446.297 195.08 447.406 195.918 448.322C196.772 449.223 197.827 449.673 199.085 449.673C200.42 449.673 201.646 449.075 202.764 447.88L203.905 448.951C202.539 450.503 200.901 451.279 198.992 451.279ZM220.392 438.869L225.096 449.37H226.469V454.19H224.839V451H214.082V454.19H212.452V449.37H213.826L218.529 438.869H220.392ZM219.461 440.662L215.665 449.417H223.186L219.461 440.662ZM233.874 451.279C232.089 451.279 230.599 450.674 229.404 449.463C228.224 448.237 227.634 446.762 227.634 445.039V444.993C227.634 443.254 228.232 441.772 229.427 440.545C230.622 439.319 232.12 438.706 233.921 438.706C235.706 438.706 237.196 439.319 238.391 440.545C239.587 441.756 240.184 443.223 240.184 444.946V444.993C240.184 446.731 239.579 448.214 238.368 449.44C237.173 450.666 235.675 451.279 233.874 451.279ZM233.921 449.673C235.194 449.673 236.249 449.223 237.088 448.322C237.926 447.422 238.345 446.328 238.345 445.039V444.993C238.345 443.689 237.91 442.579 237.041 441.663C236.187 440.747 235.132 440.289 233.874 440.289C232.601 440.289 231.546 440.747 230.708 441.663C229.885 442.563 229.474 443.658 229.474 444.946V444.993C229.474 446.297 229.9 447.406 230.754 448.322C231.608 449.223 232.664 449.673 233.921 449.673ZM251.829 438.962L251.805 444.131H253.855L258.209 438.962H260.374L255.252 444.899L260.537 451H258.372L253.855 445.714H251.805L251.829 451H250.059L250.082 445.714H247.987L243.516 451H241.351L246.636 444.923L241.514 438.962H243.703L248.057 444.131H250.082L250.059 438.962H251.829ZM269.599 438.869L274.302 449.37H275.676V454.19H274.046V451H263.288V454.19H261.659V449.37H263.032L267.736 438.869H269.599ZM268.667 440.662L264.872 449.417H272.393L268.667 440.662ZM281.717 451.256C280.506 451.256 279.451 450.93 278.55 450.278C277.666 449.611 277.223 448.687 277.223 447.507V447.461C277.223 446.234 277.689 445.28 278.62 444.597C279.567 443.914 280.817 443.572 282.369 443.572C283.595 443.572 284.83 443.743 286.071 444.085V443.665C286.071 442.594 285.761 441.779 285.14 441.221C284.519 440.662 283.634 440.382 282.486 440.382C281.275 440.382 280.056 440.677 278.83 441.267L278.294 439.8C279.707 439.133 281.166 438.799 282.672 438.799C284.379 438.799 285.676 439.241 286.56 440.126C287.383 440.949 287.794 442.121 287.794 443.642V451H286.071V449.184C285.016 450.565 283.564 451.256 281.717 451.256ZM282.066 449.836C283.2 449.836 284.154 449.533 284.93 448.928C285.707 448.307 286.095 447.523 286.095 446.576V445.412C284.884 445.07 283.704 444.899 282.555 444.899C281.438 444.899 280.568 445.125 279.948 445.575C279.342 446.025 279.039 446.63 279.039 447.391V447.437C279.039 448.167 279.334 448.749 279.924 449.184C280.514 449.618 281.228 449.836 282.066 449.836ZM294.653 451V440.569H289.833V438.962H301.289V440.569H296.446V451H294.653ZM303.94 451V438.962H305.733V443.107H309.412C310.886 443.107 312.043 443.456 312.881 444.154C313.719 444.853 314.138 445.808 314.138 447.018V447.065C314.138 448.26 313.711 449.215 312.858 449.929C312.019 450.643 310.847 451 309.342 451H303.94ZM305.733 449.463H309.318C311.321 449.463 312.322 448.656 312.322 447.042V447.018C312.322 446.273 312.066 445.683 311.554 445.249C311.057 444.814 310.32 444.605 309.342 444.62H305.733V449.463ZM322.508 451.279C320.754 451.279 319.287 450.666 318.107 449.44C316.927 448.214 316.338 446.747 316.338 445.039V444.993C316.338 443.254 316.927 441.772 318.107 440.545C319.287 439.319 320.754 438.706 322.508 438.706C324.371 438.706 325.977 439.42 327.328 440.848L326.14 442.105C324.992 440.895 323.773 440.289 322.485 440.289C321.258 440.289 320.234 440.739 319.411 441.64C318.588 442.54 318.177 443.642 318.177 444.946V444.993C318.177 446.297 318.596 447.406 319.434 448.322C320.288 449.223 321.344 449.673 322.601 449.673C323.936 449.673 325.162 449.075 326.28 447.88L327.421 448.951C326.055 450.503 324.417 451.279 322.508 451.279ZM331.689 451H329.547L333.063 446.366C332.085 446.149 331.324 445.73 330.781 445.109C330.253 444.488 329.989 443.712 329.989 442.781V442.757C329.989 441.609 330.416 440.693 331.27 440.01C332.123 439.311 333.264 438.962 334.692 438.962H340.514V451H338.744V446.529H335.018L331.689 451ZM338.744 440.452H334.716C333.831 440.452 333.117 440.662 332.574 441.081C332.046 441.5 331.782 442.059 331.782 442.757V442.781C331.782 443.495 332.038 444.061 332.55 444.48C333.078 444.899 333.8 445.101 334.716 445.086H338.744V440.452ZM345.203 446.39L344.667 436.028V434.701H346.763V436.028L346.204 446.39H345.203ZM344.644 451V448.555H346.786V451H344.644Z" fill="#353535"/>
<mask id="mask0_248_490" style="mask-type:luminance" maskUnits="userSpaceOnUse" x="129" y="133" width="150" height="142">
<path d="M131.368 273H276.632" stroke="white" stroke-width="4" stroke-linecap="round" stroke-linejoin="round"/>
<path d="M167.684 214.895H153.158C149.147 214.895 145.895 218.147 145.895 222.158V265.737C145.895 269.748 149.147 273 153.158 273H167.684C171.696 273 174.947 269.748 174.947 265.737V222.158C174.947 218.147 171.696 214.895 167.684 214.895Z" fill="white" stroke="white" stroke-width="4" stroke-linejoin="round"/>
<path d="M160.421 243.948H164.053" stroke="black" stroke-width="4" stroke-linecap="square" stroke-linejoin="round"/>
<path d="M254.842 135H182.211C178.199 135 174.948 138.252 174.948 142.263V265.737C174.948 269.748 178.199 273 182.211 273H254.842C258.854 273 262.105 269.748 262.105 265.737V142.263C262.105 138.252 258.854 135 254.842 135Z" fill="white" stroke="white" stroke-width="4" stroke-linejoin="round"/>
<path d="M196.737 156.79H211.263V171.316H196.737V156.79ZM225.789 156.79H240.316V171.316H225.789V156.79ZM196.737 182.211H211.263V196.737H196.737V182.211ZM225.789 182.211H240.316V196.737H225.789V182.211ZM225.789 207.632H240.316V222.158H225.789V207.632ZM225.789 233.053H240.316V247.579H225.789V233.053Z" fill="black"/>
</mask>
<g mask="url(#mask0_248_490)">
<path d="M116.842 120.474H291.158V294.79H116.842V120.474Z" fill="#BEBDBD"/>
</g>
</svg>
