<svg width="107" height="116" viewBox="0 0 107 116" fill="none" xmlns="http://www.w3.org/2000/svg">
<path d="M12.4223 66.1995C13.1833 65.2401 13.7542 64.0658 14.1347 62.6765C14.5152 61.2873 14.7055 59.5834 14.7055 57.5648C14.7055 54.6865 13.7542 51.0408 11.8515 46.6275C9.94877 42.2142 8.99742 38.9042 8.99742 36.6975C8.99742 35.5463 9.11729 34.347 9.35703 33.0998C9.59677 31.8525 10.238 30.4134 11.2807 28.7824H19.8428C18.7963 30.4134 18.1551 31.8525 17.9192 33.0998C17.6832 34.347 17.5633 35.5463 17.5595 36.6975C17.5595 38.9042 18.5109 42.2142 20.4136 46.6275C22.3163 51.0408 23.2676 54.6865 23.2676 57.5648C23.2676 59.5795 23.0774 61.2355 22.6968 62.5326C22.3163 63.8297 21.7455 65.052 20.9844 66.1995H12.4223ZM49.5248 66.1995C50.2859 65.2401 50.8567 64.0658 51.2372 62.6765C51.6178 61.2873 51.808 59.5834 51.808 57.5648C51.808 54.6865 50.8567 51.0408 48.954 46.6275C47.0513 42.2142 46.0999 38.9042 46.0999 36.6975C46.0999 35.5463 46.2198 34.347 46.4595 33.0998C46.6993 31.8525 47.3405 30.4134 48.3832 28.7824H56.9453C55.8988 30.4134 55.2576 31.8525 55.0217 33.0998C54.7857 34.347 54.6659 35.5463 54.6621 36.6975C54.6621 38.9042 55.6134 42.2142 57.5161 46.6275C59.4188 51.0408 60.3701 54.6865 60.3701 57.5648C60.3701 59.5795 60.1799 61.2355 59.7993 62.5326C59.4188 63.8297 58.848 65.052 58.0869 66.1995H49.5248ZM30.9735 66.1995C31.7346 65.2401 32.3054 64.0658 32.686 62.6765C33.0665 61.2873 33.2568 59.5834 33.2568 57.5648C33.2568 54.6865 32.3054 51.0408 30.4027 46.6275C28.5 42.2142 27.5487 38.9042 27.5487 36.6975C27.5487 35.5463 27.6686 34.347 27.9083 33.0998C28.148 31.8525 28.7892 30.4134 29.8319 28.7824H38.394C37.3476 30.4134 36.7063 31.8525 36.4704 33.0998C36.2345 34.347 36.1146 35.5463 36.1108 36.6975C36.1108 38.9042 37.0621 42.2142 38.9648 46.6275C40.8675 51.0408 41.8189 54.6865 41.8189 57.5648C41.8189 59.5795 41.6286 61.2355 41.2481 62.5326C40.8675 63.8297 40.2967 65.052 39.5357 66.1995H30.9735ZM38.9648 115.13C29.3562 115.13 20.914 111.892 13.6381 105.418C6.36219 98.9443 1.96126 90.9082 0.435303 81.3102C0.245034 79.5833 0.720707 78.0713 1.86232 76.7741C3.00394 75.477 4.43096 74.8304 6.14338 74.8342H66.2209L72.4998 15.2547C72.9755 10.9373 74.8078 7.31457 77.9967 4.38644C81.1856 1.45832 85.0138 -0.00383012 89.4814 7.53465e-06C94.2381 7.53465e-06 98.2813 1.67898 101.611 5.03692C104.941 8.39487 106.606 12.4724 106.606 17.2694C106.606 18.6126 106.488 20.3875 106.252 22.5942L105.892 25.9042L94.6186 24.465L94.904 21.512C95.0943 19.5471 95.1894 18.1329 95.1894 17.2694C95.1894 15.6384 94.6415 14.2722 93.5455 13.1708C92.4496 12.0694 91.0948 11.5168 89.4814 11.513C87.9592 11.513 86.6749 12.0176 85.6284 13.0269C84.5819 14.0362 83.9635 15.2585 83.7733 16.6938L77.209 79.2955C76.1625 89.4652 72.0241 97.981 64.7939 104.843C57.5637 111.704 48.954 115.133 38.9648 115.13Z" fill="white"/>
</svg>
