<svg width="953" height="238" viewBox="0 0 953 238" fill="none" xmlns="http://www.w3.org/2000/svg">
<path fill-rule="evenodd" clip-rule="evenodd" d="M869.062 65.9898V67.4204C883.589 67.4204 895.36 79.199 895.366 93.7426V151.635C895.366 194.297 870.831 228.882 840.572 228.882C810.312 228.882 785.783 194.297 785.783 151.635V93.7426C785.783 79.199 797.56 67.4204 812.088 67.4204V65.9898H728.148V67.4204C742.669 67.4204 754.446 79.2054 754.446 93.7426V151.635C754.446 178.406 766.646 202.322 785.783 218.13C800.67 230.428 819.762 237.819 840.572 237.819C861.382 237.819 880.474 230.428 895.366 218.13C914.394 202.412 926.569 178.663 926.697 152.065V93.7426C926.697 79.2054 938.474 67.4204 953.001 67.4204V65.9898H869.062Z" fill="#1A3B7E"/>
<path fill-rule="evenodd" clip-rule="evenodd" d="M718.182 202.56V237.273H576.012V235.849C590.539 235.849 602.316 224.064 602.316 209.527V93.7426C602.316 79.2054 590.539 67.4205 576.012 67.4205V65.9898H711.758V100.703H710.335C710.335 86.1661 698.558 74.3875 684.031 74.3875H633.647V228.882H690.454C704.982 228.882 716.759 217.097 716.759 202.56H718.182Z" fill="#1A3B7E"/>
<path fill-rule="evenodd" clip-rule="evenodd" d="M561.811 202.56V237.273H419.641V235.849C434.168 235.849 445.939 224.064 445.945 209.527V93.7426C445.939 79.2054 434.168 67.4205 419.641 67.4205V65.9898H503.58V67.4205C489.052 67.4205 477.275 79.2054 477.275 93.7426V228.882H534.083C548.611 228.882 560.381 217.097 560.381 202.56H561.811Z" fill="#1A3B7E"/>
<path fill-rule="evenodd" clip-rule="evenodd" d="M406.521 235.618V237.273C397.174 237.248 387.826 237.216 380.588 236.933C373.35 236.651 368.221 236.112 364.08 235.021C359.932 233.924 356.771 232.276 353.816 229.921C350.86 227.567 348.11 224.513 345.065 220.196C342.02 215.884 338.686 210.31 335.096 203.939C331.499 197.569 327.646 190.403 324.582 184.95C323.159 182.422 321.908 180.26 320.735 178.252L320.703 178.194L320.62 178.047L319.722 176.481C316.799 171.4 312.093 163.247 308.856 158.23C305.625 153.213 303.849 151.333 301.675 150.057C300.868 149.582 300.008 149.197 299.143 148.87V147.433H327.787C343.994 147.433 357.143 131.086 357.143 110.91C357.143 90.7338 343.994 74.3875 327.787 74.3875H285.565V209.527C285.565 224.064 297.342 235.849 311.869 235.849V237.273H227.93V235.849C242.457 235.849 254.228 224.064 254.234 209.527V93.7426C254.228 79.2054 242.457 67.4205 227.93 67.4205V65.9898H343.315C368.106 65.9898 388.205 86.102 388.205 110.91C388.205 135.718 368.106 155.83 343.315 155.83C342.045 155.83 340.795 155.779 339.551 155.676C342.385 158.23 344.674 161.431 347.014 165.011C350.29 170.021 353.707 175.795 358.393 183.968C363.086 192.148 369.048 202.714 373.825 210.245C378.607 217.777 382.204 222.261 385.627 225.629C389.051 228.997 392.295 231.243 395.75 232.718C399.199 234.194 402.86 234.906 406.521 235.618Z" fill="#1A3B7E"/>
<path fill-rule="evenodd" clip-rule="evenodd" d="M192.642 90.6885C159.01 57.0336 104.478 57.0336 70.846 90.6885C37.2076 124.35 37.2076 178.919 70.846 212.574C104.478 246.229 159.01 246.229 192.642 212.574C226.274 178.919 226.274 124.35 192.642 90.6885ZM186.712 206.633C165.312 228.048 123.358 220.779 93.0024 190.402C62.64 160.026 55.3763 118.037 76.7762 96.6291C98.1761 75.2147 140.13 82.4833 170.486 112.866C200.842 143.243 208.105 185.225 186.712 206.633Z" fill="#1A3B7E"/>
<path fill-rule="evenodd" clip-rule="evenodd" d="M702.251 150.858V152.404C688.038 155.368 676.838 166.569 673.882 180.792H672.337C669.382 166.569 658.182 155.368 643.969 152.404V150.858C658.182 147.901 669.382 136.693 672.337 122.47H673.882C676.838 136.693 688.038 147.901 702.251 150.858Z" fill="#1A3B7E"/>
<path fill-rule="evenodd" clip-rule="evenodd" d="M59.1794 50.5686C44.9598 47.6047 33.7662 36.4035 30.8043 22.1742H29.2657C26.3038 36.4035 15.1102 47.6047 0.890625 50.5686V52.1082C15.1102 55.0721 26.3038 66.2733 29.2657 80.5026H30.8043C33.7662 66.2733 44.9598 55.0721 59.1794 52.1082V50.5686Z" fill="#1A3B7E"/>
<path fill-rule="evenodd" clip-rule="evenodd" d="M84.4692 12.2533C78.3339 10.9767 73.5 6.13949 72.2242 0H71.5575C70.2817 6.13949 65.4478 10.9767 59.3125 12.2533V12.9205C65.4478 14.1972 70.2817 19.0343 71.5575 25.1738H72.2242C73.5 19.0343 78.3339 14.1972 84.4692 12.9205V12.2533Z" fill="#1A3B7E"/>
</svg>
