<svg width="18" height="19" viewBox="0 0 18 19" fill="none" xmlns="http://www.w3.org/2000/svg">
<path d="M14.0236 8.21141C14.2927 8.86081 14.4312 9.55686 14.4313 10.2598H12.8254C12.8254 9.26602 12.4307 8.31294 11.7279 7.61023C11.0252 6.90752 10.0722 6.51274 9.07837 6.51274V4.90686C10.137 4.90692 11.1719 5.2209 12.0522 5.8091C12.9324 6.3973 13.6185 7.23331 14.0236 8.21141Z" fill="#132C5E"/>
<path d="M17.9999 9.81372C17.9999 8.64212 17.7691 7.482 17.3208 6.39958C16.8724 5.31717 16.2153 4.33366 15.3868 3.50522C14.5584 2.67677 13.5749 2.01962 12.4924 1.57126C11.41 1.12291 10.2499 0.892151 9.07831 0.892151V2.67646C10.4899 2.67643 11.8697 3.09496 13.0434 3.87912C14.2171 4.66328 15.132 5.77787 15.6722 7.08194C16.031 7.94801 16.2156 8.87628 16.2156 9.81372H17.9999ZM0.156738 8.02941V3.56862C0.156738 3.33201 0.250733 3.10508 0.418045 2.93777C0.585357 2.77046 0.81228 2.67646 1.0489 2.67646H5.50968C5.74629 2.67646 5.97322 2.77046 6.14053 2.93777C6.30784 3.10508 6.40184 3.33201 6.40184 3.56862V7.13725C6.40184 7.37386 6.30784 7.60079 6.14053 7.7681C5.97322 7.93541 5.74629 8.02941 5.50968 8.02941H3.72537C3.72537 9.92232 4.47732 11.7377 5.81582 13.0762C7.15431 14.4147 8.9697 15.1667 10.8626 15.1667V13.3823C10.8626 13.1457 10.9566 12.9188 11.1239 12.7515C11.2912 12.5842 11.5182 12.4902 11.7548 12.4902H15.3234C15.56 12.4902 15.7869 12.5842 15.9543 12.7515C16.1216 12.9188 16.2156 13.1457 16.2156 13.3823V17.8431C16.2156 18.0797 16.1216 18.3067 15.9543 18.474C15.7869 18.6413 15.56 18.7353 15.3234 18.7353H10.8626C4.9503 18.7353 0.156738 13.9417 0.156738 8.02941Z" fill="#132C5E"/>
</svg>
