<svg width="17" height="19" viewBox="0 0 17 19" fill="none" xmlns="http://www.w3.org/2000/svg">
<path d="M8.5 0.735291C3.808 0.735291 0 4.76729 0 9.73529C0 14.7033 3.808 18.7353 8.5 18.7353C13.192 18.7353 17 14.7033 17 9.73529C17 4.76729 13.192 0.735291 8.5 0.735291ZM12.444 6.85529C12.3165 8.27729 11.764 11.7333 11.4835 13.3263C11.3645 14.0013 11.1265 14.2263 10.9055 14.2533C10.4125 14.2983 10.0385 13.9113 9.5625 13.5783C8.8145 13.0563 8.3895 12.7323 7.667 12.2283C6.8255 11.6433 7.3695 11.3193 7.854 10.7973C7.9815 10.6623 10.1575 8.56529 10.2 8.37629C10.2059 8.34766 10.2051 8.31795 10.1977 8.28971C10.1903 8.26148 10.1765 8.23559 10.1575 8.21429C10.1065 8.16929 10.0385 8.18729 9.979 8.19629C9.9025 8.21429 8.7125 9.05129 6.392 10.7073C6.052 10.9503 5.746 11.0763 5.474 11.0673C5.168 11.0583 4.59 10.8873 4.1565 10.7343C3.621 10.5543 3.2045 10.4553 3.2385 10.1403C3.2555 9.97829 3.468 9.81629 3.8675 9.64529C6.3495 8.50229 7.9985 7.74629 8.823 7.38629C11.186 6.34229 11.6705 6.16229 11.9935 6.16229C12.0615 6.16229 12.223 6.18029 12.325 6.27029C12.41 6.34229 12.4355 6.44129 12.444 6.51329C12.4355 6.56729 12.4525 6.72929 12.444 6.85529Z" fill="#38BFD7"/>
</svg>
