<svg width="33" height="31" viewBox="0 0 33 31" fill="none" xmlns="http://www.w3.org/2000/svg">
<path fill-rule="evenodd" clip-rule="evenodd" d="M22.3455 19.3861C16.8943 18.2498 12.6031 13.9558 11.4677 8.50085H10.8778C9.74236 13.9558 5.4512 18.2498 0 19.3861V19.9763C5.4512 21.1126 9.74236 25.4066 10.8778 30.8615H11.4677C12.6031 25.4066 16.8943 21.1126 22.3455 19.9763V19.3861Z" fill="#1A3B7E"/>
<path fill-rule="evenodd" clip-rule="evenodd" d="M32.0386 4.69741C29.6866 4.208 27.8334 2.35363 27.3444 0H27.0888C26.5997 2.35363 24.7466 4.208 22.3945 4.69741V4.95319C24.7466 5.44261 26.5997 7.29698 27.0888 9.6506H27.3444C27.8334 7.29698 29.6866 5.44261 32.0386 4.95319V4.69741Z" fill="#1A3B7E"/>
</svg>
