<svg width="503" height="767" viewBox="0 0 503 767" fill="none" xmlns="http://www.w3.org/2000/svg">
<path d="M-510.276 701.95C-325.538 888.471 -24.5732 889.916 161.948 705.178C348.468 520.44 349.914 219.475 165.176 32.9541C-19.5625 -153.567 -320.527 -155.012 -507.048 29.7261C-693.569 214.464 -695.014 515.429 -510.276 701.95Z" fill="#1F4C93"/>
<path d="M-172.55 367.448L265.726 551.456C316.635 430.205 313.464 299.772 267.198 187.008L-172.175 366.539L-172.55 367.448Z" fill="#173560"/>
<path d="M-172.551 367.448L-353.099 -72.269C-231.441 -122.228 -101.043 -118.036 11.3493 -70.874L-171.623 367.067L-172.535 367.433L-172.551 367.448Z" fill="#173560"/>
<path d="M-172.55 367.448L8.01387 807.15C-113.644 857.109 -244.043 852.917 -356.435 805.755L-173.463 367.815L-172.55 367.448Z" fill="#173560"/>
<path d="M-172.579 373.652L-354.37 806.643L-358.745 804.8L-176.955 371.825L-611.672 549.449L-613.472 545.04L-178.756 367.416L-611.746 185.626L-609.904 181.25L-176.913 363.041L-354.537 -71.6758L-350.144 -73.4763L-172.52 361.24L9.27073 -71.7504L13.6462 -69.9078L-168.144 363.083L266.572 185.459L268.373 189.852L-166.344 367.476L266.647 549.266L264.804 553.657L-168.187 371.867L9.43738 806.568L5.04442 808.369L-172.579 373.652Z" fill="white"/>
<g filter="url(#filter0_i_144_544)">
<circle cx="-168.764" cy="366.776" r="475.478" transform="rotate(90.2751 -168.764 366.776)" fill="white" fill-opacity="0.01"/>
</g>
<path d="M53.6289 390.059L85.0994 333.677L52.2949 333.52L52.3586 320.259L102.607 320.5L102.552 332.063L70.9652 390.143L53.6135 390.059L53.6289 390.059Z" fill="white"/>
<path d="M136.273 391.662C127.026 391.617 119.586 388.185 113.938 381.381C108.29 374.577 105.49 365.98 105.54 355.621L105.541 355.42C105.59 345.124 108.519 336.539 114.341 329.682C120.163 322.824 127.651 319.418 136.821 319.462C145.991 319.506 153.338 322.953 159.048 329.788C164.758 336.624 167.604 345.205 167.554 355.502L167.553 355.703C167.504 366 164.576 374.584 158.754 381.442C152.932 388.299 145.443 391.69 136.273 391.646L136.273 391.662ZM125.456 371.463C128.261 375.66 131.956 377.778 136.541 377.8C141.126 377.822 144.81 375.786 147.593 371.678C150.376 367.569 151.775 362.296 151.806 355.843L151.807 355.643C151.838 349.267 150.427 343.95 147.592 339.722C144.756 335.493 141.077 333.361 136.553 333.339C132.03 333.317 128.362 335.353 125.563 339.461C122.765 343.57 121.335 348.843 121.304 355.296L121.303 355.496C121.272 361.949 122.651 367.266 125.456 371.463Z" fill="white"/>
<path d="M174.565 390.641L174.914 317.853L190.074 317.926L189.887 356.705L207.734 337.355L225.873 337.442L205.441 358.385L226.326 390.89L208.774 390.805L195.217 368.803L189.802 374.458L189.724 390.714L174.565 390.641Z" fill="white"/>
<path d="M-18.4936 556.458L20.3939 517.942L9.71147 511.407L16.3876 500.293L34.7413 510.323L42.1003 517.753L-7.8469 567.223L-18.509 556.458L-18.4936 556.458Z" fill="white"/>
<path d="M19.7978 596.826C13.2992 590.264 10.4492 582.578 11.2789 573.767C12.0931 564.956 16.1919 556.902 23.5599 549.604L23.6995 549.466C31.0209 542.214 39.1604 538.224 48.1178 537.495C57.0752 536.767 64.7802 539.66 71.2328 546.174C77.6854 552.689 80.443 560.313 79.6593 569.202C78.8603 578.075 74.8077 586.145 67.4862 593.396L67.3466 593.534C60.0252 600.786 51.8857 604.776 42.9283 605.505C33.9709 606.234 26.2659 603.341 19.8133 596.826L19.7978 596.826ZM26.4179 574.89C25.437 579.84 26.5442 583.952 29.7705 587.21C32.9968 590.467 37.0514 591.629 41.9188 590.68C46.7863 589.731 51.5079 587.005 56.0993 582.458L56.2389 582.319C60.7683 577.833 63.5391 573.076 64.5202 568.079C65.5014 563.082 64.4096 558.97 61.2294 555.76C58.0492 552.549 54.01 551.402 49.1118 552.321C44.2136 553.239 39.4766 555.964 34.9007 560.496L34.761 560.634C30.1851 565.166 27.3989 569.923 26.4026 574.874L26.4179 574.89Z" fill="white"/>
<path d="M47.5839 623.188L99.2995 571.967L109.962 582.732L82.3976 610.033L108.693 608.955L121.46 621.845L92.2039 622.199L83.9795 659.951L71.6274 647.479L77.5991 622.345L69.7712 622.523L58.2306 633.953L47.5685 623.188L47.5839 623.188Z" fill="white"/>
<path d="M5.14666 224.363L-33.3692 185.476L-39.9043 196.158L-51.0183 189.482L-40.9883 171.129L-33.5581 163.754L15.9117 213.701L5.14666 224.363Z" fill="white"/>
<path d="M41.3448 190.201C34.1629 197.314 25.5311 200.963 15.4185 201.146L14.2217 186.752C21.7415 186.417 27.4637 184.299 31.3881 180.412C33.9785 177.847 35.4267 175.244 35.7327 172.606C36.0232 169.983 35.0777 167.555 32.8808 165.337L32.7425 165.197C30.6838 163.118 28.2487 162.273 25.4526 162.661C22.6565 163.049 19.9322 164.549 17.2952 167.176C14.4566 169.988 12.3101 173.327 10.8248 177.226L0.378962 179.291L-22.4066 153.446L8.05807 123.273L17.5373 132.828L-3.57391 153.738L4.34812 162.869C6.04437 160.052 7.93946 157.621 10.018 155.563C15.1679 150.462 20.6618 147.648 26.4844 147.105C32.3225 146.577 37.8532 148.95 43.0921 154.24L43.2304 154.379C48.4232 159.622 50.8342 165.485 50.4789 171.967C50.1235 178.449 47.084 184.517 41.3757 190.186L41.3448 190.201Z" fill="white"/>
<path d="M86.6076 145.371C80.0462 151.87 72.36 154.72 63.549 153.89C54.7379 153.076 46.6836 148.977 39.3861 141.609L39.2478 141.469C31.9963 134.148 28.0061 126.009 27.2773 117.051C26.5484 108.094 29.4414 100.389 35.9562 93.9362C42.4711 87.4836 50.0952 84.7259 58.9836 85.5096C67.8565 86.3087 75.9264 90.3613 83.1779 97.6827L83.3161 97.8223C90.5676 105.144 94.5578 113.283 95.2867 122.241C96.0155 131.198 93.1225 138.903 86.6077 145.356L86.6076 145.371ZM64.6715 138.736C69.6223 139.716 73.7341 138.609 76.9915 135.383C80.249 132.157 81.4108 128.102 80.4616 123.235C79.5124 118.367 76.7872 113.63 72.2396 109.054L72.1014 108.915C67.6153 104.385 62.8582 101.63 57.8612 100.633C52.864 99.6522 48.7523 100.744 45.5414 103.924C42.3305 107.104 41.1842 111.144 42.1024 116.042C43.0206 120.94 45.7457 125.677 50.2779 130.253L50.4162 130.392C54.9484 134.968 59.7053 137.755 64.656 138.751L64.6715 138.736Z" fill="white"/>
<path d="M112.969 117.572L61.7473 65.8565L72.5123 55.1943L99.7975 82.7583L98.7196 56.4626L111.61 43.6957L111.963 72.952L149.715 81.1764L137.244 93.5285L112.109 87.5568L112.288 95.3847L123.718 106.925L112.953 117.587L112.969 117.572Z" fill="white"/>
<g clip-path="url(#paint0_diamond_144_544_clip_path)" data-figma-skip-parse="true"><g transform="matrix(0.209427 0.566815 -0.630402 0.232921 -379.586 329.707)"><rect x="0" y="0" width="1306.1" height="1284.4" fill="url(#paint0_diamond_144_544)" opacity="1" shape-rendering="crispEdges"/><rect x="0" y="0" width="1306.1" height="1284.4" transform="scale(1 -1)" fill="url(#paint0_diamond_144_544)" opacity="1" shape-rendering="crispEdges"/><rect x="0" y="0" width="1306.1" height="1284.4" transform="scale(-1 1)" fill="url(#paint0_diamond_144_544)" opacity="1" shape-rendering="crispEdges"/><rect x="0" y="0" width="1306.1" height="1284.4" transform="scale(-1)" fill="url(#paint0_diamond_144_544)" opacity="1" shape-rendering="crispEdges"/></g></g><path d="M-170.159 -159.411C-461.747 -159.411 -698.125 76.9765 -698.125 368.561C-698.125 660.146 -461.747 896.522 -170.159 896.522C121.429 896.522 357.808 660.146 357.808 368.561C357.808 76.9765 121.429 -159.411 -170.159 -159.411ZM-170.159 841.628C-431.441 841.628 -643.242 629.829 -643.242 368.561C-643.242 107.293 -431.441 -104.517 -170.159 -104.517C91.1236 -104.517 302.913 107.282 302.913 368.561C302.913 629.841 91.1124 841.628 -170.159 841.628Z" data-figma-gradient-fill="{&#34;type&#34;:&#34;GRADIENT_DIAMOND&#34;,&#34;stops&#34;:[{&#34;color&#34;:{&#34;r&#34;:0.20726238191127777,&#34;g&#34;:0.47628051042556763,&#34;b&#34;:0.87980771064758301,&#34;a&#34;:1.0},&#34;position&#34;:0.0},{&#34;color&#34;:{&#34;r&#34;:0.13059356808662415,&#34;g&#34;:0.27503004670143127,&#34;b&#34;:0.54326921701431274,&#34;a&#34;:1.0},&#34;position&#34;:1.0}],&#34;stopsVar&#34;:[{&#34;color&#34;:{&#34;r&#34;:0.20726238191127777,&#34;g&#34;:0.47628051042556763,&#34;b&#34;:0.87980771064758301,&#34;a&#34;:1.0},&#34;position&#34;:0.0},{&#34;color&#34;:{&#34;r&#34;:0.13059356808662415,&#34;g&#34;:0.27503004670143127,&#34;b&#34;:0.54326921701431274,&#34;a&#34;:1.0},&#34;position&#34;:1.0}],&#34;transform&#34;:{&#34;m00&#34;:418.85382080078125,&#34;m01&#34;:-1260.8048095703125,&#34;m02&#34;:41.389923095703125,&#34;m10&#34;:1133.6301269531250,&#34;m11&#34;:465.84231567382812,&#34;m12&#34;:-470.02944946289062},&#34;opacity&#34;:1.0,&#34;blendMode&#34;:&#34;NORMAL&#34;,&#34;visible&#34;:true}"/>
<g filter="url(#filter1_dif_144_544)">
<circle cx="332.856" cy="368.301" r="21.6127" transform="rotate(90 332.856 368.301)" fill="#FFAB36"/>
</g>
<g filter="url(#filter2_f_144_544)">
<circle cx="332.856" cy="368.301" r="21.6127" transform="rotate(90 332.856 368.301)" fill="#FFAB36"/>
</g>
<g filter="url(#filter3_dif_144_544)">
<circle cx="183.756" cy="13.5293" r="21.6127" transform="rotate(45 183.756 13.5293)" fill="#FFAB36"/>
</g>
<g filter="url(#filter4_f_144_544)">
<circle cx="183.756" cy="13.5293" r="21.6127" transform="rotate(45 183.756 13.5293)" fill="#FFAB36"/>
</g>
<g filter="url(#filter5_dif_144_544)">
<circle cx="183.758" cy="723.072" r="21.6127" transform="rotate(-45 183.758 723.072)" fill="#FFAB36"/>
</g>
<g filter="url(#filter6_f_144_544)">
<circle cx="183.758" cy="723.072" r="21.6127" transform="rotate(-45 183.758 723.072)" fill="#FFAB36"/>
</g>
<defs>
<filter id="filter0_i_144_544" x="-644.242" y="-108.703" width="950.957" height="952.501" filterUnits="userSpaceOnUse" color-interpolation-filters="sRGB">
<feFlood flood-opacity="0" result="BackgroundImageFix"/>
<feBlend mode="normal" in="SourceGraphic" in2="BackgroundImageFix" result="shape"/>
<feColorMatrix in="SourceAlpha" type="matrix" values="0 0 0 0 0 0 0 0 0 0 0 0 0 0 0 0 0 0 127 0" result="hardAlpha"/>
<feOffset dy="1.54376"/>
<feGaussianBlur stdDeviation="88.3031"/>
<feComposite in2="hardAlpha" operator="arithmetic" k2="-1" k3="1"/>
<feColorMatrix type="matrix" values="0 0 0 0 0 0 0 0 0 0 0 0 0 0 0 0 0 0 0.65 0"/>
<feBlend mode="normal" in2="shape" result="effect1_innerShadow_144_544"/>
</filter>
<clipPath id="paint0_diamond_144_544_clip_path"><path d="M-170.159 -159.411C-461.747 -159.411 -698.125 76.9765 -698.125 368.561C-698.125 660.146 -461.747 896.522 -170.159 896.522C121.429 896.522 357.808 660.146 357.808 368.561C357.808 76.9765 121.429 -159.411 -170.159 -159.411ZM-170.159 841.628C-431.441 841.628 -643.242 629.829 -643.242 368.561C-643.242 107.293 -431.441 -104.517 -170.159 -104.517C91.1236 -104.517 302.913 107.282 302.913 368.561C302.913 629.841 91.1124 841.628 -170.159 841.628Z"/></clipPath><filter id="filter1_dif_144_544" x="290.866" y="326.31" width="83.9799" height="83.9806" filterUnits="userSpaceOnUse" color-interpolation-filters="sRGB">
<feFlood flood-opacity="0" result="BackgroundImageFix"/>
<feColorMatrix in="SourceAlpha" type="matrix" values="0 0 0 0 0 0 0 0 0 0 0 0 0 0 0 0 0 0 127 0" result="hardAlpha"/>
<feOffset/>
<feGaussianBlur stdDeviation="10.1888"/>
<feComposite in2="hardAlpha" operator="out"/>
<feColorMatrix type="matrix" values="0 0 0 0 1 0 0 0 0 0.670588 0 0 0 0 0.211765 0 0 0 1 0"/>
<feBlend mode="normal" in2="BackgroundImageFix" result="effect1_dropShadow_144_544"/>
<feBlend mode="normal" in="SourceGraphic" in2="effect1_dropShadow_144_544" result="shape"/>
<feColorMatrix in="SourceAlpha" type="matrix" values="0 0 0 0 0 0 0 0 0 0 0 0 0 0 0 0 0 0 127 0" result="hardAlpha"/>
<feMorphology radius="4.63128" operator="dilate" in="SourceAlpha" result="effect2_innerShadow_144_544"/>
<feOffset dx="1.54376" dy="12.3501"/>
<feGaussianBlur stdDeviation="3.08752"/>
<feComposite in2="hardAlpha" operator="arithmetic" k2="-1" k3="1"/>
<feColorMatrix type="matrix" values="0 0 0 0 1 0 0 0 0 1 0 0 0 0 1 0 0 0 0.25 0"/>
<feBlend mode="normal" in2="shape" result="effect2_innerShadow_144_544"/>
<feGaussianBlur stdDeviation="0.849069" result="effect3_foregroundBlur_144_544"/>
</filter>
<filter id="filter2_f_144_544" x="267.71" y="303.154" width="130.293" height="130.293" filterUnits="userSpaceOnUse" color-interpolation-filters="sRGB">
<feFlood flood-opacity="0" result="BackgroundImageFix"/>
<feBlend mode="normal" in="SourceGraphic" in2="BackgroundImageFix" result="shape"/>
<feGaussianBlur stdDeviation="21.767" result="effect1_foregroundBlur_144_544"/>
</filter>
<filter id="filter3_dif_144_544" x="141.765" y="-28.461" width="83.9819" height="83.9806" filterUnits="userSpaceOnUse" color-interpolation-filters="sRGB">
<feFlood flood-opacity="0" result="BackgroundImageFix"/>
<feColorMatrix in="SourceAlpha" type="matrix" values="0 0 0 0 0 0 0 0 0 0 0 0 0 0 0 0 0 0 127 0" result="hardAlpha"/>
<feOffset/>
<feGaussianBlur stdDeviation="10.1888"/>
<feComposite in2="hardAlpha" operator="out"/>
<feColorMatrix type="matrix" values="0 0 0 0 1 0 0 0 0 0.670588 0 0 0 0 0.211765 0 0 0 1 0"/>
<feBlend mode="normal" in2="BackgroundImageFix" result="effect1_dropShadow_144_544"/>
<feBlend mode="normal" in="SourceGraphic" in2="effect1_dropShadow_144_544" result="shape"/>
<feColorMatrix in="SourceAlpha" type="matrix" values="0 0 0 0 0 0 0 0 0 0 0 0 0 0 0 0 0 0 127 0" result="hardAlpha"/>
<feMorphology radius="4.63128" operator="dilate" in="SourceAlpha" result="effect2_innerShadow_144_544"/>
<feOffset dx="1.54376" dy="12.3501"/>
<feGaussianBlur stdDeviation="3.08752"/>
<feComposite in2="hardAlpha" operator="arithmetic" k2="-1" k3="1"/>
<feColorMatrix type="matrix" values="0 0 0 0 1 0 0 0 0 1 0 0 0 0 1 0 0 0 0.25 0"/>
<feBlend mode="normal" in2="shape" result="effect2_innerShadow_144_544"/>
<feGaussianBlur stdDeviation="0.849069" result="effect3_foregroundBlur_144_544"/>
</filter>
<filter id="filter4_f_144_544" x="118.609" y="-51.6174" width="130.295" height="130.293" filterUnits="userSpaceOnUse" color-interpolation-filters="sRGB">
<feFlood flood-opacity="0" result="BackgroundImageFix"/>
<feBlend mode="normal" in="SourceGraphic" in2="BackgroundImageFix" result="shape"/>
<feGaussianBlur stdDeviation="21.767" result="effect1_foregroundBlur_144_544"/>
</filter>
<filter id="filter5_dif_144_544" x="141.769" y="681.082" width="83.9799" height="83.9806" filterUnits="userSpaceOnUse" color-interpolation-filters="sRGB">
<feFlood flood-opacity="0" result="BackgroundImageFix"/>
<feColorMatrix in="SourceAlpha" type="matrix" values="0 0 0 0 0 0 0 0 0 0 0 0 0 0 0 0 0 0 127 0" result="hardAlpha"/>
<feOffset/>
<feGaussianBlur stdDeviation="10.1888"/>
<feComposite in2="hardAlpha" operator="out"/>
<feColorMatrix type="matrix" values="0 0 0 0 1 0 0 0 0 0.670588 0 0 0 0 0.211765 0 0 0 1 0"/>
<feBlend mode="normal" in2="BackgroundImageFix" result="effect1_dropShadow_144_544"/>
<feBlend mode="normal" in="SourceGraphic" in2="effect1_dropShadow_144_544" result="shape"/>
<feColorMatrix in="SourceAlpha" type="matrix" values="0 0 0 0 0 0 0 0 0 0 0 0 0 0 0 0 0 0 127 0" result="hardAlpha"/>
<feMorphology radius="4.63128" operator="dilate" in="SourceAlpha" result="effect2_innerShadow_144_544"/>
<feOffset dx="1.54376" dy="12.3501"/>
<feGaussianBlur stdDeviation="3.08752"/>
<feComposite in2="hardAlpha" operator="arithmetic" k2="-1" k3="1"/>
<feColorMatrix type="matrix" values="0 0 0 0 1 0 0 0 0 1 0 0 0 0 1 0 0 0 0.25 0"/>
<feBlend mode="normal" in2="shape" result="effect2_innerShadow_144_544"/>
<feGaussianBlur stdDeviation="0.849069" result="effect3_foregroundBlur_144_544"/>
</filter>
<filter id="filter6_f_144_544" x="118.612" y="657.925" width="130.293" height="130.293" filterUnits="userSpaceOnUse" color-interpolation-filters="sRGB">
<feFlood flood-opacity="0" result="BackgroundImageFix"/>
<feBlend mode="normal" in="SourceGraphic" in2="BackgroundImageFix" result="shape"/>
<feGaussianBlur stdDeviation="21.767" result="effect1_foregroundBlur_144_544"/>
</filter>
<linearGradient id="paint0_diamond_144_544" x1="0" y1="0" x2="500" y2="500" gradientUnits="userSpaceOnUse">
<stop stop-color="#3579E0"/>
<stop offset="1" stop-color="#21468B"/>
</linearGradient>
</defs>
</svg>
