<svg width="515" height="767" viewBox="0 0 515 767" fill="none" xmlns="http://www.w3.org/2000/svg">
<path d="M337.726 701.95C522.464 888.471 823.429 889.916 1009.95 705.178C1196.47 520.44 1197.92 219.475 1013.18 32.954C828.439 -153.567 527.475 -155.012 340.954 29.726C154.433 214.464 152.988 515.429 337.726 701.95Z" fill="#1F4C93"/>
<path d="M675.451 367.448L237.175 183.44C186.266 304.691 189.437 435.125 235.703 547.889L675.076 368.357L675.451 367.448Z" fill="#173560"/>
<path d="M675.451 367.448L494.903 -72.269C616.561 -122.228 746.959 -118.036 859.351 -70.874L676.379 367.067L675.467 367.433L675.451 367.448Z" fill="#173560"/>
<path d="M675.452 367.448L856.016 807.15C734.358 857.109 603.959 852.917 491.567 805.755L674.539 367.815L675.452 367.448Z" fill="#173560"/>
<path d="M675.423 373.652L493.632 806.643L489.257 804.8L671.047 371.825L236.33 549.449L234.53 545.04L669.246 367.416L236.256 185.626L238.098 181.25L671.089 363.041L493.465 -71.6758L497.858 -73.4763L675.482 361.24L857.273 -71.7504L861.648 -69.9078L679.858 363.083L1114.57 185.459L1116.37 189.852L681.658 367.476L1114.65 549.266L1112.81 553.657L679.815 371.867L857.439 806.568L853.046 808.369L675.423 373.652Z" fill="white"/>
<g filter="url(#filter0_i_144_623)">
<circle cx="679.236" cy="366.776" r="475.478" transform="rotate(90.2751 679.236 366.776)" fill="white" fill-opacity="0.01"/>
</g>
<path d="M476.874 332.782L476.611 387.523L488.79 384.587L491.926 397.168L471.859 403.062L461.392 403.011L461.73 332.725L476.889 332.798L476.874 332.782Z" fill="white"/>
<path d="M452.65 332.666L452.592 344.83L429.267 363.769C424.664 367.467 421.485 370.478 419.745 372.8C418.005 375.123 417.128 377.681 417.115 380.46C417.101 383.239 417.939 385.636 419.63 387.203C421.32 388.771 423.586 389.569 426.442 389.582C429.035 389.595 431.385 388.896 433.476 387.47C435.582 386.045 438.002 383.648 440.735 380.28L451.454 389.008C447.709 393.976 443.894 397.617 440.039 399.914C436.168 402.226 431.285 403.361 425.372 403.332C418.194 403.298 412.399 401.309 408.002 397.367C403.606 393.425 401.424 388.196 401.455 381.682L401.456 381.481C401.482 376.032 402.831 371.515 405.504 367.946C408.176 364.377 412.983 359.908 419.925 354.554L431.329 345.84L400.918 345.694L400.981 332.433L452.619 332.681L452.65 332.666Z" fill="white"/>
<path d="M364.122 331.053C373.369 331.097 380.809 334.529 386.457 341.334C392.105 348.138 394.905 356.735 394.855 367.093L394.854 367.294C394.805 377.591 391.876 386.175 386.054 393.033C380.232 399.89 372.744 403.281 363.574 403.237C354.404 403.193 347.057 399.746 341.347 392.911C335.637 386.075 332.791 377.494 332.841 367.197L332.842 366.996C332.891 356.699 335.819 348.115 341.642 341.257C347.464 334.4 354.952 331.009 364.122 331.053ZM374.939 351.236C372.134 347.038 368.439 344.921 363.854 344.899C359.27 344.877 355.586 346.913 352.802 351.021C350.019 355.13 348.62 360.403 348.589 366.856L348.588 367.056C348.557 373.432 349.968 378.749 352.803 382.977C355.639 387.206 359.318 389.338 363.842 389.36C368.365 389.382 372.033 387.346 374.847 383.238C377.661 379.129 379.076 373.856 379.107 367.404L379.108 367.203C379.139 360.75 377.76 355.433 374.955 351.236L374.939 351.236Z" fill="white"/>
<path d="M325.83 332.057L325.481 404.844L310.321 404.772L310.507 365.993L292.661 385.343L274.522 385.256L294.97 364.313L274.084 331.808L291.636 331.893L305.193 353.895L310.608 348.24L310.686 331.984L325.846 332.057L325.83 332.057Z" fill="white"/>
<path d="M577.782 215.09L569.142 223.647L539.269 220.54C533.391 219.894 529.022 219.78 526.164 220.199C523.306 220.617 520.877 221.794 518.892 223.761C516.813 225.82 515.815 227.991 515.896 230.308C515.978 232.608 517.032 234.775 519.03 236.806C520.858 238.652 523.014 239.805 525.497 240.296C527.995 240.771 531.392 240.787 535.716 240.345L537.132 254.107C530.968 254.972 525.705 254.854 521.341 253.753C516.977 252.651 512.714 250.006 508.55 245.787C503.496 240.684 500.805 235.191 500.494 229.292C500.167 223.393 502.323 218.155 506.945 213.561L507.085 213.423C510.963 209.582 515.111 207.348 519.529 206.721C523.947 206.078 530.507 206.326 539.193 207.448L553.433 209.353L532.032 187.746L541.448 178.42L577.797 215.121L577.782 215.09Z" fill="white"/>
<path d="M516.337 151.345C522.836 157.907 525.686 165.593 524.856 174.404C524.042 183.215 519.943 191.269 512.575 198.567L512.435 198.705C505.114 205.957 496.974 209.947 488.017 210.676C479.06 211.405 471.355 208.512 464.902 201.997C458.496 195.528 455.692 187.858 456.475 178.969C457.275 170.096 461.327 162.027 468.649 154.775L468.788 154.637C476.11 147.385 484.249 143.395 493.206 142.666C502.164 141.937 509.869 144.83 516.321 151.345L516.337 151.345ZM509.717 173.266C510.698 168.315 509.591 164.203 506.364 160.946C503.138 157.689 499.083 156.527 494.216 157.476C489.349 158.41 484.627 161.15 480.036 165.698L479.896 165.836C475.367 170.322 472.596 175.079 471.615 180.076C470.633 185.074 471.725 189.185 474.905 192.396C478.086 195.607 482.125 196.753 487.023 195.835C491.921 194.917 496.658 192.192 501.234 187.66L501.374 187.521C505.95 182.989 508.736 178.232 509.732 173.282L509.717 173.266Z" fill="white"/>
<path d="M468.634 103.169C475.132 109.73 477.982 117.416 477.153 126.227C476.339 135.038 472.24 143.093 464.872 150.39L464.732 150.528C457.411 157.78 449.271 161.77 440.314 162.499C431.356 163.228 423.651 160.335 417.199 153.82C410.792 147.352 407.989 139.681 408.772 130.793C409.571 121.92 413.624 113.85 420.945 106.598L421.085 106.46C428.407 99.2086 436.546 95.2184 445.503 94.4895C454.461 93.7606 462.166 96.6536 468.618 103.168L468.634 103.169ZM461.998 125.105C462.979 120.154 461.872 116.042 458.646 112.785C455.419 109.527 451.365 108.365 446.497 109.315C441.63 110.248 436.908 112.989 432.317 117.537L432.177 117.675C427.648 122.161 424.877 126.918 423.896 131.915C422.915 136.912 424.007 141.024 427.187 144.235C430.367 147.446 434.406 148.592 439.304 147.674C444.203 146.756 448.94 144.03 453.516 139.498L453.655 139.36C458.231 134.828 461.017 130.071 462.014 125.12L461.998 125.105Z" fill="white"/>
<path d="M440.834 76.8204L389.119 128.042L378.456 117.277L406.005 89.9914L379.709 91.0693L366.942 78.1792L396.199 77.8257L404.423 40.0735L416.775 52.5448L410.804 77.6797L418.631 77.5011L430.172 66.0554L440.834 76.8204Z" fill="white"/>
<path d="M484.509 497.462C491.691 490.349 500.322 486.701 510.435 486.518L511.632 500.912C504.112 501.246 498.39 503.365 494.465 507.252C491.875 509.817 490.427 512.419 490.121 515.058C489.83 517.681 490.776 520.109 492.973 522.327L493.111 522.467C495.17 524.545 497.605 525.391 500.401 525.003C503.197 524.615 505.921 523.115 508.558 520.488C511.397 517.676 513.543 514.336 515.029 510.438L525.475 508.373L548.26 534.217L517.795 564.391L508.332 554.82L529.443 533.911L521.521 524.78C519.809 527.597 517.93 530.027 515.851 532.086C510.701 537.186 505.207 540 499.385 540.544C493.562 541.087 488.016 538.698 482.777 533.409L482.639 533.269C477.446 528.026 475.035 522.164 475.39 515.682C475.745 509.199 478.785 503.132 484.509 497.462Z" fill="white"/>
<path d="M439.249 542.292C445.81 535.794 453.496 532.944 462.307 533.773C471.118 534.603 479.173 538.686 486.47 546.054L486.609 546.194C493.86 553.515 497.85 561.655 498.579 570.612C499.308 579.57 496.415 587.275 489.9 593.727C483.385 600.18 475.761 602.937 466.873 602.154C457.984 601.37 449.93 597.302 442.678 589.981L442.54 589.841C435.289 582.52 431.299 574.38 430.57 565.423C429.841 556.465 432.734 548.76 439.249 542.308L439.249 542.292ZM461.169 548.928C456.219 547.947 452.107 549.054 448.849 552.28C445.592 555.507 444.43 559.561 445.379 564.429C446.313 569.296 449.054 574.018 453.601 578.609L453.74 578.749C458.226 583.278 462.983 586.049 467.98 587.03C472.977 588.011 477.089 586.919 480.299 583.739C483.51 580.559 484.657 576.52 483.738 571.637C482.82 566.739 480.095 562.002 475.563 557.426L475.425 557.286C470.892 552.71 466.136 549.924 461.185 548.928L461.169 548.928Z" fill="white"/>
<path d="M412.883 570.092L464.104 621.808L453.339 632.47L426.039 604.921L427.117 631.217L414.226 643.984L413.873 614.728L376.121 606.503L388.592 594.151L413.727 600.123L413.548 592.295L402.118 580.754L412.883 570.092Z" fill="white"/>
<g clip-path="url(#paint0_diamond_144_623_clip_path)" data-figma-skip-parse="true"><g transform="matrix(0.209427 0.566815 -0.630402 0.232921 468.412 329.707)"><rect x="0" y="0" width="1306.1" height="1284.4" fill="url(#paint0_diamond_144_623)" opacity="1" shape-rendering="crispEdges"/><rect x="0" y="0" width="1306.1" height="1284.4" transform="scale(1 -1)" fill="url(#paint0_diamond_144_623)" opacity="1" shape-rendering="crispEdges"/><rect x="0" y="0" width="1306.1" height="1284.4" transform="scale(-1 1)" fill="url(#paint0_diamond_144_623)" opacity="1" shape-rendering="crispEdges"/><rect x="0" y="0" width="1306.1" height="1284.4" transform="scale(-1)" fill="url(#paint0_diamond_144_623)" opacity="1" shape-rendering="crispEdges"/></g></g><path d="M677.839 -159.411C386.252 -159.411 149.873 76.9763 149.873 368.561C149.873 660.146 386.252 896.522 677.839 896.522C969.427 896.522 1205.81 660.146 1205.81 368.561C1205.81 76.9763 969.427 -159.411 677.839 -159.411ZM677.839 841.628C416.557 841.628 204.756 629.829 204.756 368.561C204.756 107.293 416.557 -104.517 677.839 -104.517C939.122 -104.517 1150.91 107.281 1150.91 368.561C1150.91 629.841 939.11 841.628 677.839 841.628Z" data-figma-gradient-fill="{&#34;type&#34;:&#34;GRADIENT_DIAMOND&#34;,&#34;stops&#34;:[{&#34;color&#34;:{&#34;r&#34;:0.20726238191127777,&#34;g&#34;:0.47628051042556763,&#34;b&#34;:0.87980771064758301,&#34;a&#34;:1.0},&#34;position&#34;:0.0},{&#34;color&#34;:{&#34;r&#34;:0.13059356808662415,&#34;g&#34;:0.27503004670143127,&#34;b&#34;:0.54326921701431274,&#34;a&#34;:1.0},&#34;position&#34;:1.0}],&#34;stopsVar&#34;:[{&#34;color&#34;:{&#34;r&#34;:0.20726238191127777,&#34;g&#34;:0.47628051042556763,&#34;b&#34;:0.87980771064758301,&#34;a&#34;:1.0},&#34;position&#34;:0.0},{&#34;color&#34;:{&#34;r&#34;:0.13059356808662415,&#34;g&#34;:0.27503004670143127,&#34;b&#34;:0.54326921701431274,&#34;a&#34;:1.0},&#34;position&#34;:1.0}],&#34;transform&#34;:{&#34;m00&#34;:418.85382080078125,&#34;m01&#34;:-1260.8048095703125,&#34;m02&#34;:889.38800048828125,&#34;m10&#34;:1133.6301269531250,&#34;m11&#34;:465.84231567382812,&#34;m12&#34;:-470.02957153320312},&#34;opacity&#34;:1.0,&#34;blendMode&#34;:&#34;NORMAL&#34;,&#34;visible&#34;:true}"/>
<g filter="url(#filter1_dif_144_623)">
<circle cx="177.413" cy="368.301" r="21.6127" transform="rotate(90 177.413 368.301)" fill="#FFAB36"/>
</g>
<g filter="url(#filter2_f_144_623)">
<circle cx="177.413" cy="368.301" r="21.6127" transform="rotate(90 177.413 368.301)" fill="#FFAB36"/>
</g>
<g filter="url(#filter3_dif_144_623)">
<circle cx="322.217" cy="723.072" r="21.6127" transform="rotate(45 322.217 723.072)" fill="#FFAB36"/>
</g>
<g filter="url(#filter4_f_144_623)">
<circle cx="322.217" cy="723.072" r="21.6127" transform="rotate(45 322.217 723.072)" fill="#FFAB36"/>
</g>
<g filter="url(#filter5_dif_144_623)">
<circle cx="322.213" cy="13.5293" r="21.6127" transform="rotate(-45 322.213 13.5293)" fill="#FFAB36"/>
</g>
<g filter="url(#filter6_f_144_623)">
<circle cx="322.213" cy="13.5293" r="21.6127" transform="rotate(-45 322.213 13.5293)" fill="#FFAB36"/>
</g>
<defs>
<filter id="filter0_i_144_623" x="203.758" y="-108.703" width="950.957" height="952.501" filterUnits="userSpaceOnUse" color-interpolation-filters="sRGB">
<feFlood flood-opacity="0" result="BackgroundImageFix"/>
<feBlend mode="normal" in="SourceGraphic" in2="BackgroundImageFix" result="shape"/>
<feColorMatrix in="SourceAlpha" type="matrix" values="0 0 0 0 0 0 0 0 0 0 0 0 0 0 0 0 0 0 127 0" result="hardAlpha"/>
<feOffset dy="1.54376"/>
<feGaussianBlur stdDeviation="88.3031"/>
<feComposite in2="hardAlpha" operator="arithmetic" k2="-1" k3="1"/>
<feColorMatrix type="matrix" values="0 0 0 0 0 0 0 0 0 0 0 0 0 0 0 0 0 0 0.65 0"/>
<feBlend mode="normal" in2="shape" result="effect1_innerShadow_144_623"/>
</filter>
<clipPath id="paint0_diamond_144_623_clip_path"><path d="M677.839 -159.411C386.252 -159.411 149.873 76.9763 149.873 368.561C149.873 660.146 386.252 896.522 677.839 896.522C969.427 896.522 1205.81 660.146 1205.81 368.561C1205.81 76.9763 969.427 -159.411 677.839 -159.411ZM677.839 841.628C416.557 841.628 204.756 629.829 204.756 368.561C204.756 107.293 416.557 -104.517 677.839 -104.517C939.122 -104.517 1150.91 107.281 1150.91 368.561C1150.91 629.841 939.11 841.628 677.839 841.628Z"/></clipPath><filter id="filter1_dif_144_623" x="135.423" y="326.31" width="83.9799" height="83.9806" filterUnits="userSpaceOnUse" color-interpolation-filters="sRGB">
<feFlood flood-opacity="0" result="BackgroundImageFix"/>
<feColorMatrix in="SourceAlpha" type="matrix" values="0 0 0 0 0 0 0 0 0 0 0 0 0 0 0 0 0 0 127 0" result="hardAlpha"/>
<feOffset/>
<feGaussianBlur stdDeviation="10.1888"/>
<feComposite in2="hardAlpha" operator="out"/>
<feColorMatrix type="matrix" values="0 0 0 0 1 0 0 0 0 0.670588 0 0 0 0 0.211765 0 0 0 1 0"/>
<feBlend mode="normal" in2="BackgroundImageFix" result="effect1_dropShadow_144_623"/>
<feBlend mode="normal" in="SourceGraphic" in2="effect1_dropShadow_144_623" result="shape"/>
<feColorMatrix in="SourceAlpha" type="matrix" values="0 0 0 0 0 0 0 0 0 0 0 0 0 0 0 0 0 0 127 0" result="hardAlpha"/>
<feMorphology radius="4.63128" operator="dilate" in="SourceAlpha" result="effect2_innerShadow_144_623"/>
<feOffset dx="1.54376" dy="12.3501"/>
<feGaussianBlur stdDeviation="3.08752"/>
<feComposite in2="hardAlpha" operator="arithmetic" k2="-1" k3="1"/>
<feColorMatrix type="matrix" values="0 0 0 0 1 0 0 0 0 1 0 0 0 0 1 0 0 0 0.25 0"/>
<feBlend mode="normal" in2="shape" result="effect2_innerShadow_144_623"/>
<feGaussianBlur stdDeviation="0.849069" result="effect3_foregroundBlur_144_623"/>
</filter>
<filter id="filter2_f_144_623" x="112.267" y="303.154" width="130.293" height="130.293" filterUnits="userSpaceOnUse" color-interpolation-filters="sRGB">
<feFlood flood-opacity="0" result="BackgroundImageFix"/>
<feBlend mode="normal" in="SourceGraphic" in2="BackgroundImageFix" result="shape"/>
<feGaussianBlur stdDeviation="21.767" result="effect1_foregroundBlur_144_623"/>
</filter>
<filter id="filter3_dif_144_623" x="280.226" y="681.082" width="83.9819" height="83.9806" filterUnits="userSpaceOnUse" color-interpolation-filters="sRGB">
<feFlood flood-opacity="0" result="BackgroundImageFix"/>
<feColorMatrix in="SourceAlpha" type="matrix" values="0 0 0 0 0 0 0 0 0 0 0 0 0 0 0 0 0 0 127 0" result="hardAlpha"/>
<feOffset/>
<feGaussianBlur stdDeviation="10.1888"/>
<feComposite in2="hardAlpha" operator="out"/>
<feColorMatrix type="matrix" values="0 0 0 0 1 0 0 0 0 0.670588 0 0 0 0 0.211765 0 0 0 1 0"/>
<feBlend mode="normal" in2="BackgroundImageFix" result="effect1_dropShadow_144_623"/>
<feBlend mode="normal" in="SourceGraphic" in2="effect1_dropShadow_144_623" result="shape"/>
<feColorMatrix in="SourceAlpha" type="matrix" values="0 0 0 0 0 0 0 0 0 0 0 0 0 0 0 0 0 0 127 0" result="hardAlpha"/>
<feMorphology radius="4.63128" operator="dilate" in="SourceAlpha" result="effect2_innerShadow_144_623"/>
<feOffset dx="1.54376" dy="12.3501"/>
<feGaussianBlur stdDeviation="3.08752"/>
<feComposite in2="hardAlpha" operator="arithmetic" k2="-1" k3="1"/>
<feColorMatrix type="matrix" values="0 0 0 0 1 0 0 0 0 1 0 0 0 0 1 0 0 0 0.25 0"/>
<feBlend mode="normal" in2="shape" result="effect2_innerShadow_144_623"/>
<feGaussianBlur stdDeviation="0.849069" result="effect3_foregroundBlur_144_623"/>
</filter>
<filter id="filter4_f_144_623" x="257.069" y="657.925" width="130.295" height="130.293" filterUnits="userSpaceOnUse" color-interpolation-filters="sRGB">
<feFlood flood-opacity="0" result="BackgroundImageFix"/>
<feBlend mode="normal" in="SourceGraphic" in2="BackgroundImageFix" result="shape"/>
<feGaussianBlur stdDeviation="21.767" result="effect1_foregroundBlur_144_623"/>
</filter>
<filter id="filter5_dif_144_623" x="280.224" y="-28.461" width="83.9799" height="83.9806" filterUnits="userSpaceOnUse" color-interpolation-filters="sRGB">
<feFlood flood-opacity="0" result="BackgroundImageFix"/>
<feColorMatrix in="SourceAlpha" type="matrix" values="0 0 0 0 0 0 0 0 0 0 0 0 0 0 0 0 0 0 127 0" result="hardAlpha"/>
<feOffset/>
<feGaussianBlur stdDeviation="10.1888"/>
<feComposite in2="hardAlpha" operator="out"/>
<feColorMatrix type="matrix" values="0 0 0 0 1 0 0 0 0 0.670588 0 0 0 0 0.211765 0 0 0 1 0"/>
<feBlend mode="normal" in2="BackgroundImageFix" result="effect1_dropShadow_144_623"/>
<feBlend mode="normal" in="SourceGraphic" in2="effect1_dropShadow_144_623" result="shape"/>
<feColorMatrix in="SourceAlpha" type="matrix" values="0 0 0 0 0 0 0 0 0 0 0 0 0 0 0 0 0 0 127 0" result="hardAlpha"/>
<feMorphology radius="4.63128" operator="dilate" in="SourceAlpha" result="effect2_innerShadow_144_623"/>
<feOffset dx="1.54376" dy="12.3501"/>
<feGaussianBlur stdDeviation="3.08752"/>
<feComposite in2="hardAlpha" operator="arithmetic" k2="-1" k3="1"/>
<feColorMatrix type="matrix" values="0 0 0 0 1 0 0 0 0 1 0 0 0 0 1 0 0 0 0.25 0"/>
<feBlend mode="normal" in2="shape" result="effect2_innerShadow_144_623"/>
<feGaussianBlur stdDeviation="0.849069" result="effect3_foregroundBlur_144_623"/>
</filter>
<filter id="filter6_f_144_623" x="257.067" y="-51.6174" width="130.293" height="130.293" filterUnits="userSpaceOnUse" color-interpolation-filters="sRGB">
<feFlood flood-opacity="0" result="BackgroundImageFix"/>
<feBlend mode="normal" in="SourceGraphic" in2="BackgroundImageFix" result="shape"/>
<feGaussianBlur stdDeviation="21.767" result="effect1_foregroundBlur_144_623"/>
</filter>
<linearGradient id="paint0_diamond_144_623" x1="0" y1="0" x2="500" y2="500" gradientUnits="userSpaceOnUse">
<stop stop-color="#3579E0"/>
<stop offset="1" stop-color="#21468B"/>
</linearGradient>
</defs>
</svg>
