<svg width="18" height="18" viewBox="0 0 18 18" fill="none" xmlns="http://www.w3.org/2000/svg">
<path fill-rule="evenodd" clip-rule="evenodd" d="M8.92157 0C3.99419 0 0 3.99419 0 8.92157C0 10.6077 0.468382 12.1869 1.28292 13.5322L0.487118 16.2373C0.441426 16.3926 0.438419 16.5573 0.478414 16.7142C0.518409 16.8711 0.599929 17.0143 0.714403 17.1287C0.828877 17.2432 0.972077 17.3247 1.12895 17.3647C1.28582 17.4047 1.45057 17.4017 1.60588 17.356L4.3109 16.5602C5.70154 17.4015 7.29627 17.8452 8.92157 17.8431C13.849 17.8431 17.8431 13.849 17.8431 8.92157C17.8431 3.99419 13.849 0 8.92157 0ZM6.90351 10.9405C8.70834 12.7445 10.4311 12.9827 11.0395 13.005C11.9647 13.0389 12.8658 12.3323 13.2164 11.5124C13.2603 11.4103 13.2762 11.2984 13.2624 11.1881C13.2486 11.0779 13.2056 10.9733 13.1379 10.8852C12.649 10.2607 11.9879 9.81194 11.342 9.36586C11.2072 9.2724 11.0414 9.23486 10.8795 9.26115C10.7176 9.28744 10.5722 9.37551 10.4739 9.50683L9.93863 10.3231C9.91034 10.3669 9.86649 10.3982 9.81596 10.4108C9.76544 10.4234 9.71201 10.4163 9.66652 10.391C9.30341 10.1831 8.77436 9.82979 8.39431 9.44973C8.01425 9.06967 7.68236 8.56471 7.4959 8.2248C7.47335 8.18149 7.46697 8.13155 7.47793 8.08397C7.48888 8.03638 7.51645 7.99426 7.55568 7.96518L8.38003 7.35316C8.49802 7.25109 8.57419 7.10907 8.59394 6.95432C8.6137 6.79957 8.57565 6.64297 8.48709 6.51453C8.0874 5.92928 7.6217 5.18522 6.94633 4.69185C6.85899 4.6291 6.75692 4.58996 6.65001 4.57824C6.54309 4.56652 6.43497 4.5826 6.3361 4.62494C5.51531 4.97645 4.80516 5.87753 4.83906 6.80448C4.86136 7.41293 5.09957 9.13569 6.90351 10.9405Z" fill="#45C500"/>
</svg>
